<svg xmlns="http://www.w3.org/2000/svg" width="256" height="256"><path fill-opacity=".016" d="M0 128.004v128.004l128.25-.254 128.25-.254.254-127.75L257.008 0H0v128.004m.485.496c0 70.4.119 99.053.265 63.672.146-35.38.146-92.98 0-128C.604 29.153.485 58.1.485 128.5" fill="#1976D2" fill-rule="evenodd"/><path fill-opacity=".143" d="M128.389 8.821c.279.451-.391 2.298-1.489 4.104-1.459 2.397-2.524 3.145-3.95 2.772-1.074-.281-1.701-.102-1.392.396.308.499-.142.907-.999.907-2.181 0-1.943 1.743.441 3.232 2.294 1.433 2.847 8.203.75 9.189-.687.324.1.312 1.75-.024 4.198-.858 8.588-.817 11.351.105 2.241.747 2.327.608 1.841-2.996-.413-3.067-.055-4.234 1.899-6.188C141.517 17.392 141.565 17 139 17c-1.1 0-2-.436-2-.969 0-.532-.628-.727-1.396-.432-1.608.617-4.826-3.431-3.908-4.916.344-.557.106-.679-.541-.278-.685.422-1.155.078-1.155-.846 0-.857-.477-1.559-1.059-1.559s-.831.369-.552.821m-40.126 8.407c-.56.699-1.334 2.303-1.721 3.563-.451 1.469-1.743 2.499-3.6 2.871-4.69.938-5.332 2.674-1.921 5.195C83.418 30.63 84 31.803 84 34.863c0 4.974.653 5.453 4.029 2.957 2.286-1.69 3.631-1.948 7.293-1.399l4.489.673-1.013-3.991c-.872-3.437-.724-4.398 1.065-6.91 2.4-3.371 1.971-4.193-2.19-4.193-2.07 0-3.828-.933-5.693-3.022-2.087-2.338-2.929-2.734-3.717-1.75m75.667 1.757c-1.878 2.265-3.282 2.94-6.18 2.973-4.317.048-4.81 1.513-1.713 5.084 1.523 1.757 1.873 3.118 1.39 5.403-1.031 4.873-1.006 5.076.573 4.656 5.062-1.348 7.092-1.172 9.947.861L171 40.136v-4.568c0-2.512.384-4.568.854-4.568s2.088-1.144 3.597-2.542l2.743-2.543-4.118-1.617c-2.721-1.069-4.314-2.398-4.695-3.917-1.042-4.15-2.795-4.599-5.451-1.396M108.5 42.034c-1.1.437-7.615 1.296-14.478 1.908-6.863.613-12.916 1.552-13.45 2.086-.535.535-1.94.972-3.124.972C75.213 47 50 71.018 50 73.147c0 .599 1.351 2.627 3.002 4.508 6.937 7.901 10.742 20.854 9.482 32.28-.854 7.743-2.554 16.373-3.461 17.565-.419.55-1.315 3.363-1.992 6.25s-1.604 5.25-2.06 5.25c-.456 0-1.343 2.475-1.971 5.5-.628 3.025-1.475 5.5-1.882 5.5-.407 0-1.333 2.363-2.058 5.25-.725 2.887-1.665 5.7-2.091 6.25-1.539 1.992-3.177 17.107-2.535 23.4.655 6.426 3.451 14.082 6.338 17.356.852.966 1.31 1.995 1.018 2.288-.552.552-5.913-1.528-6.79-2.634-.275-.347-1.85-1.345-3.5-2.218s-4.35-2.694-6-4.047l-3-2.46 2.871-2.26c3.166-2.493 5.629-7.478 5.629-11.393 0-1.393.449-2.532.998-2.532.763 0 .799-5.225.059-8.776-.175-.84-6.142 3.133-9.807 6.53-3.577 3.315-4.256 4.557-4.287 7.842l-.036 3.904-2.022-4.314c-1.112-2.373-1.883-5.737-1.714-7.474.275-2.812.75-3.247 4.318-3.947 4.363-.857 7.047-2.895 12.765-9.695 5.25-6.242 4.985-7.403-1.524-6.68-8.449.938-8.75 1.001-8.75 1.824 0 .432-.62.786-1.378.786-.758 0-2.059 1.012-2.891 2.25-2.7 4.017-3.01 1.024-.591-5.722 2.214-6.178 2.605-6.651 6.325-7.653 4.897-1.319 7.524-3.344 12.587-9.703 5.434-6.825 5.277-8.305-.802-7.523-2.612.336-5.177 1.002-5.7 1.481-1.303 1.193-5.55 1.101-5.55-.121 0-1.032 3.665-4.724 8.933-8.998 1.687-1.369 3.067-3.056 3.067-3.75S45.45 116 46 116s.904-.338.788-.75c-.117-.413.293-1.658.911-2.768 1.825-3.279 2.709-9.482 1.35-9.482-1.744 0-12.434 5.164-13.284 6.417-.404.596-.739-.717-.745-2.917-.01-3.335.722-4.809 4.406-8.871 4.365-4.815 8.141-13.161 6.431-14.217-1.263-.781-11.854 4.416-12.516 6.142C32.33 92.188 31 91.054 31 87.559c0-1.893-.415-3.698-.923-4.011-.508-.314-1.213-1.89-1.567-3.503-.478-2.174-1.742-3.463-4.893-4.988C21.28 73.926 18.423 73 17.268 73c-1.156 0-2.251-.436-2.435-.968-.183-.532-.903-.614-1.599-.181C10.441 73.587 21.563 89 25.609 89c.792 0 1.879 1.154 2.416 2.565 1.368 3.599 1.32 3.67-1.976 2.946-4.22-.927-12.049.416-12.049 2.067 0 .744 1.003 1.889 2.229 2.545 1.227.656 2.834 1.797 3.572 2.535 1.239 1.239 5.211 1.825 9.449 1.394 1.528-.155 1.75.781 1.75 7.385 0 4.16-.302 7.563-.671 7.563-.369 0-1.542-.787-2.605-1.75-1.444-1.306-3.662-1.75-8.746-1.75-3.746 0-7.084.273-7.418.607-1.755 1.755 2.881 5.753 12.44 10.729 2.475 1.288 4.622 2.461 4.771 2.607.461.452-1.905 10.557-2.472 10.557-.294 0-2.073-1.35-3.952-3-3.104-2.726-4.06-3-10.455-3-8.7 0-8.892 1.341-1.102 7.692 3.963 3.23 6.151 4.308 8.747 4.308 2.606 0 3.463.425 3.463 1.717 0 1.45-2.785 10.014-3.625 11.147-.148.2-1.809-.587-3.69-1.75-3.798-2.347-7.79-2.671-12.536-1.016C.227 156.116-1.207 158 .939 158c.517 0 3.019 1.8 5.561 4s5.508 4 6.592 4c1.084 0 2.229.672 2.544 1.494.316.822.924 1.278 1.353 1.013.7-.433 3.011 6.809 3.011 9.436 0 .622-2.406 1.057-5.851 1.057C8.054 179 2 180.544 2 182.098c0 .496.418.902.929.902.51 0 1.523.578 2.25 1.284C8.592 187.6 16.074 191 19.959 191c2.725 0 4.297.504 4.679 1.5.317.825 1.246 1.5 2.066 1.5.819 0 3.511 1.78 5.983 3.955 4.96 4.367 13.708 9.604 17.725 10.612 1.423.358 2.588 1.001 2.588 1.43 0 .429 1.563 1.074 3.473 1.432 1.91.358 3.822 1.2 4.25 1.871 2.708 4.249 30.151 18.652 38.527 20.221 2.063.386 3.75 1.051 3.75 1.479 0 .428 1.688 1.093 3.75 1.478 4.448.83 13.71 5.704 17.305 9.105 3.378 3.196 4.487 3.064 9.077-1.083 2.13-1.925 4.492-3.5 5.248-3.5.757 0 1.894-.625 2.528-1.389.634-.764 3.27-1.922 5.859-2.574 2.588-.652 5.162-1.55 5.72-1.996.557-.445 2.588-1.125 4.513-1.511 5.503-1.101 29.012-12.891 34.75-17.426 2.855-2.257 5.999-4.104 6.985-4.104.987 0 3.363-.837 5.28-1.86 1.917-1.023 4.516-2.184 5.777-2.581 2.699-.848 13.79-8.16 17.206-11.342 1.308-1.219 2.947-2.217 3.641-2.217s1.621-.614 2.061-1.364c.442-.753 3.115-1.58 5.967-1.846 2.91-.27 5.889-1.203 6.821-2.135.91-.91 2.185-1.669 2.833-1.687.649-.017 2.489-1.183 4.091-2.591 2.335-2.053 2.632-2.736 1.5-3.453-2.234-1.415-7.442-2.163-12.345-1.773l-4.512.359.59-4.005c.82-5.557 2.758-8.246 6.734-9.344 1.869-.516 4.303-1.776 5.408-2.8a700.875 700.875 0 014.612-4.216c3.456-3.129 3.293-3.769-1.149-4.503-6.107-1.01-8.554-.655-12.24 1.771l-3.489 2.297-1.31-4.605c-2.756-9.69-2.829-9.105 1.135-9.105 2.734 0 4.827-1.017 8.864-4.308 7.746-6.314 7.582-7.692-.914-7.692-6.221 0-7.153.277-10.148 3.012-1.815 1.657-3.664 2.787-4.11 2.511-.446-.275-1.114-2.113-1.483-4.083-.37-1.97-.912-4.206-1.205-4.969-.34-.888.4-1.621 2.059-2.038 1.425-.357 2.591-1.051 2.591-1.541 0-.491.694-.892 1.542-.892 1.806 0 9.769-5.748 11.307-8.163.92-1.444.413-1.751-3.855-2.338-5.676-.781-10.377.027-12.497 2.146-2.492 2.493-3.497.556-3.497-6.742 0-6.628.113-6.969 2.25-6.785 4.435.381 7.629-.14 8.949-1.46.738-.738 2.345-1.879 3.572-2.535 3.642-1.95 2.691-3.827-2.32-4.578-2.502-.375-5.846-.398-7.431-.049-2.757.605-2.849.511-2.129-2.182.414-1.548 1.576-2.973 2.583-3.167 3.327-.641 7.732-5.032 11.111-11.077 2.5-4.475 2.592-8.238.153-6.323-.681.534-2.738 1.256-4.572 1.604-4.753.902-8.906 4.189-9.666 7.651-.36 1.636-1.069 3.232-1.577 3.546-.508.313-.923 2.153-.923 4.088v3.517l-2.527-3.003c-1.39-1.652-3.86-3.296-5.489-3.653-1.628-.358-3.218-1.066-3.532-1.574-.313-.508-1.254-.923-2.09-.923-1.188 0-1.373.711-.843 3.25.372 1.787 1.319 4.263 2.102 5.5.784 1.237 1.19 2.25.902 2.25-.288 0 1.277 1.8 3.477 4 3.158 3.158 4 4.744 4 7.535 0 3.049-.241 3.409-1.75 2.62-4.27-2.235-11.241-5.155-12.306-5.155-1.675 0-.241 6.774 2.142 10.121 1.053 1.478 1.914 3.158 1.914 3.734 0 .575 2.025 2.738 4.5 4.807 2.475 2.069 4.5 4.368 4.5 5.109 0 .741.419 1.088.931.772 1.39-.859 2.46 1.466 1.238 2.688-.743.743-1.892.742-3.863-.005-1.543-.585-4.718-1.33-7.056-1.657-5.887-.821-5.657 1.277 1 9.116 4.274 5.034 6.187 6.468 10.293 7.717 4.295 1.306 5.295 2.103 6.736 5.37.931 2.109 1.989 5.386 2.351 7.282l.658 3.446-2.458-2.25c-1.353-1.238-2.992-2.25-3.644-2.25-.653 0-1.186-.436-1.186-.969 0-.532-.629-.727-1.399-.431-.769.295-1.696.056-2.059-.532-1.011-1.637-10.542-1.377-10.542.287 0 .746 2.726 4.33 6.057 7.966 4.703 5.132 6.882 6.758 9.75 7.275 5.501.99 6.056 1.754 5.079 6.984-.468 2.505-1.115 4.981-1.437 5.503-.943 1.525-2.449-.001-2.449-2.481 0-3.466-9.36-11.602-13.346-11.602-1.597 0-1.581.47.363 10.697.925 4.868 1.944 6.985 4.749 9.874l3.57 3.676-3.918 3.407c-3.741 3.253-13.111 8.346-15.356 8.346-.584 0-1.062.525-1.062 1.167 0 .641-.291.875-.646.52-.356-.355.473-2.343 1.841-4.417 3.605-5.464 6.805-15.499 6.805-21.342 0-4.935-4.732-26.93-6.008-27.928-.664-.519-2.988-6.861-5.681-15.5-.857-2.75-1.942-5.484-2.412-6.075-.843-1.062-3.284-11.226-5.026-20.925-1.82-10.135 3.285-26.808 10.095-32.971 3.886-3.517 2.684-5.771-9.673-18.127-8.437-8.438-12.694-11.97-15.25-12.655-5.72-1.533-21.077-3.609-27.236-3.681-3.13-.036-5.974-.525-6.321-1.085-.745-1.206-32.937-1.159-35.988.053m13.25 4.703c2.888.202 7.613.202 10.5 0 2.887-.202.525-.367-5.25-.367s-8.138.165-5.25.367m-19 .969c1.237.238 3.263.238 4.5 0 1.237-.239.225-.434-2.25-.434s-3.487.195-2.25.434m45 0c1.238.238 3.262.238 4.5 0 1.238-.239.225-.434-2.25-.434s-3.488.195-2.25.434m-55.192 1.201c-.309.498.34.671 1.441.383 2.335-.611 2.63-1.29.56-1.29-.793 0-1.693.408-2.001.907M160.5 49c.34.55.816 1 1.059 1s.441-.45.441-1-.477-1-1.059-1-.781.45-.441 1m-76.75 1.662c.688.278 1.813.278 2.5 0 .688-.277.125-.504-1.25-.504s-1.937.227-1.25.504m85 0c.688.278 1.813.278 2.5 0 .688-.277.125-.504-1.25-.504s-1.937.227-1.25.504M66.733 61.766C60.83 67.688 56 72.796 56 73.117c0 .321 4.789-4.276 10.642-10.216 5.853-5.939 11.591-10.986 12.75-11.214 2.008-.395 2.012-.421.091-.551-1.333-.09-5.657 3.515-12.75 10.63m109.08-10.083c.721.289 1.584.253 1.916-.079.332-.332-.258-.568-1.312-.525-1.165.048-1.402.285-.604.604m3.219.485c.258.367 4.63 4.948 9.718 10.18 5.088 5.232 9.25 10.024 9.25 10.648 0 .625-.48 2.118-1.067 3.32-.911 1.865-.769 1.819.978-.316 1.124-1.375 2.055-2.733 2.067-3.018.012-.285-4.801-5.235-10.696-11-5.894-5.765-10.507-10.181-10.25-9.814M113.3 77c0 3.025.187 4.263.416 2.75.229-1.513.229-3.987 0-5.5s-.416-.275-.416 2.75m28.779-3.417c.048 1.165.285 1.402.604.605.289-.722.253-1.585-.079-1.917-.332-.332-.568.258-.525 1.312M58.5 77c.995 1.1 2.035 2 2.31 2 .275 0-.315-.9-1.31-2-.995-1.1-2.035-2-2.31-2-.275 0 .315.9 1.31 2m61.313-1.317c.721.289 1.584.253 1.916-.079.332-.332-.258-.568-1.312-.525-1.165.048-1.402.285-.604.604m11.776.173c-.291.47.583.643 1.941.383 1.359-.26 2.47-.645 2.47-.856 0-.773-3.899-.356-4.411.473M148 75.393c0 .216.698.661 1.552.989.89.341 1.291.173.941-.393-.587-.951-2.493-1.406-2.493-.596m12.75.269c.688.278 1.813.278 2.5 0 .688-.277.125-.504-1.25-.504s-1.937.227-1.25.504M106 79c0 .55.477 1 1.059 1s.781-.45.441-1-.816-1-1.059-1-.441.45-.441 1m25.207 1c.239 2.043.839 2.5 3.279 2.5 2.214 0 3.069-.517 3.304-2 .224-1.409.057-1.621-.566-.716-.941 1.366-4.129.667-5.517-1.211-.448-.605-.666.018-.5 1.427M119 82c0 .55.675 1 1.5 1s1.5-.45 1.5-1-.675-1-1.5-1-1.5.45-1.5 1m-23.75.689c.963.252 2.537.252 3.5 0 .963-.251.175-.457-1.75-.457s-2.713.206-1.75.457m45.076 2.853c-2.816 3.184-9.138 3.428-11.826.457l-1.811-2-1.401 2c-1.173 1.675-2.534 2.001-8.345 2.001-5.505 0-6.943-.311-6.943-1.5 0-.988-.988-1.5-2.893-1.5-1.649 0-3.141.645-3.469 1.5-.436 1.137-2.279 1.5-7.607 1.5-6.595 0-7.037-.139-7.131-2.25l-.099-2.25-.651 2.262c-.932 3.245-6.663 6.367-12.054 6.567L71.5 92.5l-.02 14.271c-.012 7.849.294 13.474.679 12.5.618-1.562.709-1.574.771-.104.113 2.685 2.41 2.765 4.57.158 1.308-1.58 3.211-2.494 5.5-2.644 4.583-.3 6-1.284 6-4.167 0-2.728 2.609-5.017 10.324-9.056 5.191-2.718 5.647-2.788 9.63-1.473 4.071 1.343 4.237 1.31 6.363-1.3 2.036-2.5 2.778-2.696 11.037-2.913 8.203-.216 8.992-.063 10.736 2.091 2.35 2.901 9.728 5.203 14.302 4.461 2.803-.455 4.603.136 9.522 3.124 6.842 4.156 9.086 6.79 9.086 10.665 0 2.335.468 2.725 3.75 3.127 5.007.612 5.68.262 7.266-3.782 1.7-4.331 2.766-4.401 3.171-.208.172 1.787.313-3.129.313-10.925 0-8.046-.359-13.535-.831-12.695-.548.978-1.228 1.161-2 .539-.643-.519-3.194-1.274-5.669-1.678-2.475-.404-5.694-1.58-7.154-2.613-2.023-1.431-4.425-1.878-10.09-1.878-7.126 0-7.49-.114-8.748-2.75l-1.313-2.75-.638 2.5c-.909 3.558-4.799 4.005-5.235.602l-.322-2.518-2.174 2.458M67.158 95c0 1.375.227 1.938.504 1.25.278-.687.278-1.812 0-2.5-.277-.687-.504-.125-.504 1.25m121 0c0 1.375.227 1.938.504 1.25.278-.687.278-1.812 0-2.5-.277-.687-.504-.125-.504 1.25m-119.872 9.5c.008 2.75.202 3.756.432 2.236.229-1.52.223-3.77-.014-5-.237-1.23-.425.014-.418 2.764m55.464-3.777c1.787.222 4.713.222 6.5 0 1.787-.221.325-.403-3.25-.403s-5.037.182-3.25.403M187.272 105c0 2.475.195 3.487.434 2.25.238-1.237.238-3.263 0-4.5-.239-1.237-.434-.225-.434 2.25m-68.508 6.57c-.314.313-3.139 1.24-6.28 2.06-7.233 1.889-12.467 5.22-19.78 12.589-8.137 8.199-11.822 16.449-12.477 27.931-.486 8.535-.449 8.721 1.638 8.175 1.841-.481 2.135-1.287 2.135-5.86 0-6.763.591-8.202 4.113-10.023 2.199-1.138 3.021-2.427 3.515-5.518.454-2.835 1.05-3.878 2.009-3.51.769.295 1.363-.116 1.363-.945 0-1.788 2.635-1.961 3.338-.219.301.747.536.545.583-.5.098-2.165 2.079-2.347 2.079-.191 0 .857.45 1.281 1 .941.55-.34 1-1.916 1-3.502 0-1.823.796-3.442 2.163-4.4 2.845-1.992 3.837-1.227 3.837 2.961 0 2.155.78 4.221 2.087 5.528 1.421 1.421 1.901 2.824 1.506 4.399-.541 2.155-.06 2.016 7.089-2.058l7.669-4.37-.251-6.135c-.211-5.167.1-6.507 1.97-8.498 1.222-1.3 2.605-2.126 3.075-1.835.47.29.855 3.426.855 6.969 0 6.396.559 7.482 2.733 5.308.623-.623 1.838-.862 2.7-.531 1.268.486 1.58 2.468 1.637 10.383.039 5.379.376 9.016.75 8.082.374-.935 3.83-3.355 7.68-5.379 9.229-4.851 9.5-5.109 9.5-9.044 0-2.136.8-4.178 2.177-5.555l2.177-2.177-3.868-3.345c-5.424-4.688-11.586-7.948-19.451-10.291-6.248-1.86-18.949-2.763-20.271-1.44M67.158 115c0 1.375.227 1.938.504 1.25.278-.687.278-1.812 0-2.5-.277-.687-.504-.125-.504 1.25m121.037.5c.02 1.65.244 2.204.498 1.231.254-.973.237-2.323-.037-3-.274-.677-.481.119-.461 1.769m-115.796.75c-.396.688-.354.919.092.516.446-.404 1.396.046 2.11 1 1.175 1.568 1.245 1.519.733-.516-.629-2.496-1.837-2.908-2.935-1m104.875 1.508l-1.226 2.742 1.852-2.207c1.018-1.215 2.205-1.89 2.636-1.5.432.389.461.145.065-.543-1.096-1.904-1.981-1.503-3.327 1.508m11.805 3.825c.048 1.165.285 1.402.604.605.289-.722.253-1.585-.079-1.917-.332-.332-.568.258-.525 1.312M164 132.324c0 1.602.689 2.623 2 2.966 1.853.484 2 1.364 2 11.991v11.469l3.16.632c1.738.348 3.312.48 3.497.294.186-.186-.536-4.431-1.605-9.434-2.593-12.133-9.052-24.919-9.052-17.918m29.079 2.259c.048 1.165.285 1.402.604.605.289-.722.253-1.585-.079-1.917-.332-.332-.568.258-.525 1.312m-133 4c.048 1.165.285 1.402.604.605.289-.722.253-1.585-.079-1.917-.332-.332-.568.258-.525 1.312m-4 11c.048 1.165.285 1.402.604.605.289-.722.253-1.585-.079-1.917-.332-.332-.568.258-.525 1.312m-4 12c.048 1.165.285 1.402.604.605.289-.722.253-1.585-.079-1.917-.332-.332-.568.258-.525 1.312m-1 4c.048 1.165.285 1.402.604.605.289-.722.253-1.585-.079-1.917-.332-.332-.568.258-.525 1.312m153 0c.048 1.165.285 1.402.604.605.289-.722.253-1.585-.079-1.917-.332-.332-.568.258-.525 1.312M50.158 172c0 1.375.227 1.938.504 1.25.278-.687.278-1.812 0-2.5-.277-.687-.504-.125-.504 1.25m155.074 1c0 1.925.206 2.713.457 1.75.252-.963.252-2.537 0-3.5-.251-.963-.457-.175-.457 1.75m0 13c0 1.925.206 2.713.457 1.75.252-.963.252-2.537 0-3.5-.251-.963-.457-.175-.457 1.75m-155.689-.069c-.317.512-.118 1.213.441 1.559.559.345 1.016-.074 1.016-.931 0-1.757-.6-2.015-1.457-.628m1.536 4.918c-.098 1.668 2.839 7.982 4.064 8.74.495.306.037-1.164-1.019-3.267-1.055-2.102-2.154-4.497-2.442-5.322-.38-1.086-.546-1.128-.603-.151m150.841 4.713c-1.419 2.94-2.192 5.106-1.718 4.813 1.067-.659 5.197-9.319 4.676-9.805-.208-.195-1.539 2.052-2.958 4.992m-143.956 8.12c1.16 1.474 3.105 3.344 4.323 4.154 1.217.81.434-.397-1.74-2.682-4.514-4.744-5.678-5.407-2.583-1.472m136.489 2.568l-3.953 4.25 4.25-3.953c2.338-2.174 4.25-4.087 4.25-4.25 0-.757-.871.001-4.547 3.953m-15.012 11.305c-1.864 1.494-1.852 1.512.309.465 1.238-.6 2.25-1.3 2.25-1.555 0-.765-.519-.544-2.559 1.09M83 222c.825.533 1.95.969 2.5.969s.325-.436-.5-.969c-.825-.533-1.95-.969-2.5-.969s-.325.436.5.969m9 4c.825.533 2.175.945 3 .914.989-.036.819-.347-.5-.914-2.749-1.181-4.328-1.181-2.5 0m56.813 4.683c.721.289 1.584.253 1.916-.079.332-.332-.258-.568-1.312-.525-1.165.048-1.402.285-.604.604M117 235c.825.533 1.95.969 2.5.969s.325-.436-.5-.969c-.825-.533-1.95-.969-2.5-.969s-.325.436.5.969m5 2.378c0 .207.787.995 1.75 1.75 1.586 1.243 1.621 1.208.378-.378-1.307-1.666-2.128-2.195-2.128-1.372m9.559 1.154c-1.068.807-1.46 1.468-.873 1.468.588 0 1.629-.675 2.314-1.5 1.557-1.876 1.067-1.866-1.441.032" fill="#1976D2" fill-rule="evenodd"/><path fill-opacity=".479" d="M87.138 20.034c-.725 2.08-2.226 3.523-4.774 4.587l-3.716 1.553 3.176 2.485C84.423 30.693 85 31.853 85 35.039v3.894l3.308-1.952c2.683-1.583 3.945-1.769 6.684-.983 4.177 1.198 4.511.884 3.169-2.966-.891-2.557-.727-3.654.983-6.551L101.198 23h-3.531c-2.782 0-3.984-.636-5.667-3-2.685-3.771-3.538-3.765-4.862.034m76.52-.034c-2.024 2.271-3.539 3-6.234 3h-3.56l2.152 3.022c1.738 2.441 2.02 3.808 1.463 7.101-.643 3.809-.55 4.039 1.416 3.478 1.158-.331 2.934-.834 3.948-1.119 1.018-.286 2.99.385 4.408 1.5 3.484 2.742 3.749 2.607 3.749-1.91 0-3.212.57-4.373 3.132-6.378l3.132-2.452-3.729-1.23c-2.744-.906-4.103-2.126-5.145-4.621-.779-1.865-1.561-3.391-1.738-3.391-.177 0-1.524 1.35-2.994 3M106 43.086c-6.875.434-16.728 1.672-21.896 2.752l-9.395 1.963-12.427 12.427-12.428 12.428 3.638 4.765c7.741 10.142 11.148 20.777 10.023 31.287-.918 8.573-4.617 22.079-9.608 35.087-8.879 23.141-10.953 37.945-6.948 49.587 1.078 3.132 2.927 7.054 4.11 8.714 1.182 1.661 1.891 3.277 1.576 3.592-1.198 1.198-14.281-6.324-18.72-10.763-1.689-1.689-1.601-1.94 1.99-5.715 2.871-3.018 4.031-5.316 4.921-9.746 1.382-6.884 1.485-10.464.302-10.464-1.285 0-8.311 5.671-10.883 8.783-1.37 1.659-2.247 4.07-2.25 6.19-.005 3.227-.101 3.333-1.362 1.5-1.675-2.434-4.027-12.043-3.254-13.294.312-.504 2.264-1.189 4.339-1.523 4.563-.734 10.09-5.114 14.27-11.308 1.703-2.523 2.957-4.727 2.787-4.897-.171-.17-3.679.329-7.797 1.109-6.368 1.206-7.895 1.906-10.211 4.679-1.498 1.794-3.005 4.692-3.349 6.442-.343 1.749-1.317 3.446-2.163 3.771-1.217.467-1.415 1.632-.949 5.569.593 5.01.071 5.966-2.083 3.812-.889-.889-2.841-.85-8.2.161-3.868.73-7.017 1.592-6.996 1.916.064 1.049 8.613 6.055 12.954 7.587 2.321.819 5.297 1.218 6.614.887 1.783-.447 2.395-.19 2.395 1.008 0 .884.638 1.608 1.418 1.608.78 0 3.818 2.05 6.75 4.556 5.864 5.011 12.666 8.979 20.334 11.862 2.749 1.033 7.861 4.004 11.361 6.603 8.205 6.093 21.779 12.744 35.637 17.462 13.477 4.588 19.111 7.395 22.937 11.424 3.575 3.764 4.531 3.826 7.639.493 2.866-3.075 10.88-7.258 19.924-10.4 20.184-7.014 34.272-13.847 41.5-20.129 1.1-.956 5.505-3.14 9.789-4.854 9.324-3.729 16.614-7.879 22.711-12.927 2.475-2.049 5.316-4.029 6.313-4.401.998-.371 1.559-1.087 1.247-1.592-.311-.504 1.348-.89 3.687-.857 4.937.069 17.753-6.058 17.753-8.487 0-.965-12.951-2.986-14.739-2.3-.969.372-1.986.627-2.261.566-.514-.113-.296-2.861.533-6.701.335-1.554-.105-2.365-1.531-2.817-1.29-.41-2.002-1.513-2.002-3.103 0-2.378.178-2.443 4.937-1.812 5.576.74 9.043-.849 14.771-6.77l3.209-3.316-7.709.328c-6.056.258-8.174.763-9.882 2.354l-2.175 2.025-1.084-3.854c-.597-2.119-1.363-5.54-1.704-7.603-.557-3.375-.401-3.75 1.559-3.75 4.088 0 16.667-8.238 15.489-10.144-.291-.471-3.462-.856-7.047-.856-5.909 0-6.798.28-9.518 3-1.65 1.65-3.344 3-3.764 3-.42 0-1.31-2.44-1.977-5.423-1.609-7.186-5.064-10.267-4.151-3.7.144 1.029-.52 1.196-2.631.662-4.88-1.235-13.681-2.515-14.139-2.056-.242.241 1.756 3.164 4.438 6.495 4.64 5.76 10.882 10.022 14.68 10.022 1.933 0 3.963 4.344 5.602 11.989 1.357 6.327.925 7.222-1.504 3.112-.987-1.671-2.493-3.307-3.347-3.636-2.974-1.144-14.496-3.309-15.222-2.86-.403.248.259 1.902 1.469 3.673 5.773 8.448 11.564 12.722 17.237 12.722 2.673 0 2.721.103 2.107 4.582-.346 2.521-1.416 6.233-2.38 8.25l-1.751 3.668-.572-4.24c-.328-2.428-1.562-5.293-2.89-6.706-2.861-3.045-9.927-8.012-10.534-7.404-.872.872 1.726 14.295 3.252 16.803.853 1.401 2.716 3.581 4.14 4.846l2.591 2.298-3.86 3.403c-4.176 3.681-18.231 11.243-19.163 10.31-.314-.314.789-2.586 2.452-5.05 8.577-12.709 7.936-27.723-2.393-56.057-8.673-23.79-9.906-28.78-9.93-40.203-.018-8.634.346-10.87 2.666-16.372 1.478-3.505 4.271-8.305 6.208-10.668 1.936-2.363 3.52-4.806 3.52-5.429 0-.623-5.456-6.579-12.125-13.237L180.75 47.689l-9.987-1.827c-19.617-3.588-38.846-4.412-64.763-2.776m11 2.196c-.275.284-3.65.791-7.5 1.127-14.376 1.255-26.119 2.921-29.898 4.243-2.641.924-7.286 4.76-14.394 11.885L54.712 73.058l2.946 3.721c5.391 6.808 7.866 13.115 9.676 24.661 1.045 6.662-3.134 26.213-7.953 37.211-.76 1.733-1.381 3.465-1.381 3.849 0 .384-.657 2.116-1.459 3.849-1.374 2.967-4.475 13.205-6.71 22.151-1.679 6.721-.446 22.299 2.159 27.268C54.458 200.476 62.614 210 64.178 210c.545 0-.909-2.138-3.233-4.75-6.535-7.348-9.335-14.224-9.778-24.018-.452-10.003 1.189-17.409 8.013-36.158 8.31-22.835 9.702-28.889 9.42-40.988-.274-11.8-2.315-18.711-7.583-25.672-1.629-2.153-2.974-4.372-2.989-4.933C57.986 71.94 77.207 53.284 79.5 52.64c21.008-5.899 64.208-6.385 91.5-1.028l7.5 1.472 9.93 9.894 9.93 9.895-2.631 3.813C184.26 93.313 183.8 110.108 194.052 138a786.108 786.108 0 015.982 17c7.762 23.087 6.03 38.505-5.656 50.359-2.554 2.59-4.311 5.031-3.905 5.425.406.394 3.288-2.046 6.404-5.422 9.468-10.257 12.353-23.276 8.541-38.531-1.653-6.614-6.866-22.883-8.437-26.331-3.871-8.499-8.981-28.965-8.981-35.973 0-8.272 6.135-24.904 10.532-28.553 2.211-1.836 1.774-4.347-1.208-6.94-1.471-1.279-6.374-5.877-10.895-10.217-8.965-8.607-8.304-8.312-23.429-10.445-15.466-2.18-44.961-4.161-46-3.09m-4.5 4.89c-3.3.37-10.725 1.167-16.5 1.771-14.98 1.568-16.821 2.425-27.021 12.578l-8.868 8.827 1.816 2.576c6.757 9.584 9.77 21.433 8.635 33.959-.764 8.425-2.401 17.074-3.524 18.617-.4.55-1.317 3.25-2.038 6-.721 2.75-1.615 5.45-1.986 6-.847 1.252-5.178 13.767-7.932 22.918-3.072 10.208-2.889 22.508.447 30.052 4.208 9.515 14.663 18.686 28.971 25.413 9.853 4.633 9.947 4.671 20.5 8.212 10.202 3.423 15.845 5.991 20.137 9.164 2.694 1.993 2.701 1.993 5.53.002 4.724-3.322 9.363-5.416 19.833-8.951 42.713-14.421 57.532-31.958 50.965-60.31-1.299-5.608-8.979-28.573-11.538-34.5-.474-1.1-1.777-5.774-2.895-10.387-4.001-16.514-2.038-32.622 5.335-43.785l3.416-5.173-9.142-8.957c-9.028-8.847-9.234-8.978-16.641-10.568-13.96-2.996-44.972-4.861-57.5-3.458m18.715 21.38c-2.131.896-3.345 2.229-3.764 4.135-1.198 5.449-1.46 5.917-2.435 4.339-.509-.823-.486-2.147.054-3.156 1.223-2.287 1.197-2.46-.641-4.299-.896-.895-3.262-1.571-5.5-1.571H115v7.2c0 8.444-1.198 8.193-3.871-.811-1.492-5.025-2.094-5.889-4.105-5.889-1.752 0-2.589.77-3.259 3-.495 1.65-1.576 4.605-2.402 6.567-1.319 3.134-1.857 3.514-4.432 3.136-2.89-.424-2.931-.518-2.931-6.816 0-5.72-.209-6.387-2-6.387-1.833 0-2 .667-2 8v8h6.393c4.76 0 6.54-.383 6.969-1.5.338-.882 1.838-1.5 3.638-1.5 1.8 0 3.3.618 3.638 1.5.421 1.097 2.149 1.5 6.43 1.5 4.651 0 6.254-.43 7.802-2.091l1.948-2.091 2.091 2.091c2.742 2.742 8.393 2.789 11.091.091 2.169-2.169 2.696-7.83 1.021-10.961-1.544-2.885-6.107-4.043-9.806-2.487m12.515.198c-.214.412-.33 3.9-.259 7.75.099 5.389.462 7 1.579 7 .797 0 1.594-1.013 1.77-2.25.419-2.952 2.574-2.876 3.947.139.991 2.174 1.726 2.399 8.161 2.497 5.523.084 7.072-.206 7.072-1.326 0-.886-1.241-1.553-3.25-1.747-3.925-.378-4.598-3.265-.768-3.294 3.675-.028 3.963-3.28.327-3.697-3.877-.445-3.534-2.252.502-2.64 4.932-.474 3.373-2.682-1.894-2.682H156.5l-.511 7.5c-.491 7.212-.565 7.394-1.914 4.741-1.168-2.294-1.184-3.169-.095-5.204 1.116-2.085 1.063-2.823-.358-4.992-1.317-2.01-2.492-2.545-5.586-2.545-2.155 0-4.093.338-4.306.75m-129.514 4c1.95 4.571 7.756 11.205 10.384 11.864 2.525.634 5.931 5.718 4.923 7.35-.308.497-2.101.654-3.985.348C21.794 94.705 15 95.666 15 96.803 15 98.399 24.281 103 27.502 103h3.42l.289 8.707c.277 8.353.391 8.732 2.779 9.293 1.705.401 2.094.83 1.234 1.362-.691.427-.999 1.194-.683 1.704.964 1.559 7.656-3.734 10.466-8.279C47.472 111.8 50 105.776 50 103.886c0-.841-7.507 2.006-12.11 4.594-3.094 1.74-3.89 1.185-3.89-2.713 0-1.979 1.142-4.071 3.594-6.584 3.344-3.427 9.123-13.799 8.202-14.72-1.088-1.088-8.066 1.961-10.843 4.738-3.362 3.361-4.905 2.758-4.938-1.931-.008-1.226-.722-3.997-1.587-6.157-1.27-3.175-2.504-4.329-6.435-6.021C19.318 73.942 16.21 73 15.086 73c-1.847 0-1.93.264-.87 2.75m221.112-.812c-4.952 2.249-6.886 4.975-7.845 11.062-1.062 6.749-1.834 7.64-3.895 4.495-1.609-2.457-8.511-6.422-11.268-6.473-2.876-.054 1.655 8.972 7.618 15.172 2.876 2.992 3.487 4.324 3.212 7-.188 1.818-.484 3.454-.659 3.636-.174.181-2.044-.588-4.154-1.71-6.963-3.702-10.312-4.969-10.847-4.104-1.159 1.876 5.427 13.757 9.612 17.34 4.739 4.056 6.327 4.572 5.437 1.768-.424-1.336-.011-2.029 1.433-2.406 1.839-.481 2.028-1.332 2.028-9.124V103h3.499c3.302 0 13.455-4.671 13.487-6.205.024-1.194-6.864-2.07-11.034-1.403-4.165.666-4.502.26-3.351-4.029.329-1.228 2.25-2.894 4.511-3.914 2.786-1.256 4.954-3.4 7.413-7.331 1.911-3.055 3.475-5.907 3.475-6.337 0-1.378-4.375-.794-8.672 1.157M118 76c0 1.333.667 2 2 2s2-.667 2-2-.667-2-2-2-2 .667-2 2m12.438.068c-1.708 1.888-1.741 2.303-.373 4.75 2.167 3.879 6.364 4.15 8.258.534 1.274-2.43 1.267-3.048-.051-5.06-1.868-2.85-5.366-2.95-7.834-.224m16.256-.007c-.337 1.291.018 2.275.951 2.633 1.956.75 3.781-1.14 3.019-3.127-.86-2.242-3.335-1.935-3.97.494m-41.349 2.482c-.754 1.966.138 2.869 2.095 2.118.879-.337 1.276-1.238.936-2.123-.758-1.976-2.272-1.973-3.031.005M118 82c0 1.646.518 2.065 2.25 1.82 1.237-.176 2.25-.995 2.25-1.82 0-.825-1.013-1.644-2.25-1.82-1.732-.245-2.25.174-2.25 1.82m.507 21.978c-.394 1.241-2.131 2.382-4.666 3.065-3.39.913-4.334.821-5.873-.572-1.721-1.558-2.207-1.461-7.901 1.574-5.115 2.726-6.067 3.655-6.067 5.92 0 3.638-4.208 7.457-8.266 7.501-2.75.029-3.695.817-7.03 5.855-3.54 5.348-3.736 5.998-2.415 7.988 1.255 1.891 1.246 2.742-.074 6.679-.833 2.482-1.661 5.085-1.842 5.785-.18.7-1.125 1.567-2.1 1.927-2.542.938-3.24 2.316-3.258 6.425-.025 5.874 1.1 9.777 2.99 10.377 2.7.857 4.067 7.505 2.139 10.407-1.432 2.157-1.336 2.712 1.371 7.955 3.301 6.393 4.251 7.338 6.772 6.733 2.872-.69 6.88 4.314 6.148 7.675-.693 3.182 1.275 5.281 8.371 8.927 3.535 1.815 4.651 1.997 6.228 1.012 2.859-1.786 12.434 1.326 13.886 4.513 1.014 2.226 1.517 2.344 8.828 2.068 6.885-.259 7.86-.538 8.719-2.495 1.193-2.717 5.959-3.431 9.639-1.443 2.405 1.299 3.1 1.146 9-1.98 5.627-2.981 6.361-3.705 6.12-6.04-.363-3.521 4.037-7.151 7.708-6.358 2.255.487 3.08-.198 6.805-5.653 3.998-5.851 4.153-6.338 2.726-8.517-1.314-2.005-1.329-2.673-.11-5.058.772-1.512 1.705-4.148 2.074-5.86.416-1.933 1.598-3.535 3.12-4.228 2.261-1.031 2.451-1.658 2.451-8.116 0-6.281-.245-7.159-2.398-8.569-3.109-2.037-4.236-7.577-2.18-10.716 1.395-2.129 1.265-2.724-1.814-8.277-2.404-4.334-3.899-5.99-5.428-6.011-1.16-.017-3.466-1.329-5.122-2.916-2.286-2.189-2.868-3.462-2.414-5.272.656-2.615-.16-3.472-7.507-7.881-3.643-2.187-4.719-2.428-6.519-1.465-1.694.906-2.95.822-5.855-.392-2.034-.85-4.603-1.545-5.708-1.545-1.105 0-2.746-1.125-3.647-2.5-1.5-2.29-2.254-2.5-8.956-2.5-6.411 0-7.395.245-7.945 1.978m6.743 5.102c1.189.692 2.311.692 3.5 0 1.428-.831 1.105-1.019-1.75-1.019s-3.178.188-1.75 1.019m.25 1.907c-8.397.47-13.003 1.195-15.34 2.414-1.837.959-3.998 1.491-4.802 1.183-.897-.344-1.2-.138-.785.535.457.739-.095.876-1.698.423-1.6-.453-1.938-.37-1.036.256 1.022.71.52 1.435-2.129 3.072-7.478 4.622-14.826 14.434-18.521 24.733-2.619 7.301-3.1 19.397-.771 19.397 3.841 0 4.582-1.151 4.582-7.117 0-4.856.385-6.211 2.171-7.643 4.86-3.896 6.619-6.333 6.152-8.525-.46-2.163-.434-2.169 1.103-.274 1.519 1.873 1.574 1.843 1.574-.872 0-2.388.227-2.625 1.5-1.569 1.242 1.031 1.504.923 1.522-.628.02-1.638.255-1.57 1.883.549l1.861 2.421.73-4.421c1.214-7.351 4.504-9.66 4.504-3.162 0 2.677.576 4.12 2 5.009 1.486.928 2 2.332 2 5.463 0 3.963.086 4.091 1.447 2.148.796-1.137 4.396-3.579 8-5.428l6.553-3.36v-6.641c0-5.37.383-6.986 2-8.45 1.983-1.794 2-1.747 2 5.452 0 6.524.178 7.189 1.75 6.542 5.379-2.215 5.241-2.411 5.368 7.639.065 5.152.462 10.717.882 12.367l.763 3 .119-3.691c.115-3.592.357-3.819 9.108-8.5l8.99-4.809.01-4.05c.009-3.776 1.34-6.45 3.21-6.45.44 0 .8 1.8.8 4 0 3.333.333 4 2 4 1.884 0 2 .667 2 11.525 0 11.451.016 11.531 2.565 12.5 5.398 2.052 5.781 1.609 5.086-5.875-1.528-16.435-12.126-31.42-27.373-38.701-3.971-1.897-8.021-3.481-9-3.519-1.553-.062-1.525-.179.222-.93 1.144-.491 1.358-.822.5-.771-.825.048-6.9.39-13.5.758M11.03 115.75c.048 1.189 11.093 9.25 12.674 9.25 5.083 0 7.124-5.606 3.073-8.443-2.296-1.609-15.807-2.301-15.747-.807m139.97-.357c0 .216.698.661 1.552.989.89.341 1.291.173.941-.393-.587-.951-2.493-1.406-2.493-.596m79.25 1.551c-1.238 1.032-2.25 2.522-2.25 3.311 0 2.035 3.278 4.745 5.739 4.745 2.223 0 12.261-7.388 12.261-9.023 0-.543-3.001-.962-6.75-.944-5.102.025-7.299.492-9 1.911M161 122.378c0 .207.787.995 1.75 1.75 1.586 1.243 1.621 1.208.378-.378-1.307-1.666-2.128-2.195-2.128-1.372M86 129c-.589 1.1-.845 2-.57 2s.981-.9 1.57-2c.589-1.1.845-2 .57-2s-.981.9-1.57 2m-55.804.263c-.576.695-1.585 3.395-2.241 6-.656 2.605-1.417 4.737-1.692 4.737-.274 0-2.037-1.35-3.916-3-3.043-2.672-4.124-3-9.882-3-3.556 0-6.465.366-6.465.813 0 2.488 11.092 10.177 14.691 10.183 3.11.006 3.316.843 1.724 7.02-2.233 8.667-2.16 8.572-4.756 6.134-1.912-1.797-3.494-2.15-9.628-2.15H.69l1.905 2.116c4.741 5.268 14.576 10.035 15.988 7.75.294-.476 1.4-.866 2.457-.866 1.29 0 2.111-.904 2.499-2.75 2.916-13.907 3.954-15.877 8.844-16.794 1.868-.351 5.215-2.284 7.436-4.297 4.025-3.647 9.622-11.051 8.9-11.774-.379-.378-10.643 1.266-13.969 2.238-1.267.371-1.75-.058-1.75-1.556 0-2.333-1.24-2.688-2.804-.804m139.835 5.237c0 .55.436 1.675.969 2.5.533.825.969 1.05.969.5s-.436-1.675-.969-2.5c-.533-.825-.969-1.05-.969-.5M95 142.665c0 1.062 3.606 4.432 6.611 6.177 1.712.994 1.725 1.1.139 1.128-.963.016-1.75.511-1.75 1.098 0 .588-1.307.138-2.904-1-3.498-2.491-4.233-2.588-3.413-.451.341.889 2.465 2.454 4.719 3.478 2.254 1.024 3.513 1.871 2.798 1.883-.714.012-2.627-.665-4.25-1.504-3.44-1.779-3.983-.311-.727 1.969 2.102 1.473 2.116 1.561.25 1.636-1.085.043-1.41.306-.723.583.688.278 1.25 1.367 1.25 2.421 0 1.223.694 1.917 1.918 1.917 1.055 0 2.635.275 3.512.611 1.138.437 1.426.177 1.008-.912-.367-.956.094-1.7 1.239-1.996 1.334-.345 1.153-.506-.677-.602-4.55-.239-5.528-1.779-1.599-2.516 4.233-.795 4.66-2.102.987-3.024-2.44-.612-2.506-.774-.992-2.446 1.5-1.658 1.473-1.924-.364-3.586-1.092-.988-1.8-2.095-1.574-2.46.225-.366-.053-1.318-.618-2.117-.839-1.184-.925-1.129-.466.298.707 2.196-.187 2.23-2.545.095-1.006-.91-1.829-1.216-1.829-.68m7.863 2.038c-.75.924-.873 1.388-.274 1.03.599-.359 2.399 1.119 4 3.284 3.915 5.293 4.852 5.023 1.76-.508-3.063-5.481-3.744-5.953-5.486-3.806m-24.784.88c.048 1.165.285 1.402.604.605.289-.722.253-1.585-.079-1.917-.332-.332-.568.258-.525 1.312m16.57.945c.564 1.47 3.424 3.472 4.96 3.472.407 0-.317-1.125-1.609-2.5-2.64-2.81-4.234-3.273-3.351-.972m80.43 3.055c.048 1.165.285 1.402.604.605.289-.722.253-1.585-.079-1.917-.332-.332-.568.258-.525 1.312M77.158 152c0 1.375.227 1.938.504 1.25.278-.687.278-1.812 0-2.5-.277-.687-.504-.125-.504 1.25m61.93 9.925c-1.194.755-1.155 1.151.25 2.556 1.549 1.549 1.662 1.488 1.662-.91 0-2.892.023-2.872-1.912-1.646M77.195 165.5c.02 1.65.244 2.204.498 1.231.254-.973.237-2.323-.037-3-.274-.677-.481.119-.461 1.769M98 164c0 .55.9 1 2 1s2-.45 2-1-.9-1-2-1-2 .45-2 1m7 .059c0 .582.45.781 1 .441s1-.816 1-1.059-.45-.441-1-.441-1 .477-1 1.059m-4.333 2.608c-.367.366-.667 1.131-.667 1.7 0 .626.466.567 1.183-.15.651-.651.951-1.416.667-1.7-.284-.285-.817-.217-1.183.15m5.701 1.625c-3.124 3.593-3.941 5.409-1.447 3.219 2.087-1.833 4.62-5.511 3.795-5.511-.196 0-1.252 1.031-2.348 2.292m-28.289 3.291c.048 1.165.285 1.402.604.605.289-.722.253-1.585-.079-1.917-.332-.332-.568.258-.525 1.312m96 2c.048 1.165.285 1.402.604.605.289-.722.253-1.585-.079-1.917-.332-.332-.568.258-.525 1.312m-43.472 2.742c-1.592 1.273-2.71 2.865-2.487 3.536.247.739 1.765-.179 3.84-2.32 3.868-3.991 3.042-4.733-1.353-1.216m-7.897 2.589c-2.173 3.679-2.146 4.086.271 4.086 1.294 0 2.205-.892 2.627-2.573.978-3.898-.908-4.882-2.898-1.513M82 181.941c0 .518.445 1.216.989 1.552.566.35.734-.051.393-.941-.665-1.732-1.382-2.049-1.382-.611m47.872 2.809c-1.243 1.586-1.208 1.621.378.378 1.666-1.307 2.195-2.128 1.372-2.128-.207 0-.995.787-1.75 1.75M86 188c.589 1.1 1.295 2 1.57 2 .275 0 .019-.9-.57-2s-1.295-2-1.57-2c-.275 0-.019.9.57 2m76.437 5.25l-2.937 3.25 3.25-2.937c3.029-2.738 3.71-3.563 2.937-3.563-.172 0-1.635 1.463-3.25 3.25m-5.996 5.305c-1.864 1.494-1.852 1.512.309.465 1.238-.6 2.25-1.3 2.25-1.555 0-.765-.519-.544-2.559 1.09m-40.628 9.128c.721.289 1.584.253 1.916-.079.332-.332-.258-.568-1.312-.525-1.165.048-1.402.285-.604.604m21 0c.721.289 1.584.253 1.916-.079.332-.332-.258-.568-1.312-.525-1.165.048-1.402.285-.604.604m-11 1c.721.289 1.584.253 1.916-.079.332-.332-.258-.568-1.312-.525-1.165.048-1.402.285-.604.604m-55.018 6.561c.712.862 5.662 3.701 11 6.307 11.632 5.68 11.282 5.535 23.165 9.56 9.627 3.261 14.036 5.419 19.723 9.654 3.049 2.27 3.29 2.299 5.75.687 1.412-.925 2.567-2.004 2.567-2.398 0-.966 9.707-5.198 19.5-8.5 13.425-4.528 29.509-12.08 30.21-14.185.207-.62-3.94 1.038-9.215 3.683-5.274 2.646-14.631 6.467-20.792 8.493-12.342 4.057-15.651 5.53-20.386 9.073-3.671 2.746-5.042 2.932-7.238.977-2.854-2.539-13.426-7.386-22.079-10.122-4.675-1.479-13.675-5.221-20-8.315-14.382-7.037-13.746-6.781-12.205-4.914" fill="#1976D2" fill-rule="evenodd"/><path fill-opacity=".241" d="M87.959 20.183c-.887 2.018-2.802 3.947-4.888 4.927l-3.429 1.609 2.679 1.756C84.465 29.88 85 31.005 85 34.115c0 2.137.268 3.885.596 3.885.327 0 1.89-.922 3.473-2.049 2.246-1.599 3.309-1.819 4.839-1 3.434 1.837 4.229 1.297 3.535-2.403-.504-2.685-.141-4.164 1.634-6.657l2.282-3.204-3.929.624c-3.706.589-4.047.422-5.971-2.911l-2.04-3.535-1.46 3.318m76.938-.857c-1.186 2.603-2.515 3.271-7.747 3.894l-2.35.28 2.169 2.745c1.478 1.871 1.962 3.464 1.521 5-1.834 6.379-1.993 5.992 1.807 4.404 3.155-1.318 3.718-1.279 6.333.446 3.977 2.622 4.37 2.444 4.37-1.98 0-3.101.536-4.236 2.654-5.624 2.279-1.493 2.427-1.866 1.048-2.638-1.513-.847-7.041-.38-8.868.749-.459.284-.834.088-.834-.436s.675-1.211 1.5-1.528c1.663-.638 1.974-4.34.553-6.586-.733-1.158-1.163-.904-2.156 1.274M101.5 43.665c-2.2.244-8.95 1.325-14.999 2.403l-10.999 1.959-12.251 12.221C56.513 66.97 51 72.736 51 73.06c0 .325 1.958 3.112 4.352 6.195 2.703 3.481 5.217 8.294 6.635 12.704 3.017 9.384 2.419 21.215-1.797 35.541-4.207 14.298-4.617 17.091-1.539 10.5 5.466-11.705 7.597-20.731 7.675-32.5.065-9.738-.23-11.721-2.571-17.286-1.454-3.458-4.019-8.022-5.7-10.144-1.68-2.122-2.992-4.468-2.916-5.214.077-.746 5.143-6.177 11.258-12.069l11.119-10.712 9.992-1.647c27.577-4.545 50.712-4.544 79.992.002l11 1.708 11.451 11.387 11.451 11.388-3.067 4.293c-7.946 11.125-10.408 21.438-8.514 35.664 1.008 7.573 5.86 24.145 7.57 25.854 1.701 1.701 1.241-1.245-1.604-10.27-2.789-8.846-3.146-11.345-3.213-22.454-.069-11.584.124-12.924 2.635-18.282 1.491-3.18 4.383-7.824 6.427-10.319l3.717-4.536-12.426-12.367L180.5 48.129l-12-2.204c-9.993-1.836-16.264-2.246-37.5-2.454-14.025-.137-27.3-.05-29.5.194m17.75 5.078c4.263.188 11.238.188 15.5 0 4.262-.187.775-.341-7.75-.341s-12.013.154-7.75.341m-18 .946c.963.252 2.537.252 3.5 0 .963-.251.175-.457-1.75-.457s-2.713.206-1.75.457m48 0c.963.252 2.537.252 3.5 0 .963-.251.175-.457-1.75-.457s-2.713.206-1.75.457m-57.437 1.994c.721.289 1.584.253 1.916-.079.332-.332-.258-.568-1.312-.525-1.165.048-1.402.285-.604.604m68.937-.021c.688.278 1.813.278 2.5 0 .688-.277.125-.504-1.25-.504s-1.937.227-1.25.504m-77.481 1.031c.973.254 2.323.237 3-.037.677-.274-.119-.481-1.769-.461-1.65.02-2.204.244-1.231.498m86.481-.031c.688.278 1.813.278 2.5 0 .688-.277.125-.504-1.25-.504s-1.937.227-1.25.504M73.872 57.75c-1.243 1.586-1.208 1.621.378.378C75.916 56.821 76.445 56 75.622 56c-.207 0-.995.788-1.75 1.75m108.184.663c2.246 2.976 10.149 10.716 10.541 10.324.193-.193-2.425-3.026-5.817-6.294-3.393-3.269-5.518-5.082-4.724-4.03M69.872 61.75c-1.243 1.586-1.208 1.621.378.378C71.916 60.821 72.445 60 71.622 60c-.207 0-.995.788-1.75 1.75m-7.41 7.5L57.5 74.5l5.25-4.962C67.628 64.926 68.459 64 67.712 64c-.158 0-2.52 2.362-5.25 5.25m68.766 2.768c-2.358.969-3.946 3.598-2.841 4.702.348.349 1.227-.177 1.951-1.168 1.644-2.248 6.63-2.36 7.852-.177 1.11 1.983 2.81 2.133 2.81.247 0-3.055-5.855-5.215-9.772-3.604M91.206 79.25l.294 7.25 3.856.317c2.81.23 3.738-.035 3.423-.979-.237-.712-1.522-1.304-2.855-1.316-2.272-.021-2.443-.413-2.722-6.272-.163-3.437-.746-6.25-1.294-6.25-.596 0-.878 2.906-.702 7.25m12.741-4.611c-1.259 3.311-.25 4.495 1.635 1.918 1.403-1.919 1.434-1.919 2.992.002 1.52 1.873 1.555 1.854 1.014-.559-.308-1.375-.567-2.838-.574-3.25-.037-2.04-4.157-.504-5.067 1.889M115 74.445c0 1.405.45 2.555 1 2.555s1-.675 1-1.5c0-1 1-1.5 3-1.5s3 .5 3 1.5c0 .825.481 1.5 1.07 1.5.588 0 .925-1.013.75-2.25-.273-1.92-1.017-2.295-5.07-2.555-4.507-.289-4.75-.174-4.75 2.25M144 75c0 1.65.45 3 1 3s1-.93 1-2.066c0-3.094 5.373-2.326 5.821.831.409 2.878 2.179 1.89 2.179-1.217 0-2.651-1.664-3.548-6.582-3.548-3.131 0-3.418.252-3.418 3m13 4.56v7.561l3.521-.311c3.839-.338 4.854-2.236 1.221-2.282-1.553-.019-2.34-.72-2.562-2.278-.26-1.832.158-2.25 2.25-2.25 1.414 0 2.57-.45 2.57-1s-1.125-1-2.5-1c-1.833 0-2.5-.533-2.5-2 0-1.556.667-2 3-2 1.65 0 3-.45 3-1s-1.8-1-4-1h-4v7.56M115 83c0 3.571.261 4 2.435 4 4.583 0 7.565-1.764 7.565-4.475 0-3.13-1.744-3.349-2.18-.275-.235 1.648-.989 2.25-2.82 2.25-1.984 0-2.565-.568-2.816-2.75C116.697 77.52 115 78.492 115 83m12-2.455c0 2.388 4.627 6.455 7.344 6.455 2.931 0 6.24-2.666 7.136-5.75.875-3.009-.871-2.882-2.259.163-.604 1.328-2.049 2.715-3.209 3.083-2.477.786-7.012-1.813-7.012-4.019 0-.812-.45-1.477-1-1.477s-1 .695-1 1.545m17 2.679c0 2.077.45 3.776 1 3.776s1-1.35 1-3c0-4.017 2.916-4.014 5.203.006 2.366 4.158 4.154 3.811 2.139-.414-1.368-2.869-2.236-3.467-5.484-3.777L144 79.447v3.777m-43.117.058c-1.465 3.538-.149 4.939 1.848 1.968 1.99-2.959 6.769-3.054 8.315-.164 1.47 2.747 2.304 1.782 1.525-1.764-.579-2.633-.952-2.822-5.578-2.822-4.479 0-5.069.268-6.11 2.782m-75.356.281c-4.216 2.198-4.219 2.25-.265 3.902 4.434 1.852 5.831 6.218 3.25 10.156-1.581 2.415-1.457 5.544.21 5.27 2.899-.476 3.278.385 3.278 7.44 0 6.732.198 7.437 2.42 8.626 1.4.749 2.197 1.878 1.89 2.678-.41 1.067-.004 1.187 1.778.528 1.27-.47 2.456-1.296 2.636-1.836.355-1.064-3.911-3.327-6.271-3.327-1.693 0-1.789-.504-.54-2.838.551-1.028.552-3.644.004-6.577-.679-3.633-.587-5.151.36-5.977 2.173-1.895 5.29-5.991 3.973-5.221-.69.404-1.25.231-1.25-.387 0-.615-.399-.871-.887-.57-.487.301-1.438-.117-2.113-.93-.675-.813-1.605-1.244-2.067-.959-.814.503-2.93-5.853-3.217-9.663-.078-1.033-.158-1.875-.179-1.872-.02.004-1.375.704-3.01 1.557M228 85.918c0 1.605-.239 3.743-.531 4.75-.34 1.173-.113 1.041.63-.367.639-1.21 2.453-2.483 4.031-2.83 3.336-.732 3.673-1.971.936-3.436-3.469-1.856-5.066-1.262-5.066 1.883m-40.921 4.665c.048 1.165.285 1.402.604.605.289-.722.253-1.585-.079-1.917-.332-.332-.568.258-.525 1.312m36.111 4.035c-.72.784-1.733 1.164-2.25.845-1.852-1.145-.898 3.498 1.102 5.362 1.985 1.849 2.369 7.084.715 9.759-.344.557-.212 1.665.294 2.464 1.348 2.131 1.147 3.952-.436 3.952-.762 0-2.866.623-4.676 1.384l-3.29 1.383 3.175 1.642c2.784 1.44 3.176 1.455 3.176.125 0-.834.9-2.079 2-2.766 1.604-1.002 2.003-2.341 2.014-6.759.019-7.818.802-10.202 3.11-9.47 2.437.774 2.468-1.478.078-5.793-2.047-3.695-3.145-4.161-5.012-2.128M69.158 96c0 1.375.227 1.938.504 1.25.278-.687.278-1.812 0-2.5-.277-.687-.504-.125-.504 1.25m116.921-.417c.048 1.165.285 1.402.604.605.289-.722.253-1.585-.079-1.917-.332-.332-.568.258-.525 1.312m-66.993 8.667c-.56 1.458-2.354 2.705-5.099 3.543-3.759 1.149-4.451 1.097-6.168-.457-1.854-1.678-2.17-1.62-7.627 1.394-4.555 2.517-5.757 3.706-6.019 5.957-.489 4.199-4.849 8.326-8.498 8.044-2.636-.204-3.373.406-6.274 5.191-2.605 4.296-3.075 5.818-2.264 7.333.711 1.33.655 3.484-.184 7.078-1.271 5.439-3.36 8.667-5.608 8.667-.999 0-1.345 1.807-1.345 7.025 0 6.46.189 7.097 2.358 7.921 3.043 1.157 5.191 8.354 3.028 10.148-2.046 1.698-1.569 4.845 1.501 9.906 2.033 3.35 3.447 4.584 5.536 4.827 3.971.464 7.739 4.927 7.115 8.429-.433 2.434.145 3.177 4.967 6.379 4.883 3.242 5.749 3.503 8.226 2.479 4.144-1.711 13.275 1.402 15.062 5.136 1.234 2.578 1.718 2.75 7.736 2.75 6.053 0 6.504-.164 7.899-2.862 1.81-3.499 7.952-5.009 10.605-2.608 2.215 2.005 3.719 1.767 8.967-1.419 3.017-1.831 4.61-3.536 4.835-5.171.549-4.001 5.168-8.159 8.52-7.671 2.437.355 3.355-.256 6.277-4.177 2.917-3.914 3.341-5.158 2.87-8.425-.772-5.357 2.252-14.598 5.219-15.95 2.066-.941 2.279-1.714 2.279-8.261 0-6.289-.249-7.288-1.926-7.726-1.2-.314-2.39-2.053-3.157-4.614-1.095-3.653-1.024-4.34.633-6.171 1.829-2.021 1.805-2.168-1.28-7.753-2.429-4.396-3.747-5.766-5.788-6.016-3.708-.455-8.451-5.975-7.885-9.176.367-2.074-.299-2.963-3.902-5.214-5.899-3.686-7.493-4.198-9.047-2.909-2.018 1.675-14.846-2.856-16.135-5.7-.873-1.925-1.772-2.177-7.775-2.177-6.116 0-6.873.223-7.652 2.25m.717 3.743c-11.039 1.417-22.236 7.249-30.522 15.897-14.853 15.501-17.731 40.92-6.827 60.284 3.39 6.02 12.124 15.205 13.593 14.297.714-.441-.407-2.202-3.074-4.832-6.374-6.286-10.045-12.197-12.629-20.334-2.879-9.064-2.881-9.297-.094-9.337 4.356-.061 5.75-2.193 5.75-8.793 0-5.161.322-6.277 2.082-7.219 2.442-1.307 4.29.563 5.48 5.544.824 3.445.695 3.076 2.438 7 .733 1.65 1.37 3.354 1.416 3.786.046.433.695 1.164 1.441 1.625 1.012.626 1.056 1.024.176 1.568-.823.51-.554 1.168.894 2.182 1.14.799 2.073 1.989 2.074 2.646.001 1.221 8.908 6.693 10.896 6.693.607 0 1.11-.787 1.118-1.75.013-1.496.157-1.532.985-.25.533.825.976 1.739.985 2.031.029 1.032-9.955 10.969-11.022 10.969-.594 0-.827.412-.516.915.311.503.022 1.095-.642 1.317-.837.279-.874.607-.122 1.072.597.369 3.013-1.421 5.37-3.977 2.356-2.557 3.983-3.864 3.616-2.906-.368.959-.669 2.553-.669 3.544 0 .991-.9 2.037-2 2.325-1.1.287-2 1.001-2 1.585 0 1.519 3.08.136 5.839-2.623 1.648-1.648 2.703-2.047 3.551-1.343.847.702 2.059.269 4.064-1.454 3.212-2.76 4.696-3.003 7.534-1.23 1.647 1.028 2.805.788 7.236-1.503 2.902-1.499 6.739-3.007 8.526-3.349 3.617-.693 4.009-1.498 1.674-3.436-1.073-.891-1.792-.97-2.25-.249-.771 1.214-4.58.082-5.672-1.684-1.291-2.09.64-2.528 2.214-.502 1.25 1.608 1.436 1.657.95.248-.455-1.319-.057-1.756 1.615-1.773 1.908-.019 1.779-.24-.919-1.57-2.305-1.138-3.005-2.057-2.636-3.466.276-1.055.809-1.728 1.185-1.496.377.233 1.338.003 2.137-.511 1.264-.813 1.258-1.069-.048-1.976-1.241-.861-1.154-.991.5-.75 2.958.432 3.445-4.148.523-4.912-1.282-.335-1.926-1.106-1.611-1.927.738-1.923-.381-1.702-2.295.452-.889 1.002-3.08 2.674-4.867 3.716-1.787 1.042-3.25 2.27-3.25 2.729 0 .459-1.8.654-4 .434-3.149-.315-4.013-.06-4.063 1.2-.042 1.048-.376.823-.968-.65-.498-1.238-1.617-2.25-2.488-2.25s-2.241-1.575-3.045-3.5c-.805-1.925-2.019-3.504-2.699-3.508-.681-.004-1.757-1.129-2.393-2.5-.938-2.022-.891-2.492.25-2.492.967 0 1.406-1.214 1.406-3.885 0-4.167 1.58-5.78 9-9.19 5.098-2.342 5.866-3.753 6.2-11.387.191-4.387.753-7.028 1.55-7.292.922-.304 1.25 1.457 1.25 6.706 0 6.728.106 7.062 1.934 6.083 4.848-2.594 5.184-1.875 4.998 10.675-.11 7.483.208 11.837.884 12.062.584.195 1.196-1.328 1.37-3.406.288-3.447.81-4.034 6.314-7.099 3.3-1.838 7.125-3.866 8.5-4.507 3.523-1.642 3.363-1.38 3.959-6.472.654-5.594 3.041-7.155 3.041-1.988 0 2.626.485 3.594 2 3.99 1.855.485 2 1.364 2 12.097v11.575l2.75.602c5.586 1.225 5.559 1.19 4.95 6.207-1.623 13.392-12.464 28.447-25.303 35.139-7.037 3.668-19.196 6.29-25.897 5.584-5.884-.619-15.327-3.261-19.347-5.412-1.273-.681-2.253-.729-2.625-.127-1.497 2.422 16.033 7.998 25.24 8.028 6.663.022 18.376-3.087 24.472-6.494 10.481-5.858 19.241-16.168 23.78-27.989 3.399-8.852 3.431-24.438.068-33.5-2.895-7.804-9.485-17.469-15.325-22.479-6.423-5.509-17.102-10.184-26.136-11.44-4.275-.595-7.852-1.022-7.949-.95-.098.072-2.742.46-5.875.862M69.195 114.5c.02 1.65.244 2.204.498 1.231.254-.973.237-2.323-.037-3-.274-.677-.481.119-.461 1.769m116.963-.5c0 1.375.227 1.938.504 1.25.278-.687.278-1.812 0-2.5-.277-.687-.504-.125-.504 1.25m.921 6.583c.048 1.165.285 1.402.604.605.289-.722.253-1.585-.079-1.917-.332-.332-.568.258-.525 1.312M24 123.5c-.718.865-.815 1.5-.229 1.5.558 0 1.274-.675 1.591-1.5.316-.825.419-1.5.229-1.5-.19 0-.906.675-1.591 1.5m42.079 3.083c.048 1.165.285 1.402.604.605.289-.722.253-1.585-.079-1.917-.332-.332-.568.258-.525 1.312M30.166 131.5c-.671 1.65-1.735 4.35-2.365 6-1.506 3.942-1.534 3.966-3.095 2.671-1.003-.833-1.893-.728-3.524.414-2.845 1.993-2.757 3.054.318 3.826 2.815.706 2.838.881 1.151 8.869-1.017 4.811-1.76 6.108-4.436 7.736-1.768 1.075-3.215 2.336-3.215 2.803 0 1.686 1.347 2.138 2.794.937.812-.674 2.204-1.233 3.092-1.241 1.18-.011 2.093-2.03 3.395-7.515 1.836-7.731 4.172-11 7.861-11 3.277 0 3.43-2.969.282-5.479-2.426-1.934-2.667-2.523-1.572-3.842.711-.857 1.122-2.823.913-4.369l-.379-2.81-1.22 3m34.913-.917c.048 1.165.285 1.402.604.605.289-.722.253-1.585-.079-1.917-.332-.332-.568.258-.525 1.312m40.184-.333c-1.806 2.3-2.273 7.496-.785 8.732.766.636 1.664 2.363 1.995 3.837.331 1.475 1.475 3.806 2.542 5.181l1.941 2.5.022-6.215c.019-5.302-.286-6.38-2.077-7.338-1.652-.884-2.014-1.85-1.701-4.535.414-3.549-.258-4.3-1.937-2.162m119.769.566c-.018 1.273.465 3.244 1.072 4.378.932 1.741.679 2.429-1.619 4.403-2.812 2.417-2.847 5.403-.063 5.403 4.088 0 6.448 2.29 7.604 7.379 1.794 7.896 3.285 11.687 4.43 11.266.574-.211 1.834.304 2.8 1.146.966.842 2.075 1.211 2.465.822 1.009-1.01-1.008-3.941-3.492-5.074-1.57-.716-2.507-2.731-3.676-7.908-.863-3.822-1.382-7.136-1.153-7.365.229-.229 1.245-.537 2.258-.686 2.654-.388 2.986-3.599.44-4.265-1.192-.311-1.794-1.026-1.415-1.679.363-.625-.319-.276-1.517.775-2.54 2.228-2.399 2.336-4.157-3.212-.749-2.365-1.944-5.065-2.654-6-1.173-1.544-1.294-1.487-1.323.617m-122.468 10.477c.376.986.935 1.541 1.243 1.233.308-.307.001-1.114-.683-1.793-.988-.98-1.102-.865-.56.56M92 146c0 .55.477 1 1.059 1s.781-.45.441-1-.816-1-1.059-1-.441.45-.441 1m107.769 1.223c.319 1.222 1.174 3.36 1.9 4.75.725 1.39 1.321 3.031 1.325 3.647.003.616.95 3.991 2.104 7.5 1.49 4.531 2.126 9.143 2.196 15.913.089 8.663-.181 10.122-2.958 16-3.284 6.948-10.595 15.967-12.943 15.967-.791 0-3.363 1.775-5.717 3.945-4.881 4.499-18.969 11.446-32.176 15.867-12.903 4.319-17.719 6.563-21.831 10.174l-3.626 3.183-4.271-3.373c-5.115-4.039-9.331-6.022-21.27-10.001-14.933-4.976-27.269-10.847-31.487-14.985-3.326-3.264-9.445-6.804-11.795-6.825-1.201-.011-1.351-.25-.499-.792.898-.57.624-1.428-1.029-3.234-4.375-4.779-7.635-11.729-8.794-18.745-.965-5.842-.882-8.682.488-16.791.907-5.368 2.071-10.269 2.588-10.891 1.311-1.58 2.475-9.532 1.395-9.532-1.463 0-5.217 11.867-6.925 21.893-2.259 13.262-.625 22.604 5.557 31.763 1.612 2.389 2.42 4.344 1.794 4.344-2.495 0-13.895-6.318-17.968-9.959l-4.327-3.867 3.446-3.587L38.392 186l-2.946-.158c-3.696-.197-4.434-.126-7.115.689-1.97.6-2.401-.056-4.723-7.186l-2.554-7.845.542 5.732c.405 4.275.144 6.3-1.026 7.972-2.469 3.524-1.984 4.836 1.68 4.55 2.205-.172 3.167.157 2.991 1.024-.143.703.532 1.566 1.5 1.918.967.352 3.784 2.312 6.259 4.354 5.137 4.24 15.568 10.181 21.638 12.322 2.266.8 6.987 3.567 10.491 6.151 8.482 6.253 20.748 12.312 35.371 17.473 14.566 5.141 18.444 7.056 23.45 11.577l3.859 3.487 4.609-3.989c5.234-4.53 9.327-6.499 24.129-11.61 15.515-5.358 26.866-11.125 35.687-18.133 1.504-1.195 5.329-3.133 8.5-4.307 9.196-3.404 13.911-5.912 20.448-10.876 3.365-2.555 7.062-5.193 8.218-5.862 1.155-.669 2.111-1.794 2.124-2.5.016-.828 1.17-1.193 3.25-1.029 2.581.203 3.226-.122 3.226-1.628 0-1.034-.638-2.411-1.418-3.058-1.017-.844-1.283-2.631-.941-6.313.262-2.825.702-5.501.977-5.946.275-.445.023-.809-.559-.809-.582 0-1.059.794-1.059 1.764 0 1.686-3.477 12.046-4.328 12.897-.224.225-2.942.011-6.04-.475s-5.632-.742-5.632-.569c0 .172 1.372 1.876 3.048 3.785 2.522 2.873 2.852 3.784 1.909 5.285-1.986 3.161-14.385 10.797-20.707 12.752-2.698.834-3.137-1.458-.672-3.504.868-.72 2.78-3.588 4.25-6.372 2.485-4.71 2.671-5.936 2.663-17.563-.008-10.937-.364-13.626-2.849-21.5-2.899-9.19-4.997-13.5-6.571-13.5-.486 0-.622 1-.302 2.223m-92.519 6.2c0 1.778.34 2.387.979 1.748.638-.638.638-1.587 0-2.727-.827-1.477-.979-1.324-.979.979m1.563 4.26c.721.289 1.584.253 1.916-.079.332-.332-.258-.568-1.312-.525-1.165.048-1.402.285-.604.604m-1.28 3.264c-.358.579-.21 1.053.329 1.053.538 0 1.289 1.41 1.667 3.133.492 2.24.927 2.747 1.527 1.777.461-.747.445-1.601-.037-1.898-.481-.298-.795-1.386-.697-2.419.199-2.103-1.784-3.273-2.789-1.646m-82.926 4.635c-.883 2.301-.743 5.418.244 5.418.468 0 2.268-.494 4-1.098C32.055 168.785 33.232 166 30.5 166c-.825 0-1.5-.45-1.5-1 0-1.631-3.734-1.137-4.393.582m90.265-.332c1.176 1.499 1.158 1.75-.127 1.75-.825 0-2.114.74-2.865 1.644-1.213 1.462-1.115 1.565.878.933 1.695-.538 2.242-.315 2.242.915 0 .894.45 1.348 1 1.008 1.616-.999 1.147-5.14-.75-6.628-1.586-1.243-1.621-1.208-.378.378m112.878.128c-3.195 2.452-2.348 3.937 2.885 5.059 3.104.665 3.128.639 2.46-2.627-.742-3.628-2.653-4.498-5.345-2.432M52.158 171c0 1.375.227 1.938.504 1.25.278-.687.278-1.812 0-2.5-.277-.687-.504-.125-.504 1.25m70.092-.326c-1.74 1.215-2.25 1.271-2.25.248 0-1.028-.267-1.055-1.2-.122-.926.926-.929 1.471-.013 2.387.915.915 1.703.716 3.45-.873 1.245-1.133 2.938-2.306 3.763-2.608 1.333-.487 1.333-.551 0-.575-.825-.014-2.513.68-3.75 1.543m80.945.826c.02 1.65.244 2.204.498 1.231.254-.973.237-2.323-.037-3-.274-.677-.481.119-.461 1.769m-36.945 1.206c-1.238.238-2.25 1.053-2.25 1.812 0 1.097.612 1.165 3 .332 1.65-.575 3-1.452 3-1.948s-.338-.841-.75-.766c-.412.075-1.762.331-3 .57m-49.354 2.044c-.697 5.009-.439 8.115.603 7.251 1.429-1.186 1.83-8.001.471-8.001-.534 0-1.017.338-1.074.75m10.449.793c-.326.849-.369 1.767-.096 2.04.274.273.737-.422 1.03-1.543.624-2.383-.069-2.751-.934-.497m32.468-.86c.721.289 1.584.253 1.916-.079.332-.332-.258-.568-1.312-.525-1.165.048-1.402.285-.604.604m-7.021 1.442c-.207.619-1.603 1.125-3.102 1.125-2.201 0-2.507.266-1.586 1.375 1.304 1.572 3.332 1.889 2.396.375-.34-.55.272-1 1.359-1 2.666 0 5.141-1.015 5.141-2.107 0-1.302-3.766-1.095-4.208.232m-21.796 3.379c-1.289 1.373-1.916 2.496-1.393 2.496 1.118 0 4.727-4.003 4.139-4.591-.22-.221-1.456.722-2.746 2.095m5.099-.563c-.994.615-1.022.986-.115 1.547.657.406 1.644.288 2.194-.262 1.303-1.303-.373-2.339-2.079-1.285M121 184c0 .55.648 1 1.441 1s1.719-.45 2.059-1c.34-.55-.309-1-1.441-1-1.132 0-2.059.45-2.059 1m-68.842 3c0 1.375.227 1.938.504 1.25.278-.687.278-1.812 0-2.5-.277-.687-.504-.125-.504 1.25m151 0c0 1.375.227 1.938.504 1.25.278-.687.278-1.812 0-2.5-.277-.687-.504-.125-.504 1.25m-85.911.797c.592.714 1.346.939 1.676.5a9.868 9.868 0 011.404-1.445c.441-.357-.313-.582-1.676-.5-1.911.114-2.233.445-1.404 1.445m-64.168 3.786c.048 1.165.285 1.402.604.605.289-.722.253-1.585-.079-1.917-.332-.332-.568.258-.525 1.312m146.545 3.956c-.965 2.514-.681 3.163.498 1.136.584-1.004.851-2.036.593-2.293-.257-.258-.749.263-1.091 1.157m-100.165.528c-.363.586-.445 1.281-.183 1.543s.743-.218 1.069-1.067c.676-1.762.1-2.072-.886-.476m3.041.933c-.34.55-.168 1 .382 1s1.278-.45 1.618-1c.34-.55.168-1-.382-1s-1.278.45-1.618 1m89.48 8.524c-1.838 2.215-.792 2.47 1.27.309.963-1.008 1.355-1.833.872-1.833-.482 0-1.446.686-2.142 1.524M197 209c0 .55.45 1 1 1s1-.45 1-1-.45-1-1-1-1 .45-1 1m-11.559 2.555c-1.864 1.494-1.852 1.512.309.465 1.238-.6 2.25-1.3 2.25-1.555 0-.765-.519-.544-2.559 1.09M178 216c-.825.533-1.05.969-.5.969s1.675-.436 2.5-.969c.825-.533 1.05-.969.5-.969s-1.675.436-2.5.969m-84.187 8.683c.721.289 1.584.253 1.916-.079.332-.332-.258-.568-1.312-.525-1.165.048-1.402.285-.604.604" fill="#1976D2" fill-rule="evenodd"/></svg>