<?xml version="1.0" encoding="utf-8"?>
<!-- Generator: Adobe Illustrator 24.1.2, SVG Export Plug-In . SVG Version: 6.00 Build 0)  -->
<svg version="1.1" id="Camada_1" xmlns="http://www.w3.org/2000/svg" xmlns:xlink="http://www.w3.org/1999/xlink" x="0px" y="0px"
	 viewBox="0 0 330.9 324.4" style="enable-background:new 0 0 330.9 324.4;" xml:space="preserve">
<style type="text/css">
	.st0{clip-path:url(#SVGID_2_);}
	.st1{fill-rule:evenodd;clip-rule:evenodd;fill:#F0F0F0;}
</style>
<g id="Camada_2_1_">
	<g id="Camada_1-2">
		<g>
			<defs>
				<rect id="SVGID_1_" y="-143.5" width="330.9" height="467.9"/>
			</defs>
			<clipPath id="SVGID_2_">
				<use xlink:href="#SVGID_1_"  style="overflow:visible;"/>
			</clipPath>
			<g class="st0">
				<path class="st1" d="M262.2,180.5c7.7-8.7,18.2-9.4,25.1,0.5c8.4,12,4.8,26-3.3,36.9c-1.2,1.6-3.5-0.5-2.3-2.1
					c6.3-8.6,9.4-18.2,5.4-28.5c-1.8-4.6-5.1-9.2-10.1-10.6s-9.5,2.4-12.6,5.9C263.2,184.1,260.9,182,262.2,180.5"/>
				<path class="st1" d="M280.3,217.3c-0.8-7.9-6.1-11.7-11.6-16.6c-4.2-3.6-6.7-8.8-7-14.4c-0.1-2,3-2.2,3.1-0.2
					c0.6,8.1,5.8,11.9,11.4,16.9c4.2,3.5,6.8,8.6,7.3,14.1C283.7,219.2,280.5,219.3,280.3,217.3"/>
				<path class="st1" d="M265.2,209.1c-4.8,4-16.8,13.3-10.6,20.3c7.4,8.4,21.4-2.7,26-9.1c1.2-1.6,3.5,0.5,2.3,2.1
					c-6.2,8.6-20.9,18.2-30.4,9.3c-9-8.4,5.1-20.3,11-25.2C265,205.2,266.6,207.8,265.2,209.1"/>
				<path class="st1" d="M188.2,213.5c16-4.6,22.7-22.9,32.8-34.4c5.5-6.4,13.9-10.5,21.4-14c12.9-6,40.1-14.5,39.2,8.9
					c-0.1,2-3.2,2.2-3.1,0.2c0.9-23.3-30.6-8.7-41.2-3c-7.9,4.1-14.7,10.2-19.8,17.5c-7.7,10.8-14.7,23.9-28.3,27.8
					C187.2,217,186.3,214,188.2,213.5"/>
				<path class="st1" d="M262.6,235.3c-5.1,8.9-12.5,16.3-16.9,25.7c-0.9,1.8-3.6,0.4-2.8-1.4c4.4-9.4,11.7-16.8,16.9-25.7
					C260.9,232.2,263.7,233.6,262.6,235.3"/>
				<path class="st1" d="M259.5,184.7c-0.3-9.4-9-13.6-17.5-13c-9.9,0.6-14.1,11.8-14.9,20.1c-0.1,1.3-2.2,0.9-2-0.4
					c1-9.9,6-20.3,16.9-21.8c9.6-1.3,19.3,5,19.7,15c0,0.6-0.4,1.1-1,1.1C260.1,185.7,259.6,185.3,259.5,184.7"/>
				<path class="st1" d="M225.2,190.9c10.1,2.5,17.3,12.3,19.7,22c0.3,1.3-1.6,1.9-2,0.6c-2.2-8.9-8.7-18.3-18.1-20.6
					C223.4,192.7,223.9,190.6,225.2,190.9"/>
				<path class="st1" d="M250.4,221.3c-4-1.5-7.2-4.4-8-8.8c-0.2-1.3,1.7-1.9,2-0.6c0.7,3.9,3.4,6.2,6.9,7.5
					C252.6,219.9,251.7,221.7,250.4,221.3"/>
				<path class="st1" d="M258.8,185.4c-1.3-10,13.6-25.2,21.3-13.5c0.3,0.5,0.2,1.1-0.3,1.4s-1.1,0.2-1.4-0.3
					c-6.5-9.9-18.5,4.5-17.5,12.2C261.1,186.6,259,186.7,258.8,185.4"/>
				<path class="st1" d="M263.6,188.3c2.3,6.9-0.1,14.1,1.4,21.1c2.1,9.1,11.8,7.2,18.6,9.1c1.3,0.4,0.9,2.4-0.4,2
					c-6.4-1.7-13.6-0.3-18.1-6.1c-5.6-7.1-0.9-17.5-3.5-25.5c-0.2-0.6,0.1-1.1,0.7-1.3S263.5,187.7,263.6,188.3"/>
				<path class="st1" d="M192.9,219.5c-2.9,8.8-3.2,17.7,1.8,25.8s14,12.6,22.4,16c1.3,0.5,0.3,2.3-0.9,1.8
					c-9-3.6-17.7-8.5-23.3-16.7s-5-18.3-2.1-27.3C191.3,217.8,193.3,218.2,192.9,219.5"/>
				<path class="st1" d="M264.3,185.9c-1.4,1.5-3.2,2.5-5.1,3.1c-1.3,0.4-1.9-1.6-0.6-2c1.6-0.5,3-1.3,4.2-2.5
					C263.7,183.5,265.3,184.9,264.3,185.9"/>
				<path class="st1" d="M237,181.1L237,181.1c0.2-1,0.8-1.9,1.6-2.5c0.8-0.6,1.7-0.8,2.6-0.6l0,0c0.9,0.2,1.7,0.8,2.2,1.6
					c0.5,0.9,0.7,2,0.4,3l0,0c-0.2,1-0.8,1.9-1.6,2.6c-0.8,0.6-1.7,0.8-2.6,0.6l0,0c-0.9-0.2-1.7-0.8-2.2-1.6
					C236.9,183.3,236.8,182.2,237,181.1L237,181.1z M235.5,180.9L235.5,180.9L235.5,180.9L235.5,180.9c-0.3,1.4-0.1,2.8,0.6,4.1
					c0.7,1.2,1.8,2.1,3.1,2.3l0,0c1.3,0.3,2.7,0,3.8-0.9c1.1-0.8,1.9-2.1,2.2-3.5l0,0c0.3-1.4,0.1-2.8-0.6-4.1
					c-0.7-1.2-1.8-2-3.1-2.3h-0.1l0,0c-1.3-0.2-2.7,0.1-3.7,0.9C236.6,178.3,235.8,179.5,235.5,180.9L235.5,180.9z"/>
				<path class="st1" d="M249.9,251.3c23.3,8.7,47.5,9.7,72,11.6c23.2,1.9,45.7,9.8,69.2,8.5c0.9,0,1.6,0.7,1.5,1.6
					c0,0.8-0.6,1.4-1.4,1.5c-23.7,1.3-46.6-6.3-70-8.5c-24.9-2.3-49.1-3-72.8-11.9C246.6,253.3,248,250.6,249.9,251.3"/>
				<path class="st1" d="M477.9,243.7c-7.4,23.4-39,33.4-61,34.7c-28.9,1.7-58-12.1-86.4-2c-1.9,0.7-2.8-2.3-0.9-3
					c25.2-9,52,0.1,77.7,1.7c12.5,0.8,24.6-1.5,36.3-5.7c12.7-4.6,27-12.7,31.3-26.4C475.5,241.1,478.5,241.7,477.9,243.7"/>
				<path class="st1" d="M346.5,302.6c-5.8,10.6-17.1,13.7-28.4,15.2c-2,0.3-2.1-2.9-0.2-3.1c10.1-1.3,20.5-3.9,25.8-13.5
					C344.8,299.5,347.5,300.9,346.5,302.6"/>
				<path class="st1" d="M320.2,317c-5.7,9-16.3,10.7-25.4,14.6c-1.9,0.8-2.8-2.2-1-3c8.1-3.5,18.5-5,23.6-13.1
					C318.5,313.8,321.3,315.2,320.2,317"/>
				<path class="st1" d="M226.5,287.6c-22.4,8.4-30,33.9-47.6,48.1c-18.6,15-43,19.4-62.9,32.3c-0.7,0.5-1.7,0.3-2.2-0.5
					c-0.5-0.7-0.3-1.7,0.5-2.2l0,0c20.2-13.1,45.3-17.3,63.8-33.1c17.2-14.6,24.9-39.2,47.4-47.6
					C227.5,283.9,228.4,286.9,226.5,287.6"/>
				<path class="st1" d="M330.9,276c-15.3,6.5-31.8,10-48.5,10.3c-16.9,0.2-33.6-2.9-50.4-0.4c-2,0.3-2.1-2.8-0.2-3.1
					c16.2-2.4,32.5,0.2,48.8,0.4c16.9,0.2,33.8-3.7,49.4-10.2C331.8,272.2,332.7,275.2,330.9,276"/>
				<path class="st1" d="M327.7,277.1c8.8,5.7,15.5,14,19.1,23.8c0.5,1.3-1.5,1.9-2,0.6c-3.5-9.2-9.8-17.1-18.1-22.5
					C325.7,278.2,326.6,276.3,327.7,277.1"/>
				<path class="st1" d="M321,279.4c7.1,7.9,14.7,15.5,19.3,25.2c0.6,1.2-1.2,2.3-1.8,1.1c-4.5-9.5-11.9-17-18.9-24.8
					C318.7,280,320.1,278.4,321,279.4"/>
				<path class="st1" d="M319,280.5c4.8,9.4,11,18.9,20.1,24.5c1.1,0.7,0.2,2.6-0.9,1.9c-9.5-5.9-15.9-15.5-21-25.3
					C316.6,280.4,318.4,279.3,319,280.5"/>
				<path class="st1" d="M326.5,277c14.1-1.9,32.4-1.1,45,6.4c1.1,0.7,0.2,2.5-0.9,1.9c-12.3-7.3-30.1-8-43.9-6.2
					C325.3,279.3,325.2,277.2,326.5,277"/>
				<path class="st1" d="M318.2,279.8c8.3,10.9,8.9,25.6,3.4,37.9c-0.5,1.2-2.4,0.3-1.9-0.9c5.2-11.7,4.6-25.5-3.3-35.9
					C315.7,279.8,317.4,278.7,318.2,279.8"/>
				<path class="st1" d="M316.3,282.6c0.7,11.5,4.3,22.9,1.7,34.3c-0.1,0.6-0.7,0.9-1.2,0.8c-0.6-0.1-0.9-0.7-0.8-1.2
					c2.6-11.2-1-22.5-1.8-33.8c0-0.6,0.4-1.1,1-1.1C315.8,281.6,316.3,282.1,316.3,282.6"/>
				<path class="st1" d="M305.6,285c1.1,12,4.5,22.5,13.1,31.2c0.9,0.9-0.5,2.5-1.4,1.5c-9-9.1-12.7-20.1-13.8-32.7
					C303.5,283.8,305.6,283.7,305.6,285"/>
				<path class="st1" d="M327.9,277.3c10.9,2.2,21,7.1,29.4,14.3c1,0.9-0.4,2.4-1.4,1.5c-8.1-7-17.9-11.8-28.4-13.9
					c-0.6-0.1-0.9-0.7-0.8-1.2C326.8,277.6,327.3,277.2,327.9,277.3L327.9,277.3"/>
				<path class="st1" d="M305.2,284.4c4.6,15.3-3.1,32.9-9.6,46.5c-0.3,0.5-0.9,0.7-1.4,0.5c-0.5-0.3-0.7-0.9-0.5-1.4
					c6.3-13,13.9-30.3,9.5-45c-0.2-0.6,0.1-1.1,0.7-1.3C304.5,283.6,305.1,283.9,305.2,284.4"/>
				<path class="st1" d="M303.1,285.8c-1.7,8.7-17,24-22.3,10l1.9,0.2c-2.5,5.3-9.1,10-14.3,12.4c-4.6,2.1-8,0.7-6.5-4.7l1.8,0.9
					c-4.9,5.4-10.2,11.2-16.7,14.5c-7,3.6-8.7-2.9-8.1-8.7l1.6,1.1c-4.5,3.5-21.8,21.2-25.2,8.4l1.6,0.6
					c-10.1,6.7-19.9,13.6-31.8,6.8c-1.2-0.7-0.2-2.5,0.9-1.9c11.3,6.4,20.4-0.5,29.8-6.7c0.4-0.3,1.1-0.2,1.4,0.2
					c0.1,0.1,0.1,0.2,0.2,0.3c2.5,9.4,18.5-6.8,22.1-9.5c0.8-0.6,1.6,0.3,1.6,1.1c-0.2,2.6-0.8,8.1,3.4,7.1c2.4-0.6,4.6-2.3,6.5-3.8
					c4.1-3.3,7.9-7,11.4-11c0.3-0.5,0.9-0.7,1.4-0.4c0.5,0.3,0.6,0.8,0.4,1.3c-1.8,6.5,6,1.1,8.4-0.5c3.1-2.2,6.9-5.1,8.5-8.6
					c0.2-0.5,0.8-0.8,1.3-0.6c0.3,0.1,0.5,0.4,0.6,0.7c4.3,11.4,17-3.4,18.3-9.8c0.1-0.6,0.7-0.9,1.2-0.8
					C302.8,284.6,303.1,285.2,303.1,285.8L303.1,285.8"/>
				<path class="st1" d="M282.5,297.1c1.6,8.9-3.3,18.2-7.3,25.7c-5.1,9.5-11.2,18.4-18.1,26.6c-0.9,1-2.4-0.4-1.5-1.4
					c5.9-7.1,11.2-14.7,15.8-22.7c4.5-7.7,10.9-18.3,9.2-27.7C280.3,296.4,282.3,295.8,282.5,297.1"/>
				<path class="st1" d="M293,299c-0.2,13.3,0,28.3-7,40.2c-0.7,1.2-2.5,0.2-1.9-0.9c6.8-11.5,6.6-26.1,6.8-39.1
					C290.9,297.8,293,297.7,293,299"/>
				<path class="st1" d="M262.2,305.8c0.5,16.9-7.1,32.3-16,46.2c-0.7,1.1-2.6,0.2-1.9-0.9c8.6-13.6,16.3-28.6,15.7-45.2
					c0-0.6,0.4-1.1,1-1.1C261.7,304.8,262.1,305.2,262.2,305.8"/>
				<path class="st1" d="M243.6,320.3c-3.2,13.1-7.9,25.7-14.1,37.7c-0.3,0.5-0.9,0.7-1.4,0.5c-0.5-0.3-0.7-0.9-0.5-1.4
					c6.1-11.8,10.8-24.3,14-37.2C242,318.6,244,319,243.6,320.3"/>
				<path class="st1" d="M238.4,312.8c-1.1,12.6-8.4,23.5-16,33.2c-8.4,10.6-18.3,19.9-27.4,30c-0.4,0.4-1,0.5-1.5,0.1
					c-0.4-0.4-0.5-1-0.1-1.5l0,0c8.4-9.3,17.4-18,25.5-27.6c8.2-9.8,16.3-21.4,17.4-34.5C236.6,311.1,238.6,311.5,238.4,312.8"/>
				<path class="st1" d="M219.3,322c0.4,9.4-5.3,18.5-10.4,26c-5.7,8.5-12.3,16.3-19.7,23.4c-1,0.9-2.5-0.5-1.5-1.4
					c6.6-6.4,12.6-13.4,18-20.9c5.4-7.5,12-17.3,11.5-27c0-0.6,0.4-1.1,1-1.1C218.8,321,219.3,321.4,219.3,322"/>
				<path class="st1" d="M212.1,322.5c-3.2,8.5-11.2,14.7-17.6,20.8c-8.8,8.3-16.9,17.5-25.1,26.5c-0.4,0.4-1,0.5-1.5,0.1
					c-0.4-0.4-0.5-1-0.1-1.5c7.8-8.6,15.7-17.4,24-25.5c6.5-6.3,15-12.5,18.3-21.3C210.7,320.4,212.6,321.3,212.1,322.5"/>
				<path class="st1" d="M300.5,285.5c-1.2,10.8-17.1,9.8-20.1,0.7l1.9,0.1c-2.7,6.7-9.8,15.7-17.7,16.2
					c-9.3,0.5-10.1-10.1-11.3-17.1l2.1,0.2c-3.5,13.8-13.4,24.7-26.4,30.5c-14.3,6.4-12.8-13.1-16.6-20.7l1.8-0.1
					c-5.6,12.4-9.1,27-23.9,31c-1.3,0.3-1.9-1.6-0.6-2c14.2-3.8,17.3-18.2,22.7-30c0.2-0.5,0.8-0.8,1.3-0.5c0.2,0.1,0.4,0.3,0.5,0.5
					c1.6,3.2,2,6.6,2.6,10.1c0.3,2.8,1.2,5.5,2.4,8c2.6,4.6,7.9,2.5,11.4,0.7c11.3-5.6,19.6-15.8,22.8-27.9c0-0.6,0.5-1,1.1-1
					s1,0.5,0.9,1.1c0.5,3.1,1.1,6.1,1.9,9.1c1.7,6.2,6.9,7,12.1,4.1c5-2.7,9-8,11.1-13.2c0.2-0.5,0.8-0.8,1.3-0.6
					c0.3,0.1,0.6,0.4,0.6,0.7c2.4,7.3,15.2,8.2,16.1-0.5C298.6,283.7,300.6,284.2,300.5,285.5"/>
				<path class="st1" d="M107.1,324.1c-2.2,5.8-5.8,10.8-8.5,16.2c-3.7,7.3-2.1,13.3,4,18.8c0.6,0.6,0.6,1.6,0,2.2
					c-0.6,0.6-1.5,0.6-2.1,0.1c-5.6-5-8.6-11-6.3-18.4c2.2-7.3,7.5-13.2,10.2-20.3C105.1,320.8,107.9,322.2,107.1,324.1"/>
				<path class="st1" d="M139.6,253.8c-8.5,1.1-13.3,8.4-12.8,16.6c0,0.9-0.7,1.6-1.6,1.5c-0.8,0-1.4-0.6-1.5-1.4
					c-0.6-10.1,5.7-18.6,15.8-19.9C141.4,250.4,141.5,253.6,139.6,253.8"/>
				<path class="st1" d="M124.7,270.9c-10.9,10-26.5,14.8-29.7,30.9c-0.3,0.8-1.2,1.2-2,0.8c-0.6-0.2-1-0.8-1-1.5
					c3.4-17.1,18.9-21.8,30.4-32.4C123.9,267.5,126.3,269.5,124.7,270.9"/>
				<path class="st1" d="M113.1,296.7c-5.3,6.7-13.7,17.5-8,26.2c0.3,0.5,0.2,1.1-0.3,1.4s-1.1,0.2-1.4-0.3
					c-6.3-9.7,2.3-21.2,8.2-28.8C112.4,294.2,113.9,295.6,113.1,296.7"/>
				<path class="st1" d="M170,280.2c-2.6,4.2-4.8,8.6-6.4,13.3c-1,2.9-1.2,6-0.5,9c0.8,3.3,2,1.5,4-0.2c0.9-0.7,1.9,0.5,1.5,1.3
					c-2.6,6-8.3,11.6-5.8,18.6l-1.9-0.2c1.4-2,3.4-3.4,4.9-5.4c0.6-0.8,2.1,0,1.8,0.9c-2.2,7.8-14.1,18.5-6.9,26.4
					c0.9,1-0.5,2.5-1.4,1.5c-8.4-9.3,3.7-19.4,6.3-28.4l1.8,0.9c-1.3,1.8-3.3,3.1-4.5,5c-0.2,0.5-0.8,0.8-1.3,0.6
					c-0.3-0.1-0.5-0.4-0.6-0.7c-2.7-7.7,3-13.5,5.9-20.2l1.5,1.3c-1.3,1.1-2.8,1.8-4,2.9c-0.5,0.3-1.1,0.2-1.4-0.3c0,0,0,0,0-0.1
					c-5.5-8.9,0.8-19.4,5.5-27.3C168.9,278.2,170.7,279.1,170,280.2"/>
				<path class="st1" d="M175.4,279.7c-0.6,2.9-1.5,5.8-2.8,8.5c-1,2.2-1.8,4.4-2.4,6.8c-0.8,3.4-0.8,3.3,2.1,3.4
					c0.6,0,1.1,0.4,1.1,1c0,0.2,0,0.3-0.1,0.5c-3.2,6.2-7.7,13.2-6.5,20.4l-1.6-0.8c1.2-0.9,2.5-1.6,3.7-2.5
					c0.5-0.3,1.1-0.1,1.4,0.4c0.2,0.3,0.2,0.7,0,1c-2.7,4.6-9.6,18.7-0.4,19.9c1.3,0.2,0.9,2.2-0.4,2c-11.3-1.4-4.4-17-1-22.8
					l1.5,1.3c-1.2,0.9-2.5,1.6-3.7,2.5c-0.7,0.5-1.5-0.1-1.6-0.8c-1.3-7.6,3.4-15,6.7-21.5l1,1.5c-1.1,0-2.3-0.2-3.4-0.2
					c-0.6,0-1.1-0.4-1.1-1c-0.3-7.3,4.3-13,5.5-20C173.7,277.9,175.7,278.3,175.4,279.7"/>
				<path class="st1" d="M105.5,296.1c-4.2,8.6-12.1,22.5-2.7,30.4c1,0.9-0.4,2.4-1.4,1.5c-10.4-8.6-2.4-23.3,2.2-32.9
					c0.3-0.5,0.9-0.7,1.4-0.5C105.5,294.9,105.7,295.6,105.5,296.1L105.5,296.1"/>
				<path class="st1" d="M107.1,255.8c2.6,10.1,3.4,21.4,1.1,31.6c-0.1,0.6-0.7,0.9-1.2,0.8c-0.6-0.1-0.9-0.7-0.8-1.2
					c2.2-9.8,1.5-20.9-1.1-30.6C104.8,255.1,106.8,254.5,107.1,255.8"/>
				<path class="st1" d="M128,230.5c6.6,4.5,9.1,12.5,17.2,15c6.9,2.2,17.5-2.1,19.7-9.2c0.4-1.3,2.4-0.9,2,0.4
					c-2.2,7.2-9.9,10.6-16.9,11.3c-3.9,0.3-7.8-0.8-11.1-3.1c-4.8-3.3-7-9.2-11.8-12.5C125.9,231.6,126.9,229.8,128,230.5"/>
				<path class="st1" d="M60.7,189.5c-6.5,8-15.8,13.4-21.2,22.3c-0.7,1.1-2.5,0.2-1.9-0.9c5.5-9.1,14.9-14.6,21.5-22.8
					C60,187.1,61.5,188.5,60.7,189.5"/>
				<path class="st1" d="M101.9,325.8c-3.1,6.7-8,12.4-10.9,19.2c-3.6,8.5,0.7,19,5,26.3c1,1.7-1.6,3.4-2.6,1.7
					c-4-6.6-7.7-15.3-6.8-23.3c1.2-9.7,8.4-16.8,12.4-25.3C99.9,322.6,102.7,324,101.9,325.8"/>
				<path class="st1" d="M69.4,143.9c8.5,6.2,17.2,13,23.2,21.8c5.3,7.7,8,19.4,17,23.8c1.8,0.9,0.4,3.7-1.4,2.8
					c-7.8-3.8-11.4-12.7-15.3-19.9c-5.9-11-15.6-18.9-25.6-26.1C65.7,145,67.8,142.7,69.4,143.9"/>
				<path class="st1" d="M186.6,216.6c-13.9-0.2-26.9,2.6-40.2-2.6c-13.5-5.3-28.6-11.9-38.9-22.4c-1.4-1.4,0.7-3.8,2.1-2.3
					c9.7,9.8,23.1,15.3,35.6,20.7c6.8,3,14.2,4.5,21.6,4.3c6.6-0.1,13.1-1,19.8-0.9C188.4,213.5,188.6,216.7,186.6,216.6"/>
				<path class="st1" d="M94.7,303.3c-5.4,5.9-13.3,12.3-10.7,21.2c0.5,1.9-2.4,2.9-3,0.9c-2.9-10.3,5.1-17.3,11.4-24.2
					c0.6-0.6,1.6-0.6,2.2,0C95.1,301.8,95.2,302.7,94.7,303.3"/>
				<path class="st1" d="M-14.8,279.7c1,3.1,2,6.2,4.8,8.1c1.9,1.3,4.1,2.2,6,3.5c5.3,3.8,9.3,7.5,16.2,6.6c2-0.3,2.1,2.9,0.1,3.1
					c-7.4,1-11.5-2.3-17.3-6.5c-2.7-1.9-5.8-3.2-8.4-5.2c-2.6-2-3.7-5.7-4.6-8.7c-0.3-0.8,0.2-1.7,1-2
					C-16,278.4-15.1,278.8-14.8,279.7"/>
				<path class="st1" d="M14.5,299.2c4.2,4.8,8,14.8,15.4,8.8c1.6-1.3,3.2,1.4,1.7,2.6c-9.1,7.3-13.9-3.1-19.1-9.2
					C11.1,300,13.2,297.7,14.5,299.2"/>
				<path class="st1" d="M33.5,308c2.9,5.9,8.5,8.4,14.8,7.4c2-0.3,2.1,2.8,0.2,3.1c-7.3,1.2-14.3-2-17.6-8.8
					C30,307.9,32.6,306.2,33.5,308"/>
				<path class="st1" d="M50.2,315.5c3.3,4.5,10,11.2,15.1,5.3c0.6-0.6,1.6-0.7,2.2-0.1c3.6,3.3,6.9,6.7,11.5,8.6
					c1.9,0.8,0.4,3.5-1.4,2.8c-4.9-2-8.3-5.5-12.2-9l2.2-0.1c-6.7,7.7-15.5,0.5-20.1-5.7C46.3,315.6,49,313.9,50.2,315.5"/>
				<path class="st1" d="M-15,73.9c-0.9-9.9-8.2-17.6-10.2-27.2c-1.9-9.5-4-20-1-29.4c0.4-1.2,2.1-1.8,2.8-0.5
					c12.7,22.8,19,48.6,33.1,70.6c8,12.5,18.9,23.2,28.6,34.4c10.6,12.2,21.2,24.4,32.3,36.2c1.4,1.5-0.7,3.8-2.1,2.3
					c-11-11.8-21.7-24-32.3-36.2c-9.5-11-20-21.5-28.2-33.6c-15-22.1-21.1-48.8-34-72.1l2.8-0.5c-3.1,9.9-0.5,21,1.6,30.8
					c0.9,4.5,4,8.9,6.1,13c2,3.8,3.2,7.9,3.7,12.1C-11.6,75.8-14.7,75.9-15,73.9"/>
				<path class="st1" d="M68.9,145.8c0.2,4.3-0.1,8.6,0.7,12.8c0.4,2-2.8,2.1-3.1,0.2c-0.8-4.2-0.5-8.6-0.7-12.8
					c0-0.9,0.7-1.6,1.6-1.5C68.2,144.4,68.9,145,68.9,145.8"/>
				<path class="st1" d="M-26.8,263.1C-12.2,243,6,225.8,26.7,212.2c0.5-0.3,1.1-0.2,1.4,0.3c0.3,0.5,0.2,1.1-0.3,1.4
					c-20.6,13.5-38.6,30.6-53.1,50.5C-26,265.6-27.5,264.2-26.8,263.1"/>
				<path class="st1" d="M31.6,228.7C10.2,241.1-2.6,263.2-14.7,284c-0.7,1.2-2.5,0.2-1.9-0.9c12.3-21.1,25.3-43.5,47-56.2
					C31.6,226.2,32.7,228,31.6,228.7"/>
				<path class="st1" d="M36.5,239.9c-10.1,20.4-30.1,34.1-37.6,56c-0.4,1.3-2.5,0.8-2-0.4c7.6-22.2,27.6-36,37.8-56.6
					c0.3-0.5,0.9-0.7,1.4-0.5S36.8,239.4,36.5,239.9"/>
				<path class="st1" d="M48.5,252.6C38,271,23.9,287.3,22.3,309.3c-0.1,1.3-2.2,1.4-2.1,0.1c1.6-22.4,15.7-39,26.4-57.7
					C47.3,250.5,49.2,251.4,48.5,252.6"/>
				<path class="st1" d="M58.1,257.6c-9.1,16.4-23,31.1-26.5,50c-0.1,0.6-0.7,0.9-1.2,0.8c-0.6-0.1-0.9-0.7-0.8-1.2
					c3.6-19.1,17.5-34,26.7-50.5C57,255.5,58.8,256.4,58.1,257.6"/>
				<path class="st1" d="M66.8,260.1c0,19.3-11.5,37.5-17,55.5c-0.4,1.3-2.4,0.9-2-0.4c5.5-17.9,16.9-35.9,17-55
					C64.8,258.8,66.9,258.7,66.8,260.1"/>
				<path class="st1" d="M78.3,262c0.3,20.8-3.6,42.2-9.7,62.1c-0.4,1.3-2.4,0.8-2-0.4c6.1-19.7,10-40.9,9.7-61.5
					C76.2,260.7,78.2,260.6,78.3,262"/>
				<path class="st1" d="M-33.4,235.1c18.9-13.5,36.1-31.2,59.8-35.8c1.3-0.3,1.9,1.7,0.6,2c-23.5,4.5-40.5,22.2-59.3,35.5
					C-33.4,237.6-34.5,235.8-33.4,235.1"/>
				<path class="st1" d="M-54.8,212.3c14.5,0.5,28.5-5.2,42.2-9.2c12.1-3.6,25.6-7.1,38.1-3.2c1.3,0.4,0.9,2.4-0.4,2
					c-13.5-4.2-28,0.4-41,4.4c-12.5,3.8-25.4,8.6-38.7,8.1C-56,214.3-56.1,212.2-54.8,212.3"/>
				<path class="st1" d="M-62.7,188c15,1.5,30.2-1.3,45.1-2.6c13.7-1.1,28.6-1.8,41.3,4.2c1.2,0.6,0.3,2.4-0.9,1.9
					c-13.3-6.3-29-5-43.3-3.7s-28.4,3.6-42.6,2.3C-64.5,189.9-64,187.9-62.7,188"/>
				<path class="st1" d="M-72.6,163.9c28.3,12.5,59.8,3,88.8,11.7c1.3,0.4,0.9,2.4-0.4,2c-29.3-8.8-60.8,0.7-89.4-11.9
					C-74.8,165.2-73.8,163.3-72.6,163.9"/>
				<path class="st1" d="M-83.5,133.3c16.9,5.9,32.6,14.9,49.8,20.2c15.8,4.9,31.9,8.2,48,11.8c0.6,0.1,0.9,0.7,0.8,1.2
					c-0.1,0.6-0.7,0.9-1.2,0.8c-16.7-3.7-33.5-7.3-49.8-12.4c-16.7-5.2-32-14-48.4-19.8C-85.7,134.7-84.8,132.9-83.5,133.3"/>
				<path class="st1" d="M-84.9,102.9c23.7,25.7,59.4,32.4,91,43.7c1.3,0.5,0.3,2.3-0.9,1.9c-31.8-11.4-67.6-18.2-91.5-44
					C-87.2,103.4-85.8,101.9-84.9,102.9"/>
				<path class="st1" d="M-73.9,84.5c23.7,24,55.7,37.8,85.1,53.4c1.2,0.6,0.3,2.5-0.9,1.9C-19.3,124-51.5,110.2-75.3,86
					C-76.3,85.1-74.9,83.5-73.9,84.5"/>
				<path class="st1" d="M11.2,132.3c4.4,6.4,10.7,10.7,16.5,15.8c0.7,0.6,0.1,2.1-0.9,1.8c-4.6-1.5-19.2-6.3-14.6,3.6
					c4,8.5,13.2,12,20.8,16.4c0.5,0.2,0.8,0.8,0.6,1.3s-0.8,0.8-1.3,0.6c-2.4-0.3-4.8-0.8-7.1-1.6c-1.6-0.4-3.2-0.6-4.8-0.6
					c-4.2,0.2-3.4,6-2.1,8.2c3.1,5.1,12.8,5,18,5.6c1.2,0.1,0.9,1.6,0.1,2c-3,1.3-5.9,2.7-8.7,4.3c-1.4,0.8-8.6,5.9-5.7,6.8
					c5,1.6,11.2-1.5,15.5-3.7c1-0.5,2.2,0.7,1.3,1.6c-3.9,3.5-7.1,7.6-9.6,12.2c-0.8,1.5-2.5,5.1,0.1,5.8c3.4,1,8.7-2.1,11.5-3.4
					c0.8-0.4,2.1,0.4,1.5,1.3c-4.2,7.2-7.3,17-4.5,25.2l-1.8-0.4c3.9-3.4,7.4-7.1,11.3-10.5c0.3-0.5,1-0.6,1.4-0.3
					c0.5,0.3,0.6,1,0.3,1.4l0,0c-2.3,5.9-7,16.5-3.7,22.7c3,5.7,14.6-4.3,16.7-6.3c4.4-4.3,7.9-9.5,11.6-14.4
					c0.8-1.1,2.3,0.3,1.5,1.4c-5.3,7-10.3,14.2-17.5,19.4c-3.2,2.3-9,5-12.8,2.5c-7-4.5,0.2-20.7,2.3-26.1l1.7,1.2
					c-3.9,3.4-7.4,7.1-11.3,10.5c-0.4,0.4-1.1,0.4-1.5,0c-0.1-0.1-0.2-0.3-0.3-0.4c-2.9-8.7,0.2-19.1,4.7-26.7l1.5,1.3
					c-3.2,1.5-14.3,7.5-15.9,0.9c-1.5-6.4,7.4-14.8,11.3-18.6c0.5,0.5,0.9,1,1.3,1.6c-6,3.1-13.1,6.1-19.7,3
					c-0.5-0.2-0.7-0.8-0.5-1.3c0,0,0-0.1,0-0.1c3.5-6.8,10.7-9.8,17.3-12.8c0,0.7,0.1,1.3,0.1,2c-7.3-0.8-20.1-1.3-20.8-11.1
					c-0.8-10.9,12.1-5.1,17.5-4.6c-0.2,0.6-0.5,1.3-0.7,1.9c-8.1-4.6-23.7-11-23.1-22.7c0.4-7.5,14.9-2.3,18.2-1.2l-0.9,1.8
					c-5.9-5.2-12.3-9.6-16.8-16.2C8.7,132.4,10.5,131.3,11.2,132.3"/>
				<path class="st1" d="M61.3,245.5c7.2,2.1,13-3.6,17.9-8.1c0.3-0.5,1-0.6,1.4-0.3c0.5,0.3,0.6,1,0.3,1.4
					c-2.2,5.7-5.4,11.9-5,18.2c0.5,7.3,7.7-3,8.5-4.2c1.6-2.6,3-5.3,4.4-8c0.1-0.6,0.7-0.9,1.2-0.8c0.6,0.1,0.9,0.7,0.8,1.2l0,0
					c0.3,8.4-1.6,19.4,3.5,26.7c5,7.2,8.3-6.7,9-9.5c1.2-4.6,2-9.2,2.9-13.9c0-0.6,0.5-1,1.1-0.9c0.6,0,1,0.5,0.9,1.1l0,0
					c0.2,5.5,1.8,10.9,4.5,15.7c4.7,7.7,10.5,0.3,13.4-4.8c0.7-1.2,2.5-0.2,1.9,0.9c-2.8,5.1-7.9,12.6-14.3,8
					c-5.6-3.9-7.1-13.6-7.5-19.8l2,0.2c-1.1,6.5-2.6,13-4.4,19.3c-1.3,4-2.9,8.2-7.9,7.1c-4.7-1-5.9-7.8-6.5-11.6
					c-1-6.2-0.5-12.4-0.7-18.6l2,0.4c-1.7,3.2-9.3,20.4-15,15.2c-5.7-5.3,1.2-17.4,3.4-23l1.7,1.2c-5.5,5-11.9,11.1-19.8,8.7
					c-1.3-0.4-0.9-2.4,0.4-2"/>
				<path class="st1" d="M-58.7,72.9c22.9,20.6,47.5,39.1,72.9,56.4c1.1,0.8,0.2,2.6-0.9,1.9c-25.5-17.5-50.3-36.1-73.3-56.8
					c-0.4-0.4-0.5-1-0.1-1.5S-59.1,72.5-58.7,72.9"/>
				<path class="st1" d="M-38.2,66.9c19.3,21.2,38.3,42.9,59.5,62.2c0.4,0.4,0.5,1,0.1,1.5s-1,0.5-1.5,0.1
					c-21.3-19.3-40.2-41-59.5-62.2C-40.5,67.4-39.1,65.9-38.2,66.9"/>
				<path class="st1" d="M93,268.6c2.7,16,3,31.3-5.2,45.8c-0.7,1.2-2.5,0.2-1.9-0.9c8-14.2,7.6-29.1,5-44.7
					C90.7,267.4,92.8,267.3,93,268.6"/>
				<path class="st1" d="M89.6,203c8.2,4.5,13.3,13.3,19,20.4c2.7,3.4,6,7.4,10.2,8.9c5.9,2,10.3-4.9,12.8-9.1
					c0.7-1.1,2.5-0.2,1.9,0.9c-5.2,8.6-12.3,14.1-21,6.5s-13.3-20-23.8-25.8C87.5,204.2,88.4,202.3,89.6,203"/>
				<path class="st1" d="M27.7,166.5c8.8,4.6,18.3,7.7,28.1,9.2c1.3,0.2,0.9,2.2-0.4,2c-10-1.5-19.7-4.7-28.6-9.4
					c-0.5-0.3-0.7-0.9-0.5-1.4S27.2,166.2,27.7,166.5L27.7,166.5"/>
				<path class="st1" d="M30.5,183.4c8.8,1,17.7,0.2,26.1-2.4c0.6-0.2,1.1,0.1,1.3,0.7c0.2,0.6-0.1,1.1-0.7,1.3l0,0
					c-8.8,2.6-18.1,3.5-27.2,2.4C28.7,185.3,29.1,183.2,30.5,183.4"/>
				<path class="st1" d="M65.9,207.4c-2,1.9-4.7,4.6-2.3,7.3c1.2,1.4,3.3,2.1,5,2.8c4,1.6,8.4,2.2,12.5,3.5c0.5,0.1,0.9,0.6,0.8,1.1
					c0,0,0,0.1,0,0.1c-2.7,8.1,3.9,5.1,6.4,9.9c2.6,4.9,2.2,10.9,2.4,16.2c0,0.6-0.4,1.1-1,1.1c-0.6,0-1.1-0.4-1.1-1
					c-0.2-4.5,0.7-12-2.5-15.6c-1.4-1.6-4.3-1.9-6-3.3c-1.1-1.2-1.6-2.9-1.2-4.6c0.4-2,1.6-2-0.6-2.5c-1.5-0.4-3.1-0.8-4.6-1.1
					c-8.3-2.1-18.4-6.5-9.5-15.2C65.3,205.1,66.8,206.5,65.9,207.4"/>
				<path class="st1" d="M45.6,132.6c-0.6-0.1-1-0.6-1-1.2c0-0.5,0.5-0.9,1-1h12V99.1c0-1.2,0.2-2.5,0.5-3.7
					c0.4-1.3,0.9-2.5,1.5-3.6c0.6-1.1,1.4-2.2,2.3-3.1c0.8-0.9,1.8-1.6,2.8-2.1l49.2-25.7V36.1c0-0.3,0.2-0.7,0.4-0.9l0.6-0.5
					l6.6-5.6l3.1-2.6c0.4-0.4,1.1-0.3,1.5,0.1c0,0,0,0,0,0c0.2,0.2,0.3,0.4,0.3,0.7l0,0v26.9l1.9-1c0.5-0.3,1.1-0.5,1.7-0.7
					c0.6-0.2,1.2-0.2,1.7-0.2c0.6,0,1.1,0.1,1.7,0.2c0.5,0.2,1.1,0.4,1.6,0.7c0,0,0,0,0.1,0c0.4,0.3,0.8,0.6,1.2,1
					c0.4,0.4,0.7,0.9,1,1.4c0.3,0.6,0.6,1.3,0.7,2c0.2,0.7,0.2,1.5,0.2,2.3v52.3l0.9-0.1l0,0l1.2-0.1l0.4-0.1V83
					c0-1.2,0.2-2.5,0.5-3.7c0.4-1.3,0.9-2.5,1.5-3.6c0.6-1.2,1.4-2.2,2.3-3.2c0.8-0.9,1.8-1.6,2.9-2.2L186.7,50V9.9
					c0-0.3,0.2-0.7,0.4-0.9l0.6-0.5l6.6-5.6l3.1-2.6c0.5-0.4,1.1-0.3,1.5,0.1c0.2,0.2,0.2,0.4,0.3,0.7l0,0v42.4l12.2-6.4
					c0.5-0.3,1.1-0.5,1.7-0.7c0.6-0.2,1.2-0.2,1.8-0.2c0.6,0,1.1,0.1,1.7,0.2c0.5,0.2,1.1,0.4,1.6,0.7h0.1c0.4,0.3,0.8,0.6,1.2,1
					c0.4,0.4,0.7,0.9,0.9,1.4c0.3,0.6,0.6,1.3,0.7,2c0.2,0.7,0.2,1.5,0.2,2.3v65.7h0.2l1.2,0.1l1.1,0.1V96.9c0-1.2,0.2-2.5,0.5-3.7
					c0.4-1.3,0.9-2.5,1.5-3.6c0.6-1.1,1.4-2.2,2.3-3.1c0.8-0.9,1.8-1.6,2.9-2.2l47.6-24.9V36.1c0-0.3,0.2-0.7,0.4-0.9l0.6-0.5
					l6.6-5.6l3.1-2.6c0.4-0.4,1.1-0.3,1.5,0.1c0,0,0,0,0,0c0.2,0.2,0.3,0.4,0.3,0.7l0,0v25.5l3.4-1.8c0.5-0.3,1.1-0.5,1.7-0.7
					c0.6-0.2,1.2-0.2,1.7-0.2c0.6,0,1.1,0.1,1.7,0.2c0.5,0.2,1.1,0.4,1.5,0.7h0.1c0.4,0.3,0.8,0.6,1.2,1l0.1,0.1
					c0.3,0.4,0.6,0.9,0.9,1.3c0.3,0.6,0.6,1.3,0.7,2c0.2,0.7,0.2,1.5,0.2,2.3v72.8h25.2c0.6-0.1,1.1,0.4,1.2,1
					c0.1,0.6-0.4,1.1-1,1.2c-0.1,0-0.1,0-0.2,0h-26.3c-0.6,0-1.1-0.5-1.1-1c0,0,0,0,0,0V57.8c0-0.6-0.1-1.2-0.2-1.8
					c-0.1-0.5-0.3-1-0.5-1.5c-0.2-0.3-0.4-0.6-0.6-0.9c0,0,0,0,0-0.1c-0.2-0.2-0.5-0.5-0.8-0.7l0,0c-0.3-0.2-0.6-0.4-1-0.5
					c-0.4-0.1-0.7-0.2-1.1-0.1c-0.4,0-0.8,0.1-1.2,0.2c-0.4,0.1-0.9,0.3-1.3,0.5l-5,2.5c-0.2,0.1-0.4,0.2-0.6,0.2
					c-0.6,0-1.1-0.5-1.1-1.1v-25l-1.3,1.1l-6.6,5.6l-0.3,0.2V60l0,0c0,0.4-0.2,0.8-0.6,0.9L232,86.1c-0.9,0.5-1.6,1.1-2.3,1.8
					c-0.8,0.8-1.5,1.7-2,2.7c-0.6,1-1,2.1-1.3,3.2c-0.3,1-0.4,2.1-0.4,3.1v13.8l0,0v0.1c0,0.6-0.5,1-1.1,1c0,0,0,0,0,0l-1.1-0.1
					l-1.1-0.1l-1.2-0.1l-1.2-0.1l0,0c-0.6,0-1.1-0.5-1.1-1.1V43.9c0-0.6-0.1-1.2-0.2-1.8c-0.1-0.5-0.3-1-0.5-1.5
					c-0.2-0.4-0.4-0.7-0.7-1c-0.2-0.3-0.5-0.5-0.8-0.7h-0.1c-0.3-0.2-0.6-0.3-1-0.4c-0.4-0.1-0.7-0.2-1.1-0.1
					c-0.4,0-0.8,0.1-1.2,0.2c-0.4,0.1-0.9,0.3-1.3,0.5l-13.6,7.1c-0.2,0.1-0.4,0.2-0.6,0.2c-0.6,0-1.1-0.5-1.1-1.1c0,0,0,0,0,0V3.4
					l-1.3,1.1l-6.6,5.6l-0.3,0.2v40.3l0,0c0,0.4-0.2,0.8-0.6,0.9l-39.5,20.6c-0.9,0.5-1.6,1.1-2.3,1.8c-0.8,0.8-1.5,1.7-2,2.7
					c-0.6,1-1,2.1-1.3,3.2c-0.3,1-0.4,2.1-0.4,3.1v30l0,0c0,0.5-0.4,1-0.9,1.1l-1.3,0.2l-1.2,0.1l0,0l-0.9,0.1l-1.1,0.1h-0.2
					c-0.6,0-1.1-0.5-1.1-1.1V60c0-0.6-0.1-1.2-0.2-1.8c-0.1-0.5-0.3-1-0.5-1.5c-0.2-0.4-0.4-0.7-0.7-1c-0.2-0.3-0.5-0.5-0.8-0.7
					h-0.1c-0.3-0.2-0.6-0.3-1-0.4c-0.4-0.1-0.7-0.2-1.1-0.1c-0.4,0-0.8,0.1-1.2,0.2c-0.4,0.1-0.9,0.3-1.3,0.5l-3.4,1.8
					c-0.2,0.1-0.4,0.2-0.6,0.2c-0.6,0-1.1-0.5-1.1-1.1c0,0,0,0,0,0V29.6l-1.3,1.1l-6.6,5.6l-0.3,0.2v24.8l0,0c0,0.4-0.2,0.8-0.6,0.9
					l-49.8,26c-0.9,0.5-1.6,1.1-2.3,1.8c-0.8,0.8-1.5,1.7-2,2.7c-0.6,1-1,2.1-1.3,3.2c-0.3,1-0.4,2.1-0.5,3.1v32.5
					c0,0.6-0.5,1.1-1,1.1c0,0,0,0,0,0L45.6,132.6z"/>
			</g>
		</g>
	</g>
</g>
</svg>
