<svg xmlns="http://www.w3.org/2000/svg" viewBox="0 0 547.24 451.12"><defs><style>.cls-1{fill:#0176bb;opacity:0.1;}</style></defs><g id="Camada_2" data-name="Camada 2"><g id="Camada_1-2" data-name="Camada 1"><path class="cls-1" d="M175.9,199.78c-2.12,1.39-5.11,3.41-3.43,6.28.9,1.51,2.68,2.56,4.13,3.46,3.43,2.15,7.3,3.48,10.85,5.38l.53,1.27c-3.9,6.93,2.7,5.42,4.16,10.18,1.51,4.92.08,10.36-.66,15.29a1,1,0,0,1-1.92-.27c.63-4.2,2.78-10.84.5-14.77-1-1.75-3.58-2.47-4.87-4.08a4.66,4.66,0,0,1-.35-4.39c.75-1.79,1.79-1.52-.07-2.41-1.34-.65-2.69-1.25-4-1.88-7.2-3.35-15.71-9.23-6-15.6,1-.69,2.2.85,1.16,1.54m-28.25-28.31A61.36,61.36,0,0,0,172,173.88a1,1,0,0,1,.23,1.93,63.69,63.69,0,0,1-25.37-2.56C145.71,172.88,146.47,171.09,147.65,171.47Zm.47-16a81.9,81.9,0,0,0,24.12,13.39c1.18.41.42,2.19-.75,1.78A83.3,83.3,0,0,1,146.94,157C146,156.24,147.14,154.7,148.12,155.48Zm50.25,44.4c6.69,5.57,9.86,14.54,13.78,22.05,1.88,3.6,4.15,7.88,7.81,10,5,2.88,10.3-2.71,13.28-6.05.83-.94,2.37.25,1.54,1.17-6.26,7-13.78,10.78-20.4,2.26s-8.63-20.73-17.19-27.86C196.23,200.62,197.42,199.09,198.37,199.88Zm-8.5,60.76c-.4,15.13-2.81,29.18-12.88,41-.82.95-2.35-.23-1.54-1.19,9.87-11.59,12.11-25.33,12.49-40.11C188,259.12,189.9,259.41,189.87,260.64Zm-84.56-208c14,22.87,27.45,46.08,43.54,67.56a1,1,0,0,1-1.55,1.16c-16.08-21.48-29.58-44.68-43.54-67.56C103.11,52.69,104.65,51.52,105.31,52.59ZM85.5,54.46c17.33,22.89,36.59,44.2,56.78,64.6.87.88-.3,2.43-1.18,1.54-20.31-20.53-39.72-41.94-57.15-65A1,1,0,0,1,85.5,54.46ZM165,233.85c6.21,3.24,12.54-1,17.8-4.22a1,1,0,0,1,1.36,1.37c-3,4.86-7.06,9.91-7.79,15.76-.86,6.8,7.61-1.4,8.5-2.36,1.94-2.07,3.68-4.31,5.45-6.52a1,1,0,0,1,1.73.72c-1.21,7.78-4.86,17.49-1.51,25.12,3.27,7.48,8.81-4.64,10-7.07,1.88-4,3.45-8.11,5.09-12.2a1,1,0,0,1,1.85.51,31.86,31.86,0,0,0,1.36,15.23c3,7.87,9.59,2.16,13.11-2,.8-1,2.34.22,1.54,1.17-3.48,4.16-9.48,10.13-14.56,4.83-4.4-4.6-4.1-13.68-3.36-19.46l1.85.51a153.17,153.17,0,0,1-7.49,16.94c-1.9,3.48-4.11,7-8.46,5.16-4.14-1.72-4-8.17-3.92-11.76.16-5.84,1.73-11.47,2.62-17.2l1.73.72c-2.08,2.61-12.13,17.1-16.4,11.25s4.2-15.75,7.16-20.5l1.34,1.37c-5.87,3.58-12.84,8-19.71,4.46C163.13,235.07,163.87,233.27,165,233.85ZM139.07,121.3C142,127.94,147,133,151.36,138.65c.56.72-.28,2-1.14,1.47-3.91-2.19-16.49-9.15-14,.76,2.14,8.48,10,13.3,16.16,18.7a1,1,0,0,1-1,1.66,41.71,41.71,0,0,1-6.22-2.69,15.52,15.52,0,0,0-4.29-1.4c-3.84-.59-4.15,4.95-3.33,7.13,1.95,5.19,10.87,6.9,15.54,8.33,1,.33.57,1.67-.27,1.86a86.25,86.25,0,0,0-8.77,2.42c-1.39.48-8.94,3.85-6.42,5.25,4.29,2.38,10.51.59,14.88-.67,1-.28,1.92,1,.94,1.67a44.42,44.42,0,0,0-11,9.46c-1,1.22-3.17,4.22-.92,5.37,2.9,1.49,8.36-.39,11.12-1.12.83-.22,1.83.7,1.12,1.49-5.13,5.84-9.69,14.25-8.62,22.26l-1.54-.66c4.17-2.39,8.06-5.2,12.23-7.59a1,1,0,0,1,1.35,1.37c-3.13,5-9.32,13.85-7.41,20.13,1.78,5.75,14.16-1.32,16.45-2.82,4.84-3.13,9-7.33,13.22-11.17.93-.83,2.09.72,1.16,1.55-6.08,5.49-11.93,11.18-19.48,14.64-3.38,1.55-9.14,2.94-12.18,0-5.6-5.39,3.8-18.91,6.71-23.55l1.35,1.37c-4.17,2.39-8.07,5.2-12.24,7.59a1,1,0,0,1-1.55-.66c-1.13-8.51,3.55-17.46,9-23.67l1.12,1.49c-3.17.84-14.47,4.38-14.75-2-.27-6.16,9.39-12.29,13.65-15l.94,1.67c-6.07,1.74-13.07,3.32-18.54-.74l-.18-1.37c4.4-5.57,11.5-7.09,18.1-8.62l-.26,1.86c-6.58-2-18.19-4.78-17.09-13.81,1.23-10.12,11.95-2.55,16.89-1.14l-.95,1.66c-6.56-5.69-19.83-14.25-17.17-24.88,1.7-6.8,14.07.51,16.91,2.1l-1.15,1.48c-4.48-5.79-9.57-11-12.54-17.79C136.77,120.87,138.57,120.16,139.07,121.3ZM69.48,62.44c17.44,26.2,44.37,44.45,68.51,63.93,1,.78-.21,2.31-1.18,1.54C112.54,108.32,85.46,90,67.93,63.6,67.24,62.57,68.79,61.4,69.48,62.44ZM56.21,77.32C73.4,105,105,117.5,131.88,133.42c1.07.64-.13,2.16-1.19,1.54-27.08-16-58.73-28.61-76-56.47C54,77.44,55.55,76.27,56.21,77.32Zm-4.16,28.11c14.47,8.43,27.28,19.4,42.06,27.33,13.56,7.27,27.8,13.17,41.89,19.3a1,1,0,0,1-.75,1.78c-14.66-6.37-29.39-12.59-43.49-20.16C77.39,126,65,115.17,50.87,107,49.79,106.35,51,104.81,52.05,105.43Zm4.62,30c23.76,16.46,54.26,13.29,79.35,26.43,1.1.58.36,2.37-.74,1.79C110,150.39,79.44,153.53,55.49,136.94,54.46,136.22,55.65,134.69,56.67,135.4Zm4.79,23.85c13.46,4,27.87,4.14,41.74,5.62,12.76,1.36,26.49,3.42,37.11,11.16,1,.74-.18,2.27-1.18,1.53-11.13-8.1-25.7-9.7-39-11.07C87,165.15,73.47,164.82,60.71,161,59.52,160.68,60.27,158.9,61.46,159.25ZM64.4,182.9c13.15,3,27.05.32,40.26-1,11.75-1.16,24.7-2,35.45,3.77,1.1.58.36,2.38-.74,1.79-11.65-6.26-25.75-4.56-38.37-3.24-12.13,1.28-24.8,3.37-36.87.59C62.92,184.54,63.18,182.63,64.4,182.9ZM80,207.56c19.73-9,38.56-22.23,61.06-22.21,1.24,0,1.49,1.92.24,1.92-22.35,0-41,13.15-60.59,22.09C79.57,209.88,78.86,208.08,80,207.56Zm97.6,44.37c-3.37,19.16-10.75,38.05-19.89,55.16-.58,1.09-2.38.35-1.79-.76,9.06-16.94,16.42-35.69,19.76-54.67C175.89,250.43,177.8,250.7,177.59,251.93Zm-10.17-3.76C164,265.89,150.3,280.47,142,296.05c-.59,1.09-2.39.34-1.79-.75,8.19-15.43,21.84-29.89,25.25-47.4C165.74,246.67,167.65,247,167.42,248.17Zm-7.5-3.82c-11.25,13.41-26.54,24.45-33.16,41.17a1,1,0,0,1-1.79-.75c6.7-16.91,22-28,33.41-41.61C159.18,242.2,160.72,243.38,159.92,244.35Zm-8-6.25c-12.83,15-28.69,27.47-34,47.33-.32,1.19-2.24.93-1.91-.27,5.4-20.29,21.24-32.94,34.36-48.24C151.23,236,152.77,237.16,152,238.1Zm-8.76-13.8c-12.83,16.92-33.65,25.93-44.35,44.72-.62,1.07-2.41.34-1.8-.75,10.84-19,31.65-28.06,44.61-45.15A1,1,0,0,1,143.19,224.3Zm-2.52-11.15c-21.8,7.66-37.41,25.61-52.16,42.55-.82.94-2.36-.24-1.54-1.18,15-17.19,30.86-35.4,53-43.18C141.13,210.93,141.85,212.73,140.67,213.15ZM81.12,234.41a190.82,190.82,0,0,1,58-37.14,1,1,0,0,1,.71,1.8A189.11,189.11,0,0,0,82.29,236C81.37,236.81,80.22,235.25,81.12,234.41Zm108.46-90.62c-.58,3.93-1.62,7.87-1.67,11.86,0,1.88-2.91,1.45-2.88-.4.06-4,1.1-7.93,1.67-11.86A1.45,1.45,0,0,1,189.58,143.79ZM125.4,63.09c.94-9.26-4.42-17.59-4.52-26.77-.1-9-.12-19,4.25-27.16.54-1,2.26-1.3,2.69,0,7.61,23.12,8.86,47.88,17.85,70.59,5.09,12.85,13.23,24.6,20.11,36.54,7.54,13.08,15.13,26.12,23.15,38.91,1,1.58-1.32,3.33-2.32,1.75-8-12.79-15.61-25.83-23.15-38.91-6.78-11.76-14.51-23.28-19.89-35.75-9.87-22.93-10.69-48.49-18.45-72.06l2.69,0c-4.56,8.48-4.15,19.11-4,28.47.07,4.3,2.13,8.83,3.26,13a31.57,31.57,0,0,1,1.21,11.79C128.09,65.37,125.21,65,125.4,63.09Zm-1.22.09A478.46,478.46,0,0,1,99.29,2L102,2c-7.41,16,3.9,35.08,5.82,51.27a1.46,1.46,0,0,1-2.89.33c-2-16.77-13.34-36-5.61-52.73a1.47,1.47,0,0,1,2.7,0,478.46,478.46,0,0,0,24.89,61.21C127.72,63.79,125,64.84,124.18,63.18ZM102.07,52.24C87.31,40.56,85.9,19,78.7,2.79l2.68,0C72.65,19.36,82.47,39.9,89.2,55.42c.75,1.71-2,2.78-2.7,1.06C79.47,40.3,69.59,19,78.71,1.69a1.47,1.47,0,0,1,2.69,0c6.93,15.53,8.28,37,22.45,48.21C105.32,51.1,103.54,53.41,102.07,52.24ZM83.32,56.59C70,47.16,64.69,31.21,54.81,18.83l2.6-.68C56.27,34,59.17,50.67,69.73,63.06c1.23,1.43-1.1,3.18-2.32,1.75-11.06-13-14.07-30.45-12.89-47.06a1.47,1.47,0,0,1,2.61-.67c9.7,12.16,14.87,28,28,37.2C86.62,55.37,84.84,57.66,83.32,56.59Zm-17,7.52C58.47,61.24,52.81,55,46,50.4l2.33-.94c-1.93,9.89,3.74,18.37,8.9,26.27,1,1.56-1.29,3.32-2.32,1.75-5.59-8.55-11.54-17.77-9.46-28.43a1.47,1.47,0,0,1,2.32-.95c6.58,4.46,12.05,10.55,19.65,13.33C69.21,62.07,68.07,64.76,66.32,64.11ZM55.15,80.69a89,89,0,0,0-10.47-2.36l1.55-.87c-4.6,9.46.26,19.63,5.48,27.75,1,1.56-1.31,3.32-2.33,1.74-5.77-9-10.9-20.18-5.84-30.61l1.55-.89A97.1,97.1,0,0,1,56.26,78C58.07,78.52,56.92,81.19,55.15,80.69Zm6.07,79c-.45,3.56-3.16,6.09-5.32,8.76-4.72,5.83,6,10.94,9.78,13.86a1.46,1.46,0,0,1-1.78,2.3c-4-3.07-11.5-6.43-12.18-12.18s6-7.93,6.62-13.15A1.46,1.46,0,0,1,61.22,159.71Zm-6.43-22.44c-2.92,1.16-6.85,2.89-6.71,6.62.12,2.77,2.59,5.35,4.44,7.18A54,54,0,0,0,67.38,161c1.7.8.58,3.49-1.11,2.68-7-3.33-14.48-7.89-19-14.36-4.75-6.75-.13-12.15,6.48-14.76A1.45,1.45,0,0,1,54.79,137.27ZM50,108.21c-15.08,5.93-1.87,21.55,6.41,27.2,1.55,1.07-.24,3.36-1.78,2.31-10.35-7.08-23.21-25.32-5.7-32.21A1.45,1.45,0,0,1,50,108.21Zm92.32,187.84c2.24,4.7,7.16,12.05,12.92,7.56l2,.28c2.7,3.69,5.1,7.32,9,9.87,1.57,1-.22,3.32-1.77,2.3-4.14-2.7-6.67-6.49-9.55-10.42l2,.29c-7.51,5.85-14.26-2.26-17.37-8.8C138.85,295.43,141.56,294.37,142.36,296.05Zm-14-9.88c1.58,5.91,6.27,9.2,12.3,9.37,1.87,0,1.44,2.93-.41,2.88-6.94-.2-12.77-4.38-14.59-11.18C125.21,285.46,127.91,284.36,128.4,286.17Zm-15.86-11.38c3,5.13,4.75,15,12.54,10.83,1.65-.88,2.71,1.83,1.06,2.71-9.62,5.12-12.16-5.33-15.91-11.79C109.29,274.94,111.6,273.17,112.54,274.79Zm-23.36-23.1c.35,3,.73,6,3,8.29,1.56,1.52,3.42,2.71,4.92,4.31,4.17,4.44,7.19,8.49,13.7,8.89,1.87.12,1.46,3-.4,2.88-7-.42-10.16-4.2-14.67-9-2.11-2.26-4.72-3.94-6.73-6.28s-2.37-5.86-2.71-8.76A1.46,1.46,0,0,1,89.18,251.69ZM82.1,236.17c-.53,2.45-1.15,4.88-1.45,7.39-.51,4.28,2,5.89,6,6.21,1.88.16,1.46,3-.4,2.88-3.61-.3-7-1.45-8.18-5.16s.4-8.11,1.18-11.72C79.62,234,82.5,234.33,82.1,236.17ZM82,209c-2.49,4-5.62,7.66-7.71,11.91-2.94,6,.82,9.52,6.27,11.81a1.46,1.46,0,0,1-1.14,2.68c-5.44-2.29-10.35-6.07-8.9-12.58,1.3-5.84,6.1-10.63,9.17-15.59C80.7,205.6,83,207.38,82,209ZM66.78,186c-1.48,4.45-2.85,9.35-1.17,13.95,2,5.4,9.61,5.68,14.3,5.66,1.85,0,2.23,2.87.35,2.88-6.15,0-13.08-.57-16.72-6.23-3.27-5.08-1.18-12.16.56-17.38C64.69,183.09,67.37,184.22,66.78,186ZM185.36,292.74c-6,4.43-14.31,8.9-13.57,17.5.16,1.86-2.73,2.22-2.88.34-.86-9.9,7.71-15,14.7-20.16A1.45,1.45,0,0,1,185.36,292.74Zm99.47-63.22c-12.66-2.64-25.09-2.36-36.38-9.5-11.46-7.23-24.13-16-31.72-27.38-1-1.55,1.28-3.31,2.32-1.75,7.12,10.71,18.5,18.11,28.92,25.28a46.19,46.19,0,0,0,19,7.77c6.08,1.05,12.22,1.44,18.25,2.71C287.06,227,286.67,229.91,284.83,229.52Zm-94.52-87.35c6.72,7.17,13.42,14.92,17.38,24,3.47,8,3.93,19.24,11.39,24.81,1.5,1.12-.28,3.42-1.78,2.31-6.46-4.84-8.23-13.68-10.5-20.95-3.48-11.11-11-20.08-18.81-28.45C186.71,142.54,189,140.82,190.31,142.17Zm-2.39,172.45c-4,5.57-9.53,9.89-13.37,15.63-4.79,7.14-2.76,17.48,0,25,.64,1.76-2.06,2.84-2.7,1.07-2.45-6.76-4.37-15.44-2.08-22.51,2.81-8.65,10.7-13.87,15.87-21C186.72,311.33,189,313.11,187.92,314.62Zm-18.07,56.44c-2.83,3.91-6.67,6.88-9.84,10.49-1.24,1.39-3.55-.38-2.31-1.78,3.18-3.61,7-6.57,9.85-10.48C168.66,367.77,170.94,369.55,169.85,371.06Zm45.21-17.81c-7.09-1.89-18.67-1.09-17.06,8.93.19,1.23-1.74,1.47-1.93.23-1.81-11.32,10.78-13.34,19.27-11.09C216.53,351.64,216.28,353.57,215.06,353.25Zm.05,8.6c-3.91-2.82-8.22-4.68-13.08-3.49-1.22.3-1.43-1.63-.23-1.92,5.33-1.31,10.21.78,14.49,3.87C217.32,361.05,216.12,362.57,215.11,361.85ZM206,365.72a9.1,9.1,0,0,1,5.83,3.2c.77,1-.78,2.14-1.56,1.16a7,7,0,0,0-4.54-2.44A1,1,0,0,1,206,365.72Zm-8.88,6.08a7.71,7.71,0,0,1,5.85,4.11c.53,1.13-1.27,1.84-1.8.71a5.7,5.7,0,0,0-4.33-2.9A1,1,0,0,1,197.1,371.8Zm1.63.06c-2,7-13.14,7.77-19,8.84-1.23.22-1.45-1.71-.23-1.93,5.2-.94,15.71-1.5,17.48-7.66C197.29,369.91,199.08,370.67,198.73,371.86Zm-7-5.92c1.8,1.51,3.07,3.35,2.82,5.79-.12,1.24-2,1-1.92-.28.18-1.7-.83-2.94-2.08-4C189.63,366.68,190.81,365.14,191.77,365.94Zm6.64-5c2.2,2.13,3.88,4.39,4.29,7.49a1,1,0,0,1-1.91.22,10.47,10.47,0,0,0-3.56-6.17C196.34,361.61,197.51,360.07,198.41,360.94Zm5-2.85c-4.18,4.82-9.84,7.6-15.45,10.41-1.12.56-1.83-1.25-.71-1.81,5.29-2.64,10.69-5.23,14.62-9.78C202.65,356,204.18,357.14,203.37,358.09Zm3.83,7.51c-4,6.83-14.49,7.18-21.37,8.63-1.22.26-1.44-1.66-.23-1.93,6.41-1.35,16.36-1.58,20.06-7.87C206.29,363.34,207.82,364.54,207.2,365.6Zm10.91-17.09c-2.18,8.17-1.48,17.08-7.32,23.79-7.67,8.84-20.54,11.91-31.69,12.5-1.23.07-1.47-1.86-.22-1.92,11.09-.6,22.38-3.57,30.38-11.76,5.75-5.89,5-15.41,6.92-22.89C216.5,347,218.42,347.3,218.11,348.51Zm-38.94,22.64c1.15.78,2.37,1.45,3.52,2.24s-.14,2.23-1.18,1.53-2.37-1.45-3.52-2.23S178.14,370.45,179.17,371.15Zm2.85-6.36a11.22,11.22,0,0,1,5.35,2.62c1,.79-.21,2.33-1.18,1.54a9.22,9.22,0,0,0-4.43-2.24A1,1,0,0,1,182,364.79Zm1.8-3.55c.34,7.74-12.89,16-6.3,23.1.85.91-.7,2.07-1.54,1.16-7.75-8.36,6.28-15.75,5.92-24C181.85,360.22,183.77,360,183.82,361.24Zm-10.56-1.84a8.09,8.09,0,0,1,5.43,5.42c.35,1.18-1.44,1.9-1.81.71a6.25,6.25,0,0,0-4.37-4.34C171.32,360.81,172.08,359,173.26,359.4Zm4.64-5a6.23,6.23,0,0,1,5.08,4.7c.34,1.18-1.46,1.91-1.81.71a4.35,4.35,0,0,0-3.55-3.49A1,1,0,0,1,177.9,354.44Zm10.4,1.88c-.91-3.27-3.45-5.37-6.92-5.05a1,1,0,0,1-.22-1.93,8.3,8.3,0,0,1,9,6.26C190.44,356.79,188.64,357.52,188.3,356.32Zm1.77-.45c-2.36,3.62-5.92,5.6-9.3,8.15-4.08,3.05-6.09,8-10.3,10.94-1,.71-2.2-.84-1.17-1.56,3.81-2.67,5.6-6.92,9.07-9.89s7.61-4.91,10.15-8.82C189.22,353.63,190.74,354.82,190.07,355.87Zm-8.14-8.51c.45,3.94-.91,6.42-3.72,9.11-5.39,5.17-8.24,10.42-8.44,18,0,1.25-2,1-1.92-.27.13-4.65,1.14-9.63,3.79-13.56,3-4.44,9.06-7,8.37-13.1A1,1,0,0,1,181.93,347.36ZM228.68,231.9c5.25,5.25,6.18,13,13.08,16.76,6,3.19,16.4,1.18,19.65-5,.58-1.09,2.37-.35,1.79.76-3.28,6.23-10.95,8-17.47,7.35a16,16,0,0,1-9.58-4.78c-3.87-3.84-4.77-9.66-8.65-13.55C226.62,232.56,227.8,231,228.68,231.9ZM205.1,251.37c.64,9.7-.69,20.21-4.57,29.17a1,1,0,0,1-1.79-.75c3.74-8.64,5-18.86,4.44-28.2C203.1,250.35,205,250.11,205.1,251.37ZM196.47,288c-5.35,7.17-15.09,18.52-7.84,27.39.78,1-.77,2.13-1.56,1.16-7.94-9.73,1.94-21.8,7.86-29.73A1,1,0,0,1,196.47,288Zm-5.08,44.88c8.51,8.86,17.56,12.81,29.94,11.28a1,1,0,0,1,.22,1.93c-13.11,1.62-22.67-2.63-31.7-12.05C189,333.15,190.54,332,191.39,332.89Zm1.88.1c14.12,11.57,34,10.21,50.58,5.72,1.19-.31,1.92,1.48.72,1.81-17.27,4.66-37.8,6-52.48-6C191.11,333.74,192.29,332.2,193.27,333Zm70.21-47.63a34.27,34.27,0,0,1-4.08,7.28,40.74,40.74,0,0,0-3.39,5.77c-1.37,3-1.3,2.9,1.32,3.53l.64,1.55c-4,5.1-9.35,10.73-9.52,17.56l-1.32-1c1.26-.63,2.55-1,3.82-1.62a1,1,0,0,1,1.12,1.49C248.8,323.64,240,335.36,248.2,338c1.19.37.42,2.16-.75,1.78-10.14-3.26-1-16.4,3.08-21.1l1.14,1.49c-1.27.63-2.56,1-3.83,1.63l-1.31-1c.19-7.18,5.72-13.14,9.9-18.48l.63,1.55c-1-.24-2.07-.55-3.11-.79l-.82-1.1c1-6.75,6.23-11.17,8.57-17.35C262.14,283.44,263.92,284.19,263.48,285.36Zm-5.05-.48a61.52,61.52,0,0,0-8.25,11A15.7,15.7,0,0,0,248.1,304c.13,3.15,1.54,1.69,3.72.48.91-.51,1.62.78,1.13,1.49-3.48,5-9.64,9.18-8.63,16l-1.72-.49c1.64-1.61,3.73-2.53,5.41-4.11.7-.66,1.89.32,1.47,1.15-3.41,6.73-16.21,14.48-11,23,.64,1.06-.9,2.24-1.55,1.17-6.06-10,6.85-17.14,10.8-24.91l1.47,1.15c-1.54,1.46-3.53,2.26-5,3.75a1,1,0,0,1-1.73-.48c-1.11-7.5,5.17-11.87,9-17.41l1.12,1.49c-1.36.76-2.87,1.16-4.23,1.92l-1.25-.55c-3.43-9.12,4.2-17.65,9.83-24C257.73,282.77,259.26,283.94,258.43,284.88Zm-55.07,5c-6.08,5.25-15.68,13.61-12,22.63a1,1,0,0,1-1.81.72c-4.07-10,5.82-19,12.65-24.89C203.14,287.54,204.3,289.1,203.36,289.9ZM152.17,341c-12.14,18.13-28.95,32.35-46.9,44.46-7.6,5.12-15.81,8.85-24.12,12.65-8.91,4.1-18.46,8.38-25.05,15.9-.83.93-2.36-.25-1.54-1.19,12-13.73,31.76-17.44,46.69-27,19-12.17,36.77-27.14,49.38-46C151.33,338.78,152.86,340,152.17,341Zm-26.45,47.63c-19.55,9.84-35.31,25.28-52.58,38.4A1,1,0,0,1,72,425.47c17.42-13.23,33.32-28.72,53-38.64C126.11,386.27,126.82,388.07,125.72,388.63ZM102.94,398.9c-23.77,14-49.93,23.36-73.22,38.17-1,.67-2.23-.88-1.16-1.56,23.28-14.8,49.44-24.21,73.22-38.15C102.84,396.73,104,398.28,102.94,398.9Zm-53.19,8c-17.5,12.54-35.14,25.46-47.19,43.66-1,1.57-3.33-.22-2.3-1.77,12.18-18.41,30-31.52,47.75-44.21C49.53,403.43,51.28,405.75,49.75,406.85Zm93.19-48.23c-14.3,22.15-39.37,34.13-62.45,45-13.08,6.15-26.23,12.22-39,19C27.8,429.75,13.08,438.19,2.66,449.8c-1.24,1.4-3.55-.37-2.3-1.77,9.14-10.19,21.38-17.73,33.2-24.44,12.51-7.12,25.63-13.19,38.65-19.32,24.88-11.71,52.91-23.41,68.42-47.43C141.66,355.27,144,357.05,142.94,358.62Zm16.16,21.25c-14.07,8.18-32,6.35-45.32,15.89-1.52,1.08-3.28-1.24-1.75-2.33,13.47-9.6,31.24-7.69,45.32-15.88C159,376.62,160.71,378.93,159.1,379.87Zm15-27.68c-10.76,9.7-23.12,17.37-34.69,26-5.94,4.45-11.63,9-18,12.79a156.6,156.6,0,0,1-18.6,9.18c-1.72.74-2.79-2-1.07-2.7a168.29,168.29,0,0,0,19.52-9.74c6.37-3.77,12-8.51,17.89-12.94,11.1-8.31,22.91-15.63,33.24-24.94C173.76,348.61,175.5,351,174.12,352.19Zm-19.77-12.08c-.64,4.57-3.56,8.51-6.11,12.21-4.08,5.89-6.92,12.09-10.24,18.41-6.69,12.78-21.12,21.21-33.27,28.06-1.6.9-3.37-1.41-1.74-2.31,11.83-6.69,25.5-14.7,32.33-26.87,2.73-4.87,4.62-10.13,7.68-14.83s7.69-9.41,8.47-15.07A1.45,1.45,0,0,1,154.35,340.11Zm7.94,39.18c-9.83,10.8-22.78,17.45-36.08,23-6.79,2.85-13.72,5.36-20.59,8.05-7.15,2.78-13.82,6.53-20.69,9.92-5.22,2.58-10.94,5.39-16.87,5.37-2.77,0-5.44-.44-8.22-.13-4.16.45-8.22,3.26-11.83,5.19a82.14,82.14,0,0,1-19.85,7.91c-7.91,1.92-15.76,3.57-23,7.42-1.64.88-2.7-1.83-1.06-2.7,6-3.19,12.4-4.94,19-6.5a90,90,0,0,0,22.28-8c5.33-2.82,10.74-6.53,17-6.42,2.57.06,5.13.41,7.7.24,3.64-.22,7.53-2.24,10.81-3.7,6.52-2.9,12.7-6.53,19.17-9.53s13.57-5.26,20.29-7.9c14.43-5.68,29-12.39,39.65-24C161.24,376.14,163.54,377.9,162.29,379.29Zm9.41-66.89c-9.6,10.52-20.78,19.34-31.95,28.12-12,9.39-23.29,19.41-34.8,29.34C93.09,380.07,80.81,390,67.14,397.75,53.79,405.28,39.47,411,27.06,420.17c-1.51,1.1-3.26-1.21-1.75-2.32,11.51-8.48,24.61-14.21,37.2-20.86,14.3-7.56,27-17.78,39.25-28.23,11.15-9.48,21.95-19.3,33.45-28.37,11.87-9.36,24-18.55,34.19-29.76C170.66,309.26,173,311,171.7,312.4Zm46.89-44.06c-11.76,7.26-26.87,8.88-32.66,23.1a1.45,1.45,0,0,1-2.68-1.13c6.12-15,21.14-16.61,33.59-24.29C218.43,265.05,220.18,267.36,218.59,268.34Zm16.6-13c-8-.46-13.7,5.32-14.73,13a1.45,1.45,0,0,1-2.88-.4c1.25-9.34,8.47-16,18-15.45C237.46,252.53,237,255.42,235.19,255.31Zm309.66,52.15c-14.72,0-29,4-42.87,8.54-6.31,2.09-13,4-19.73,4.08-7.46.13-14.74-2-22.24-1.59-1.87.1-2.22-2.79-.34-2.89,6.56-.32,13,.91,19.47,1.48,7.92.67,15.87-1.83,23.29-4.29,13.57-4.48,27.69-8.23,42.08-8.22C546.36,304.57,546.72,307.46,544.85,307.46ZM190.14,332.93c1.09,8.63,5,16.82,3.42,25.66-1.76,9.63-10.58,17.44-15,25.86-.87,1.66-3.55.54-2.68-1.11,4.41-8.46,12.34-15.78,14.77-25.15,2.13-8.17-2.41-16.88-3.42-24.93A1.46,1.46,0,0,1,190.14,332.93ZM193,314c-3,4.9-7.19,8.84-10.68,13.36-4.67,6.05-4.28,11.85.31,17.88a1.46,1.46,0,0,1-2.33,1.75c-4.24-5.58-5.91-11.58-2.51-18,3.3-6.26,9.23-10.73,12.9-16.77C191.7,310.59,194,312.39,193,314Zm16.1,8c-4.25,7-12.74,9.9-20.2,12.08-1.77.52-2.87-2.18-1.07-2.7,7-2,15-4.58,19-11.15C207.8,318.6,210.09,320.4,209.12,322ZM377,312.83c-3,9.67-17.42,6-18.58-3l1.73.49c-3.69,5.6-11.8,12.65-19.1,11.68-8.64-1.16-7.47-11-7.37-17.64l1.86.51c-5.69,12-16.7,20.3-29.59,23.33-14.27,3.37-9.42-14.25-11.5-21.9l1.66.24c-7.37,10.38-13.08,23.18-27.39,24.18-1.24.08-1.47-1.83-.23-1.93,13.7-.94,19.1-13.59,26.09-23.44l1.66.24c.87,3.19.67,6.44.58,9.71a21.66,21.66,0,0,0,.83,7.77c1.56,4.68,6.75,3.64,10.28,2.63a40.78,40.78,0,0,0,25.82-21.57,1,1,0,0,1,1.85.5,84.29,84.29,0,0,0,.13,8.71c.49,6,5.08,7.62,10.36,5.92,5-1.62,9.68-5.79,12.52-10.13a1,1,0,0,1,1.73.48c.92,7.1,12.47,10.23,14.87,2.44C375.61,310.89,377.38,311.64,377,312.83ZM270.28,334c-3.7,6.23-10.79,9.81-16.95,13.18-9.17,5-17.44,11.3-26.48,16.51-1.07.62-2.25-.92-1.16-1.55,7.61-4.39,14.45-10,22.17-14.21,7.23-3.94,16.5-7.72,20.88-15.12C269.38,331.73,270.9,332.93,270.28,334Zm19.25-2.88c-4.45,7.23-12.83,11.51-19.79,15.93-9.5,6.06-18.6,13.09-27.63,19.84a1,1,0,0,1-1.17-1.55c8.69-6.5,17.46-13.15,26.53-19.12,7.1-4.66,15.93-8.83,20.53-16.29C288.65,328.87,290.18,330.07,289.53,331.12Zm6.65.8c-1.28,8.72-8.13,16-14.09,22a136.54,136.54,0,0,1-22.18,17.93c-1,.67-2.21-.87-1.17-1.55a144.59,144.59,0,0,0,20.17-16c6.3-5.92,14-13.73,15.35-22.67A1,1,0,0,1,296.18,331.92Zm19.18-5.08c-3.19,11.34-11.87,20.07-20.55,27.56-9.58,8.26-20.29,15.05-30.39,22.6a1,1,0,0,1-1.16-1.54c9.36-7,19.15-13.41,28.23-20.81,9.27-7.55,18.75-16.71,22.09-28.56C313.91,324.88,315.7,325.66,315.36,326.84Zm3.44,7.81a155.44,155.44,0,0,1-19.61,32c-.78,1-2.32-.2-1.54-1.18A153.44,153.44,0,0,0,317,333.9C317.54,332.78,319.32,333.52,318.8,334.65Zm19.6-10c-2.48,15.57-12.24,28.32-22.8,39.51-.84.91-2.38-.28-1.53-1.18,10.31-10.94,20-23.37,22.41-38.6A1,1,0,0,1,338.4,324.6Zm29.42-.75c-2.5,12.21-5,25.95-13.51,35.59-.82.92-2.36-.25-1.54-1.19,8.29-9.38,10.69-22.78,13.13-34.67C366.15,322.37,368.07,322.63,367.82,323.85Zm-9.29-3.65c-.08,8.4-6.24,16.09-11.27,22.29A152.28,152.28,0,0,1,326,363.69c-1,.79-2.13-.76-1.16-1.56a162.68,162.68,0,0,0,18.49-18c5.5-6.24,13.21-14.88,13.3-23.73C356.62,319.2,358.54,319,358.53,320.2Zm20.83-6.69c-3.05,7.64-19.81,19-22.17,5.26l1.73.47c-3.21,4.41-10.14,7.61-15.28,8.85-4.59,1.1-7.51-.75-5.15-5.48l1.49,1.16c-5.39,4-11.31,8.42-17.85,10.35-7.07,2.08-7.43-4.18-5.92-9.4l1.25,1.28c-4.76,2.38-23.74,15.57-24.58,3.26l1.32.79c-10.45,4.34-20.61,8.94-30.36.62-1-.81.22-2.35,1.17-1.54,9.19,7.84,18.76,3.15,28.48-.88l1.32.79c.61,9,18.17-3,21.94-4.85.84-.42,1.45.56,1.25,1.27-.69,2.37-2.16,7.28,1.83,7.13,2.28-.08,4.61-1.33,6.61-2.33a83.45,83.45,0,0,0,12.37-8c.74-.56,1.92.26,1.47,1.14-2.83,5.65,5.35,2.13,7.77,1.05,3.22-1.42,7.2-3.42,9.33-6.35a1,1,0,0,1,1.73.48c1.95,11.25,16.18-.06,18.47-5.78A1,1,0,0,1,379.36,313.51Zm2.23-.88c1.51,14.78-8.66,29.61-17,40.92-.75,1-2.27-.18-1.54-1.19,8.05-10.85,18.09-25.3,16.64-39.51A1,1,0,0,1,381.59,312.63Zm22-2.49A60.16,60.16,0,0,1,428,328.48a1,1,0,0,1-1.55,1.17,58.25,58.25,0,0,0-23.59-17.73A1,1,0,0,1,403.57,310.14Zm-21.7,3.12c-1.15,11.24.16,21.4,6.53,30.94.7,1-.85,2.22-1.54,1.18-6.67-10-8.12-20.63-6.91-32.38A1,1,0,0,1,381.87,313.26ZM392,313c-1.36,10.61-.07,21.71-4.49,31.73a1,1,0,0,1-1.79-.76c4.35-9.84,3-20.81,4.36-31.24A1,1,0,0,1,392,313Zm2.29-2.26c5.71,11.51,3.63,25-3.58,35.37-.72,1-2.25-.16-1.54-1.18,6.86-9.83,8.73-22.57,3.31-33.46C392,310.29,393.77,309.58,394.33,310.69Zm8-1.11c13.3.75,29.89,4.75,40.08,13.81.92.81-.26,2.36-1.19,1.52-10-8.85-26.14-12.69-39.17-13.41C400.84,311.44,401.11,309.52,402.36,309.58Zm-7.45,1.89c2.78,9.5,6.72,19.22,14.12,26,.91.85-.26,2.39-1.18,1.54-7.67-7.09-11.87-17-14.74-26.87C392.77,311,394.57,310.28,394.91,311.47Zm2-.62c5.12,8.47,10.71,16.79,13.18,26.5.3,1.19-1.5,1.92-1.8.71-2.43-9.54-7.89-17.71-12.93-26C394.75,311,396.29,309.79,396.94,310.85Zm6.56-1A45.64,45.64,0,0,1,416.82,335c.21,1.23-1.72,1.45-1.92.22a43.41,43.41,0,0,0-12.58-23.85C401.44,310.54,402.61,309,403.5,309.87Zm3.09-.43a121.83,121.83,0,0,1-46.22.87c-15.5-2.77-30.28-8.63-46.16-9.29-1.87-.07-1.45-3,.41-2.88,15.29.63,29.74,5.91,44.61,9,15.47,3.21,31.6,2.62,47-.58C408.09,306.17,408.41,309.06,406.59,309.44Zm-97.68-7.82c-22,3.77-33.49,25.79-52.12,35.67-19.74,10.46-42.85,10.15-63.34,18.45a1.45,1.45,0,0,1-1.07-2.7c20.81-8.44,44.54-7.85,64.34-19,18.38-10.37,29.73-31.49,51.86-35.28C310.42,298.42,310.76,301.31,308.91,301.62Zm-47.55,66.56c.65,2.55,1,5.2,2.07,7.62l-1.53-.91a31.2,31.2,0,0,0,3.65-1.09c1.76-.59,2.84,2.11,1.06,2.71a41,41,0,0,1-4.36,1.27l-1.53-.9c-1.08-2.43-1.41-5.08-2.07-7.63C258.19,367.46,260.89,366.36,261.36,368.18Zm-14.74,1.37A28,28,0,0,0,259.18,367c1.71-.75,2.78,1.95,1.07,2.71a31.11,31.11,0,0,1-14,2.75C244.35,372.35,244.77,369.47,246.62,369.55Zm-14.16-6.13c6.34-1.33,12.81-.22,15,6.64.57,1.78-2.13,2.86-2.7,1.08-1.82-5.64-6.92-5.9-12-4.83C231,366.69,230.63,363.8,232.46,363.42Zm-12.78-10.84c2.53,2.84,3.26,6.18,3.53,9.89-.77-.34-1.54-.66-2.32-1,4.54-3.11,10.09-2.63,12,3,.6,1.77-2.1,2.85-2.7,1.08-1.3-3.83-4.58-3.84-7.57-1.8a1.46,1.46,0,0,1-2.3-1c-.23-3.22-.76-6-3-8.48C216.12,352.93,218.45,351.2,219.68,352.58Zm83.81,12.12c-3.83,3-7.41,6.25-11.56,8.82-3.19,2-7,2.77-10.58,3.84-6,1.75-10,3.9-15.17-.57-1.43-1.22.35-3.53,1.77-2.3,2.65,2.29,4.4,2.69,7.7,1.63,2.86-.92,5.72-1.79,8.6-2.65,7-2.07,11.86-6.71,17.49-11.08C303.22,361.23,305,363.55,303.49,364.7Zm14.25-2.84c-3.15,5.39-11.46,9.58-15.11,2.41-.83-1.67,1.87-2.73,2.71-1.07,2.53,5,8.32-.07,10.1-3.11C316.39,358.46,318.68,360.26,317.74,361.86Zm17.81-1.72c-5.45,4-13.95,7.55-19.43,1.8-1.3-1.35,1-3.09,2.32-1.75,4.17,4.37,11.47.49,15.36-2.37A1.45,1.45,0,0,1,335.55,360.14Zm28-6.49c-3.19,4.11-7,6.45-12.27,6.8s-10.47-1.09-15.78.06c-1.83.41-2.15-2.48-.34-2.87,9.43-2.07,19.09,3.24,26.09-5.76A1.45,1.45,0,0,1,363.58,353.65Zm26-8.56c-6.82,7.2-16.82,6.93-25.89,8.91-1.83.41-2.16-2.48-.34-2.88,8.08-1.78,17.83-1.36,23.93-7.81C388.54,342,390.85,343.73,389.56,345.09Zm26.67-8.46c-7.19,8.72-18.12,9.56-28.7,8.92-1.88-.12-1.46-3,.4-2.88,9.46.57,19.52,0,26-7.82C415.12,333.41,417.43,335.18,416.23,336.63Zm42.51-16.05c-12.66,8.37-29.41,6.16-41.61,15.43a1.45,1.45,0,0,1-1.75-2.31c12.29-9.36,29-7.09,41.61-15.44C458.56,317.24,460.3,319.55,458.74,320.58Zm88.32-14.76c-10.92,20.13-41.62,23.69-62,21-26.78-3.54-51-21.36-78.85-17.08-1.85.27-2.19-2.61-.33-2.89,24.69-3.78,47.65,9.25,70.86,15.29,11.3,2.93,22.8,3,34.29,1.18,12.41-2,27-6.89,33.36-18.62C545.27,303.06,548,304.18,547.06,305.82ZM336.75,272.48c19.8,12.12,41.83,17.24,63.92,23.38,20.94,5.8,40.15,17,61.89,20a1.46,1.46,0,0,1-.4,2.89c-21.94-3-41.55-14-62.61-20.17-22.37-6.5-44.44-11.43-64.57-23.75C333.38,273.8,335.17,271.51,336.75,272.48Zm.55-66.58h0a4,4,0,0,1,1.92-2,3.12,3.12,0,0,1,2.54-.09h0a3.05,3.05,0,0,1,1.68,1.87,4.11,4.11,0,0,1-2.08,4.92,3,3,0,0,1-4.22-1.78,4,4,0,0,1,.13-2.85Zm-1.31-.46h0l0,.05h0a5.32,5.32,0,0,0-.13,3.74,4.39,4.39,0,0,0,6.13,2.58,5.51,5.51,0,0,0,2.79-6.62,4.44,4.44,0,0,0-2.46-2.7l-.1,0a4.41,4.41,0,0,0-3.56.14A5.42,5.42,0,0,0,336,205.4Zm25.55,9.67a11.36,11.36,0,0,1-5.25,2c-1.24.1-1.48-1.82-.23-1.93a9.61,9.61,0,0,0,4.32-1.57C361.4,212.85,362.57,214.4,361.54,215.11Zm-71.4,18.13c-4.19,7.55-6.05,15.66-2.9,23.95s10.63,14,17.75,18.58c1,.66-.15,2.19-1.19,1.53-7.65-4.87-14.7-10.91-18.36-19.4s-1.38-17.68,2.91-25.41C289,231.41,290.74,232.15,290.14,233.24Zm70.32-16.08c.9,6.73-2.62,12.87-2.4,19.56.29,8.72,9.51,8.68,15.47,11.6,1.12.54.38,2.33-.75,1.79-5.59-2.74-12.38-2.65-15.52-8.76-3.88-7.53,2.31-16.15,1.28-24A1,1,0,0,1,360.46,217.16Zm-3.88-3.44c.61-9.38,16.88-20.72,21.89-8.57a1,1,0,0,1-1.81.72c-4.21-10.24-17.69.82-18.16,8.12C358.42,215.24,356.5,215,356.58,213.72Zm-14,31.34c-3.42-2.07-5.8-5.34-5.76-9.45,0-1.22,1.94-1.47,1.92-.22,0,3.65,2,6.29,5,8.13C344.79,244.17,343.6,245.7,342.54,245.06Zm-17.76-32.23c8.8,4,13.62,14.33,14.12,23.63.06,1.25-1.85,1.48-1.92.23-.47-8.58-4.78-18.31-13-22.07C322.89,214.1,323.64,212.31,324.78,212.83Zm32.58.3c1.38-8.7-5.86-14-13.73-15-9.17-1.17-15,8.3-17.26,15.8-.37,1.19-2.15.44-1.79-.75,2.7-8.93,9.13-17.55,19.31-17,9.05.52,16.86,8,15.39,17.22A1,1,0,0,1,357.36,213.13Zm-6.11,47c-6.26,7.26-14.33,12.75-20,20.57-1.1,1.52-3.4-.26-2.3-1.77,5.66-7.83,13.72-13.32,20-20.57C350.18,256.93,352.48,258.7,351.25,260.12Zm-64.33-33.19c15.44-1.41,24.86-16.93,36.15-25.75,6.19-4.84,14.58-7.2,22.08-9.06,12.83-3.17,39.32-6.17,34.35,15-.43,1.82-3.31,1.42-2.88-.4,5-21.19-26.5-13.39-37.24-10a51.76,51.76,0,0,0-21.25,12.55c-9,8.52-17.7,19.29-30.88,20.5C285.39,230,285.05,227.1,286.92,226.93Zm71.3,9.59c-5.13,2.83-17.72,9.23-13.34,16.72,5.26,9,20.09,1.31,25.45-3.72,1.37-1.28,3.1,1,1.75,2.32-7.2,6.76-22.35,13-29.52,3.15-6.78-9.28,8.24-17.67,14.59-21.18C358.78,232.91,359.83,235.63,358.22,236.52Zm12.41,10.24c.7-7.35-3.57-11.8-7.68-17.23A19,19,0,0,1,359,215.11c.22-1.86,3.09-1.46,2.88.41-.9,7.5,3.16,11.93,7.41,17.44a19.29,19.29,0,0,1,4.19,14.21C373.34,249,370.46,248.63,370.63,246.76Zm-10.06-37c8.6-6.65,18.33-5.4,23,4.91,5.58,12.44-.23,24.7-9.5,33.26-1.38,1.27-3.12-1.06-1.75-2.32,7.3-6.76,11.82-15,10-25.16-.83-4.58-3-9.35-7.34-11.52s-9.19.53-12.58,3.14A1.45,1.45,0,0,1,360.57,209.76Zm-21.83-3.2a1.7,1.7,0,1,0,2.3-1.08A1.79,1.79,0,0,0,338.74,206.56Z"/></g></g></svg>