<svg xmlns="http://www.w3.org/2000/svg" viewBox="0 0 1046.96 705.11"><defs><style>.cls-1{fill:#676767;}.cls-2{fill:#004a94;}.cls-3{fill:#73b42e;}.cls-4{fill:#004b93;}</style></defs><g id="Camada_2" data-name="Camada 2"><g id="Camada_1-2" data-name="Camada 1"><path class="cls-1" d="M214.35,431.34a87.15,87.15,0,0,1,14.39-1c6.56,0,11.24,1.26,14.39,3.77a13.77,13.77,0,0,1,5,10.9,15,15,0,0,1-4.33,11.17c-3.64,3.42-9,5-15.3,5a26.6,26.6,0,0,1-3.63-.21v16.83H214.35Zm10.55,21.38a16.26,16.26,0,0,0,3.56.28c5.66,0,9.15-2.86,9.15-7.68,0-4.33-3-6.92-8.31-6.92a18.07,18.07,0,0,0-4.4.42Z"/><path class="cls-1" d="M275.74,431.35a91.78,91.78,0,0,1,14.17-1c7,0,11.87,1.05,15.23,3.7,2.79,2.23,4.33,5.52,4.33,9.85a12.5,12.5,0,0,1-8.31,11.59v.22c3.28,1.32,5.09,4.47,6.28,8.79,1.47,5.31,2.94,11.45,3.84,13.27H300.39c-.77-1.32-1.89-5.17-3.29-11s-3.27-7.47-7.61-7.54h-3.21v18.51H275.74Zm10.54,20.25h4.19c5.31,0,8.45-2.65,8.45-6.77,0-4.33-2.93-6.5-7.82-6.57a26.49,26.49,0,0,0-4.82.35Z"/><polygon class="cls-1" points="365.96 457.89 348.64 457.89 348.64 469.06 367.99 469.06 367.99 477.79 337.95 477.79 337.95 430.72 367.01 430.72 367.01 439.45 348.64 439.45 348.64 449.23 365.96 449.23 365.96 457.89"/><polygon class="cls-1" points="396.06 430.72 424.83 430.72 424.83 439.45 406.74 439.45 406.74 450.2 423.64 450.2 423.64 458.86 406.74 458.86 406.74 477.79 396.06 477.79 396.06 430.72"/><polygon class="cls-1" points="481.67 457.89 464.35 457.89 464.35 469.06 483.7 469.06 483.7 477.79 453.67 477.79 453.67 430.72 482.72 430.72 482.72 439.45 464.35 439.45 464.35 449.23 481.67 449.23 481.67 457.89"/><rect class="cls-1" x="511.77" y="430.72" width="10.68" height="47.07"/><polygon class="cls-1" points="561.56 439.66 548.92 439.66 548.92 430.72 585.1 430.72 585.1 439.66 572.24 439.66 572.24 477.79 561.56 477.79 561.56 439.66"/><path class="cls-1" d="M622.17,430.72v27.1c0,8.1,3.07,12.22,8.53,12.22s8.65-3.91,8.65-12.22v-27.1H650v26.4c0,14.53-7.33,21.44-19.63,21.44-11.87,0-18.85-6.56-18.85-21.58V430.72Z"/><path class="cls-1" d="M680,431.35a92,92,0,0,1,14.18-1c7,0,11.87,1.05,15.23,3.7,2.79,2.23,4.33,5.52,4.33,9.85a12.5,12.5,0,0,1-8.31,11.59v.22c3.28,1.32,5.09,4.47,6.28,8.79,1.47,5.31,2.94,11.45,3.84,13.27H704.65c-.77-1.32-1.89-5.17-3.29-11s-3.28-7.47-7.61-7.54h-3.21v18.51H680Zm10.55,20.25h4.19c5.31,0,8.45-2.65,8.45-6.77,0-4.33-2.93-6.5-7.82-6.57a26.49,26.49,0,0,0-4.82.35Z"/><path class="cls-1" d="M753.81,465.71l-3.36,12.08h-11l14.39-47.08h14l14.59,47.08H770.92l-3.63-12.08Zm11.94-8-2.93-10c-.84-2.79-1.68-6.29-2.38-9.08h-.14c-.7,2.79-1.39,6.36-2.16,9.08l-2.8,10Z"/><path class="cls-1" d="M844.38,431.34a94.93,94.93,0,0,1,14.39-1c8.94,0,14.73,1.61,19.27,5,4.89,3.64,8,9.44,8,17.75,0,9-3.29,15.22-7.83,19.06-5,4.12-12.5,6.08-21.72,6.08a91.85,91.85,0,0,1-12.08-.7Zm10.68,38.42a19.63,19.63,0,0,0,3.71.21c9.63.07,15.92-5.24,15.92-16.48.07-9.78-5.66-14.95-14.81-14.95a22.14,22.14,0,0,0-4.82.42Z"/><polygon class="cls-1" points="941.8 457.89 924.48 457.89 924.48 469.06 943.83 469.06 943.83 477.79 913.79 477.79 913.79 430.72 942.85 430.72 942.85 439.45 924.48 439.45 924.48 449.23 941.8 449.23 941.8 457.89"/><polygon class="cls-2" points="1032.23 439.2 996.13 439.2 975.53 475.65 1002.74 475.65 1032.23 439.2"/><path class="cls-2" d="M1044.55,594.25c-.26-6-.47-11.55-.6-16.74s-.19-10-.19-14.52V493.58h-36.65v61.05a17.81,17.81,0,0,1-.77,5.43,15.81,15.81,0,0,1-4.71,6.29,11.72,11.72,0,0,1-7.7,2.42c-4.17,0-7-1.42-8.94-4.48-2.14-3.4-3.23-8.52-3.23-15.23V493.58H945.12v60.29c0,15.2,3.55,26.9,10.58,34.76,6.44,7.15,15.46,10.77,26.83,10.77a40.7,40.7,0,0,0,22.24-6.21,41.62,41.62,0,0,0,6.66-5.39l1,9.61h32.27Z"/><path class="cls-1" d="M105.15,671.11l-8.62,17.16H89.44L117.56,634h7.89l7.5,54.3H126.1l-2.18-17.16Zm18.21-5.32-2.09-15.71c-.33-2.81-.73-6.76-1-10h-.16c-1.46,3.22-2.82,6.6-4.44,9.9l-8.13,15.79Z"/><path class="cls-1" d="M154.7,697.13A20.63,20.63,0,0,0,165,699.71c6.52,0,11.68-3.39,14-13.94l1.29-5.8h-.25c-3.38,5.56-8.13,8.3-13.53,8.3-7.81,0-11.84-6.6-11.84-13.53-.08-13.22,9.66-26.35,24.73-26.35a31.79,31.79,0,0,1,12.49,2.74l-6,32.22c-1.61,8.22-3.78,13.94-7.89,17.41-3.87,3.38-9.1,4.35-13.62,4.35-4.75,0-9.18-1.13-11.68-2.74Zm29.88-42a16.1,16.1,0,0,0-6.44-1.29c-9.75,0-16.43,10.15-16.52,19.81,0,4.27,1.54,9.35,7.5,9.35,5.72,0,11.52-7.25,13-14.9Z"/><path class="cls-1" d="M224.62,686a26.75,26.75,0,0,1-12.89,3.06c-10.31,0-14.82-7-14.82-15.62,0-11.77,8.7-25.06,21.27-25.06,7.41,0,11.44,4.43,11.44,10,0,10.24-11.52,13-25.94,12.73a16.15,16.15,0,0,0,.81,7.41c1.52,3.47,4.67,5.24,8.7,5.24A21.74,21.74,0,0,0,223.66,681Zm-7.41-32.38c-6.36,0-11.11,6.2-12.72,12.33,10.47.07,18.68-1.29,18.68-7.34,0-3.22-2.41-5-6-5"/><path class="cls-1" d="M233,688.27l5.24-27.63c.88-4.35,1.37-8.14,1.85-11.36h6l-1,7.65h.16c3.46-5.48,8.7-8.54,14.42-8.54,4.67,0,9.91,2.66,9.91,10.88a37.91,37.91,0,0,1-.73,6.28l-4.35,22.72h-6.69l4.27-22.48a25,25,0,0,0,.57-5c0-3.95-1.53-6.85-6.12-6.85-4.76,0-11.52,5.72-13.29,15.39l-3.55,18.93Z"/><path class="cls-1" d="M293.51,638.81l-2,10.47h9.35l-1,5.23h-9.35l-3.62,18.94a34.37,34.37,0,0,0-.72,6.28c0,2.34,1.12,3.71,3.7,3.71a19.67,19.67,0,0,0,3.14-.24l-.32,5.23a15.65,15.65,0,0,1-5.16.73c-6,0-8.21-3.63-8.21-7.58a36.57,36.57,0,0,1,.8-7.33l3.87-19.74h-5.64l1.05-5.23h5.56l1.69-8.78Z"/><path class="cls-1" d="M329,686a26.78,26.78,0,0,1-12.89,3.06c-10.31,0-14.82-7-14.82-15.62,0-11.77,8.7-25.06,21.27-25.06,7.41,0,11.44,4.43,11.44,10,0,10.24-11.52,13-25.94,12.73a16,16,0,0,0,.81,7.41c1.52,3.47,4.67,5.24,8.69,5.24A21.71,21.71,0,0,0,328.06,681Zm-7.41-32.38c-6.36,0-11.12,6.2-12.72,12.33,10.47.07,18.68-1.29,18.68-7.34,0-3.22-2.41-5-6-5"/><path class="cls-1" d="M353,688.27l6.36-33.76h-5.15l1-5.23h5.24l.41-2c.88-5.48,2.81-10.48,6.36-13.62a13.73,13.73,0,0,1,9.27-3.46,10.62,10.62,0,0,1,5.31,1l-1.45,5.32a9.49,9.49,0,0,0-4-.72c-5.32,0-7.89,5.15-9,11.6l-.32,1.85h8.7l-1.05,5.23h-8.62l-6.44,33.76Z"/><path class="cls-1" d="M400.17,688.27c0-2.33.4-6,.88-10.07h-.16c-4.27,8.06-9.58,11-15.14,11-6.85,0-11.2-5.48-11.2-12.89,0-13.54,10-27.88,27-27.88A36.59,36.59,0,0,1,412,649.92l-3.95,20.31a89,89,0,0,0-1.69,18Zm4.35-34a18.21,18.21,0,0,0-4.67-.56c-10.07,0-18.29,10.55-18.37,21.35,0,4.35,1.53,8.62,6.68,8.62,5.56,0,12.17-7.25,14.1-17.65Z"/><path class="cls-1" d="M413.14,684.16l18.93-21c3.3-3.62,5.48-5.63,8.06-8.13l.08-.24h-20l1-5.48h28l-.88,4.43-18.69,20.78a93,93,0,0,1-8.06,8.06v.24h21.59l-1,5.48H412.41Z"/><path class="cls-1" d="M444.08,698.18A132,132,0,0,0,452,678.92l8-.8a118.15,118.15,0,0,1-10.72,19.57Z"/><path class="cls-1" d="M507.32,688.27c0-2.33.4-6,.88-10.07H508c-4.27,8.06-9.59,11-15.14,11-6.85,0-11.2-5.48-11.2-12.89,0-13.54,10-27.88,27-27.88a36.61,36.61,0,0,1,10.48,1.53l-3.95,20.31a89,89,0,0,0-1.69,18Zm4.35-34a18.24,18.24,0,0,0-4.68-.56c-10.07,0-18.29,10.55-18.36,21.35,0,4.35,1.53,8.62,6.68,8.62,5.56,0,12.17-7.25,14.1-17.65Z"/><path class="cls-1" d="M565,686.74a26.92,26.92,0,0,1-11.28,2.33c-10.07,0-15-6.76-15-15.06,0-13.29,9.83-25.54,23.85-25.54a19.68,19.68,0,0,1,8.13,1.7l-1.93,5.31a15.05,15.05,0,0,0-6.6-1.45c-10.15,0-16.51,10-16.51,19.18,0,6.28,3.3,10.38,9.66,10.38a20.44,20.44,0,0,0,9-2.17Z"/><path class="cls-1" d="M572.25,688.27l7.49-39h6.69l-7.5,39ZM581,638.4a4.43,4.43,0,0,1,4.43-4.51,3.87,3.87,0,0,1,4,4.19,4.41,4.41,0,0,1-4.52,4.51c-2.33,0-3.86-1.77-3.86-4.19"/><path class="cls-1" d="M632.19,631.08,623.65,676a96.76,96.76,0,0,0-1.7,12.32h-6.12l1-7.73h-.16c-3.55,5.56-8.46,8.62-14,8.62C595.13,689.16,591,683,591,675c0-13.86,10.31-26.59,24.09-26.59a17.74,17.74,0,0,1,6.92,1.37l3.47-18.68ZM621,655.4a12.24,12.24,0,0,0-6.45-1.61c-9.35,0-16.59,9.91-16.59,20.3,0,4.67,1.61,9.59,7.33,9.59,5.15,0,11.36-5.88,13.05-14.67Z"/><path class="cls-1" d="M658.85,688.27a99.05,99.05,0,0,1,.89-10.07h-.16c-4.27,8.06-9.59,11-15.15,11-6.84,0-11.19-5.48-11.19-12.89,0-13.54,10-27.88,27-27.88a36.61,36.61,0,0,1,10.48,1.53l-4,20.31a89.87,89.87,0,0,0-1.7,18Zm4.35-34a18.15,18.15,0,0,0-4.67-.56c-10.07,0-18.29,10.55-18.37,21.35,0,4.35,1.53,8.62,6.69,8.62,5.56,0,12.17-7.25,14.1-17.65Z"/><path class="cls-1" d="M716.54,631.08,708,676a96.76,96.76,0,0,0-1.7,12.32h-6.12l1.05-7.73h-.16c-3.55,5.56-8.46,8.62-14,8.62-7.57,0-11.68-6.2-11.68-14.18,0-13.86,10.31-26.59,24.09-26.59a17.74,17.74,0,0,1,6.92,1.37l3.47-18.68Zm-11.2,24.32a12.24,12.24,0,0,0-6.45-1.61c-9.34,0-16.59,9.91-16.59,20.3,0,4.67,1.61,9.59,7.33,9.59,5.15,0,11.36-5.88,13-14.67Z"/><path class="cls-1" d="M745.45,686a26.75,26.75,0,0,1-12.89,3.06c-10.31,0-14.82-7-14.82-15.62,0-11.77,8.7-25.06,21.27-25.06,7.41,0,11.44,4.43,11.44,10,0,10.24-11.52,13-25.94,12.73a16.15,16.15,0,0,0,.81,7.41c1.52,3.47,4.67,5.24,8.7,5.24A21.74,21.74,0,0,0,744.49,681ZM738,653.63c-6.36,0-11.11,6.2-12.72,12.33,10.47.07,18.68-1.29,18.68-7.34,0-3.22-2.41-5-6-5"/><path class="cls-1" d="M795.32,686.74a26.86,26.86,0,0,1-11.27,2.33c-10.07,0-15-6.76-15-15.06,0-13.29,9.83-25.54,23.84-25.54a19.78,19.78,0,0,1,8.14,1.7l-1.93,5.31A15.06,15.06,0,0,0,792.5,654C782.35,654,776,664,776,673.21c0,6.28,3.3,10.38,9.67,10.38a20.44,20.44,0,0,0,9-2.17Z"/><path class="cls-1" d="M802.57,688.27l4.76-25.13c1-5.08,1.61-10.24,2-13.86h5.88c-.32,2.74-.64,5.47-1.05,8.46h.25c2.49-5.32,6.68-9.35,11.92-9.35a13.28,13.28,0,0,1,1.85.16l-1.29,6.61a9.56,9.56,0,0,0-1.77-.16c-5.8,0-11,7-12.65,16.11l-3.22,17.16Z"/><path class="cls-1" d="M855.82,686a26.73,26.73,0,0,1-12.88,3.06c-10.32,0-14.83-7-14.83-15.62,0-11.77,8.7-25.06,21.27-25.06,7.41,0,11.44,4.43,11.44,10,0,10.24-11.52,13-25.94,12.73a16.15,16.15,0,0,0,.81,7.41c1.52,3.47,4.67,5.24,8.7,5.24A21.74,21.74,0,0,0,854.86,681Zm-7.41-32.38c-6.36,0-11.11,6.2-12.72,12.33,10.47.07,18.68-1.29,18.68-7.34,0-3.22-2.41-5-6-5"/><path class="cls-1" d="M864.52,681.5a17.77,17.77,0,0,0,8.38,2.42c4.51,0,7.42-2.9,7.42-6.37,0-3.06-1.38-4.9-5.4-7.17-4.52-2.49-7-6-7-9.9,0-6.85,5.88-12.09,14.1-12.09a16.15,16.15,0,0,1,8.13,1.94l-1.85,5.07a14,14,0,0,0-6.77-1.77c-4,0-6.92,2.5-6.92,5.88,0,2.82,1.85,4.59,5.31,6.53,4.35,2.49,7.33,5.87,7.33,10.23,0,8.21-6.69,12.8-14.9,12.8-4.19,0-7.89-1.28-9.67-2.65Z"/><path class="cls-1" d="M921.08,686.74a26.92,26.92,0,0,1-11.28,2.33c-10.07,0-15-6.76-15-15.06,0-13.29,9.82-25.54,23.84-25.54a19.78,19.78,0,0,1,8.14,1.7l-1.93,5.31a15.14,15.14,0,0,0-6.61-1.45c-10.15,0-16.51,10-16.51,19.18,0,6.28,3.3,10.38,9.66,10.38a20.44,20.44,0,0,0,9-2.17Z"/><path class="cls-1" d="M955.72,686a26.78,26.78,0,0,1-12.89,3.06c-10.31,0-14.82-7-14.82-15.62,0-11.77,8.7-25.06,21.27-25.06,7.41,0,11.44,4.43,11.44,10,0,10.24-11.52,13-25.94,12.73a16.13,16.13,0,0,0,.8,7.41c1.53,3.47,4.67,5.24,8.7,5.24A21.71,21.71,0,0,0,954.75,681Zm-7.41-32.38c-6.36,0-11.12,6.2-12.73,12.33,10.48.07,18.69-1.29,18.69-7.34,0-3.22-2.41-5-6-5"/><path class="cls-2" d="M180.21,427.31H125.39l-18.46,57.42c-4,14.19-8.1,29-12.24,44.06-3.17-14.95-6.85-29.65-11-43.85l-16.9-57.63H11L0,599.41H41.91L45,533.34l2-38.88C49.78,507,52.83,519,56.09,530.23l18.35,57.43H109l20.85-57.79c4.44-13.91,8.61-27.55,12.49-40.76.16,5.55.35,12.16.58,20,.16,5.36.24,13.08.24,23.73l2.58,66.61h43.87Z"/><path class="cls-2" d="M297.73,593.78a60.87,60.87,0,0,1-1.16-9.32c-.12-3.27-.19-7.94-.19-13.86v-34c0-13.35-3.41-24-10.14-31.78-7.77-8.91-19.84-13.44-35.88-13.44a94,94,0,0,0-24,3.11,69.66,69.66,0,0,0-15.47,5.87l-2.12,1.16,7.38,25.82,3.42-2.18a43.63,43.63,0,0,1,11.69-4.94,50.6,50.6,0,0,1,13.68-2c5.82,0,10,1.21,12.45,3.52a7.8,7.8,0,0,1,2.21,4.48c-16.89.35-30.51,3.64-40.53,9.78-11.12,6.8-16.76,17.06-16.76,30.49a32.13,32.13,0,0,0,9.47,23.24c6.28,6.42,14.75,9.68,25.16,9.68s19.46-2.95,26.62-8.8l1.25,6.8h33.63Zm-53.59-39.37c4-1.86,9.59-2.92,16.61-3.15v7.34c0,.22-.08.93-.2,2.11-.15,1.7-.26,2.27-.25,2.21A13.59,13.59,0,0,1,247.37,572a9.59,9.59,0,0,1-6.62-2.25c-1.59-1.38-2.36-3.43-2.36-6.24,0-4.38,1.83-7.26,5.75-9.07"/><path class="cls-2" d="M376,491.37a31.08,31.08,0,0,0-24.72,13.29l-.62-11.08H318.62v3c0,2.48.14,7.42.4,13.91.27,7.09.4,13.07.4,18.28l-.22,68.62h36.45V545.06l.58-6.58a15.74,15.74,0,0,1,5.95-9.28c3.14-2.41,7-3.58,11.87-3.58,1.87,0,3.19,0,3.94.09.41,0,1.47.17,3.85.65l3.62.72V491.37Z"/><path class="cls-2" d="M491.28,593.79a60.2,60.2,0,0,1-1.14-9.34c-.14-3.14-.21-7.8-.21-13.85v-34c0-13.35-3.41-24.05-10.13-31.78C472,495.9,460,491.37,443.93,491.37a94,94,0,0,0-24,3.11,69.48,69.48,0,0,0-15.48,5.87l-2.11,1.16,7.38,25.82,3.42-2.19a43.78,43.78,0,0,1,11.68-4.93,50.6,50.6,0,0,1,13.68-2c5.82,0,10,1.21,12.46,3.52a7.78,7.78,0,0,1,2.22,4.48c-16.89.35-30.52,3.64-40.54,9.78-11.11,6.8-16.75,17.06-16.75,30.49a32.12,32.12,0,0,0,9.46,23.24c6.29,6.42,14.75,9.68,25.15,9.68s19.47-2.95,26.63-8.8l1.25,6.8H492ZM437.7,554.41c4-1.86,9.59-2.92,16.59-3.15v7.36c0,.21-.06.91-.18,2.07s-.21,2-.24,2.22A13.66,13.66,0,0,1,440.92,572a9.6,9.6,0,0,1-6.61-2.25c-1.59-1.38-2.37-3.43-2.37-6.24,0-4.37,1.83-7.26,5.76-9.07"/><path class="cls-2" d="M581.22,566.57a40.72,40.72,0,0,1-7.34,2,49.19,49.19,0,0,1-9,.74c-7,0-12.6-2.08-17.12-6.34s-6.66-10.09-6.66-17.92c0-7.37,2.09-13.14,6.38-17.65s9.74-6.63,16.82-6.63a47.16,47.16,0,0,1,9.2.85,30.24,30.24,0,0,1,6.52,1.87l3.44,1.59,6.11-28.85-2.44-.91a69.24,69.24,0,0,0-24.25-4c-18.47,0-33.25,5.41-43.92,16.06-10,10-15.09,23.05-15.09,38.85,0,16.22,5,29.27,14.81,38.8s23.26,14.32,40,14.32a90.63,90.63,0,0,0,16.13-1.35,52.39,52.39,0,0,0,12.32-3.52l2.11-.95-4.58-28.38Z"/><path class="cls-2" d="M698.68,593.78a56.69,56.69,0,0,1-1.14-9.33c-.14-3-.2-7.53-.2-13.85v-34c0-13.35-3.41-24-10.15-31.78-7.77-8.92-19.84-13.44-35.88-13.44a94,94,0,0,0-24,3.11,69.48,69.48,0,0,0-15.48,5.87l-2.11,1.16,7.39,25.82,3.41-2.18a43.41,43.41,0,0,1,11.68-4.94,51,51,0,0,1,13.69-2c5.8,0,10,1.2,12.44,3.51a7.71,7.71,0,0,1,2.21,4.47c-16.87.37-30.5,3.65-40.54,9.79-11.11,6.81-16.74,17.07-16.74,30.49a32.09,32.09,0,0,0,9.47,23.24c6.29,6.42,14.76,9.69,25.17,9.69s19.44-3,26.61-8.81l1.26,6.81h33.6Zm-37-35.16c0,.21-.07.91-.19,2.11-.14,1.61-.26,2.23-.25,2.19a12.93,12.93,0,0,1-4.81,6.45,13.17,13.17,0,0,1-8.11,2.6,9.53,9.53,0,0,1-6.61-2.24c-1.6-1.39-2.37-3.44-2.37-6.25,0-4.38,1.83-7.26,5.74-9.07s9.6-2.92,16.6-3.15Z"/><path class="cls-2" d="M806.44,502.57c-6.69-7.43-15.84-11.2-27.18-11.2A40.37,40.37,0,0,0,758,497.42a41.91,41.91,0,0,0-7.11,5.41l-1-9.25h-32.3v3c0,2.49.12,7,.38,14.31.29,7.5.42,12.87.42,16.89v69.61H755V538a20.54,20.54,0,0,1,1.3-7.44,15.69,15.69,0,0,1,4.49-6.1,11,11,0,0,1,7.58-2.65c4.32,0,7.3,1.38,9.1,4.19,2,3.25,3.09,8,3.09,14.19v57.22h36.63v-61c0-14.55-3.61-25.93-10.74-33.82"/><path class="cls-2" d="M930.4,593.78a60,60,0,0,1-1.15-9.32c-.13-3.23-.19-7.89-.19-13.86v-34c0-13.33-3.41-24-10.14-31.78-7.77-8.91-19.84-13.44-35.88-13.44a94,94,0,0,0-24,3.11,69.51,69.51,0,0,0-15.48,5.87l-2.1,1.16,7.37,25.83,3.42-2.2A43.89,43.89,0,0,1,864,520.21a50.8,50.8,0,0,1,13.7-2c5.82,0,10,1.21,12.46,3.52a7.73,7.73,0,0,1,2.2,4.48c-16.88.35-30.51,3.64-40.55,9.78C840.65,542.8,835,553.06,835,566.48a32.13,32.13,0,0,0,9.47,23.24c6.28,6.42,14.74,9.68,25.16,9.68s19.45-2.95,26.62-8.8l1.24,6.8h33.63Zm-37-35.17c0,.21-.07.92-.19,2.08s-.22,2-.24,2.22A13.64,13.64,0,0,1,880,572a9.58,9.58,0,0,1-6.61-2.24c-1.6-1.39-2.37-3.43-2.37-6.24,0-4.37,1.83-7.26,5.76-9.07s9.59-2.92,16.6-3.15Z"/><path class="cls-3" d="M1047,398.65c-48.69-64.6-125.14-97.87-201.54-97.87-58.33,0-107,21.48-154.14,58.8-38.91-39.68-107.65-60.68-166-60.68h0c-58.32,0-127.06,21-166,60.68-47.1-37.32-95.82-58.79-154.13-58.79-76.4,0-152.85,33.26-201.55,97.86,51.72-42.42,111.61-66.86,176.28-66.86,62.81,0,126.51,27.18,177.68,67.37v0h.92c42.34-38,103.81-59.29,166.62-59.29s124.21,21.3,166.54,59.29h-3.81v0c51.17-40.19,117.42-67.37,180.23-67.37,64.68,0,127.13,24.43,178.84,66.86"/><path class="cls-3" d="M284,162.74s3.3-.79,10.52-9,7-8.95,8-11.49,2.38-5.48,7.8-8.86c0,0,7.6-10.76,25.8-25.38,0,0,5.26,1.78-11.38,14.33,0,0,5.72-2.63,6.87-1.45s-3,2.45-5.1,3.83c0,0,25.24-13,26.88-10.37s-11.12,10.23-23,15.57c0,0,23.57-6.57,24-5.14,0,0-2.15,6.2-18.64,9,0,0,15.67-2.9,15.3.83,0,0-3.67,4.55-20.18,5.54,0,0,14.26-.57,19.18,1.23,0,0-.48,5.18-12.48,4.14,0,0,6.58,1.41,11.17,2.75,0,0,.09,5.78-10.51,3.6,0,0,8.71,3.06,9.06,4.74,0,0-2,4.12-10.5.6,0,0,8.22,3.42,7.39,5.72,0,0-3.46,2.95-11.67-1.11,0,0,10.34,6.19,5.75,9.07,0,0,1.15,3.58-2,3.53,0,0,1,3.83-2.26,4,0,0,.61,4.71-3.06,4.49,0,0,.78,1.94-2,1.77,0,0,.57,4.8-2.71,3.81,0,0-.25,2.88-4.16,2.48,0,0-1.17,3-2.46.92,0,0-1.07,2.18-2.82,2.23,0,0,19.24,10,19.69,12.64s-6.12,1.23-12.68-4.38,20.26,16.24,20.14,18.88-8.34-2-14.79-7.23,17.77,21.37,17.77,21.37,2.22,3.79-7.05-1.64,12.76,14.37,11.55,18-5.39-2.64-8.78-7,12.85,20.15,15.76,23.08-.7,2.06-4.22-2.05c0,0,11.59,13.79,12.53,16.07s-3.55.07-8.35-5.6c0,0-2.94.08-7.49-6.67,0,0-1.8,4.85-15.67-19.12,0,0,14.48,22.16,13.87,24,0,0-4,4.67-20.34-25.63,0,0,10.37,22.26-.86,6.51a177.69,177.69,0,0,1-11.53-21s5.55,15.38-5.87-5.88c0,0-1,3.15-5.28-5.3s-4.18-11.7-7.64-20.62c0,0,1,3.22-3.44,2.25,0,0,.11,2.76-3.31,2.59,0,0-1,3.75-5.06.85,0,0,1.43,3.62-4.4,1.27,0,0,.72,2.65-4.1.6,0,0-.58,2.42-3.76.57,0,0-.23,1.7-3.29-.4,0,0-1.19,3-5.06-1,0,0-.85,2.31-4.45-2.17,0,0-3.45,3.45-6.68-7.8,0,0,.56,7.22-1.33,8.11s-4.11-4.12-4.32-7.84c0,0,.33,4.68-1.32,5.68,0,0-3.31-.41-4.79-6.87,0,0-.15,3.86-1.9,3.9a6,6,0,0,1-5-8.19s-3.31,5-8.37,1.64c0,0-1.16-1.17.5-4.58,0,0-7.79,4-10.72-.1a9,9,0,0,1,3.1-6.35s-5.55,3.62-9.76-.85,5.89-3.15,5.89-3.15-7.52-1.87-9.38-5.18c0,0,3.33.34,7.35,1,0,0-7.58-.5-8.74-5.89,0,0,.46,1.43,6,3.23a30.64,30.64,0,0,0,11.65.56,104.1,104.1,0,0,1,11.91-.51s.48-1.57,14-1.9,12.77,1.35,17.18-1a32.46,32.46,0,0,0-1.67-3.6c-.92-1.66-2.88-2-3.35-3s-3.86-1.63-4.28-5.11c0,0-.33.9-.89.1s-1.88-4.2,1.3-7.73c0,0,.75-2.43,4.13-2.05s4.24.08,8.87,3.15,9.41,10.61,14.08,10"/><path class="cls-4" d="M246.89,296.4c7.06,1.33,14,3,20.81,5q4.1-25.68,8.4-51.3a401.29,401.29,0,0,0-34-26.15A393.5,393.5,0,0,0,204.3,245c0,1.7,0,3.39,0,5.1-9.9-6-20.18-11.64-30.89-16.87q-15.75,11.21-29.93,23.5c.46,3,1,6,1.42,9-8.16-3.49-16.52-6.78-25.12-9.75Q109,266.32,99.18,277.21q4.66,17,9.53,34c6.1-2.44,12.3-4.56,18.56-6.53h0q-3.11-9.18-6.2-18.38c-.45-1.26-.19-2.54.52-2.83,3.86-1.59,7.75-3.05,11.64-4.48.72-.27,1.66.58,2.09,1.86,2.09,6.6,4.2,13.19,6.28,19.77a263.81,263.81,0,0,1,32-6l-.13,0q-1.38-11.57-2.71-23.13c-.24-1.47.37-2.79,1.19-2.94,4.57-.83,9.07-1.54,13.62-2.19.87-.12,1.67,1,1.81,2.47q1.2,11.81,2.41,23.55l-.1.72c-.87.05-1.73.14-2.6.2,6.2-.44,12.41-.73,18.63-.73,6.87,0,13.6.33,20.22.92l-.21,0q.93-14.55,1.92-29.05c.08-2.09,1.17-3.74,2.35-3.69,6.24.13,12.45.44,18.66.82,1.18.09,2,1.86,1.78,3.9-.83,10.35-1.73,20.7-2.59,31.08Z"/><path class="cls-4" d="M641.78,121.23q-10.34,6.72-20.59,13.59-1-20.65-2.23-41.36a5.93,5.93,0,0,0-5.6-5.55q-13.11-.6-26.23-1a5.56,5.56,0,0,0-5.71,5.14q-2.92,37.38-5.92,74.79c-3.41,2.46-6.77,5-10.16,7.46-2.29,1.69-4.15.65-4.2-2.27q-.12-25.69-.46-51.41c0-2.88-1.88-3.94-4.24-2.25q-37.92,27.74-73.54,57.26c-2.18,1.8-4.14.88-4.29-2.06q-1.37-25.67-2.79-51.32c-.15-3-2.12-3.85-4.3-2Q434.88,150,400.57,181.38a12.16,12.16,0,0,0-3.26,8.82q6.54,63.33,13.25,126.74c35.71-17.23,77.19-26.23,115.24-26.23,36.25,0,76.5,8.12,111.13,23.78q5.87-95.33,9.07-190.8c.07-2.92-1.8-4-4.22-2.46M449.94,249.31q-12.45.91-24.82,2.05A2.81,2.81,0,0,1,422,249q-1.17-11.69-2.34-23.37a2.89,2.89,0,0,1,2.67-3c8.44-.76,16.82-1.45,25.25-2.06a2.8,2.8,0,0,1,3.13,2.43q.9,11.69,1.83,23.39a2.76,2.76,0,0,1-2.57,2.92m56.59-3.17c-8.29.3-16.56.68-24.86,1.12a2.83,2.83,0,0,1-3-2.57Q478,233,477.23,221.3a2.75,2.75,0,0,1,2.68-2.81c8.45-.45,16.91-.85,25.38-1.15a2.86,2.86,0,0,1,3,2.59c.33,7.82.7,15.64,1,23.44a2.73,2.73,0,0,1-2.76,2.77m56.8-.92q-12.48,0-24.93.14a2.79,2.79,0,0,1-2.94-2.63c-.14-7.81-.36-15.61-.57-23.45a2.78,2.78,0,0,1,2.87-2.73c8.45-.12,16.94-.16,25.38-.13a2.86,2.86,0,0,1,2.94,2.72q.09,11.72.14,23.44a2.69,2.69,0,0,1-2.89,2.64M623.25,244a2.76,2.76,0,0,1-2.92,2.53c-8.34-.37-16.7-.65-25-.86a2.77,2.77,0,0,1-2.84-2.76q.12-11.7.22-23.41a2.79,2.79,0,0,1,3-2.63c8.51.24,17,.51,25.54.89a2.83,2.83,0,0,1,2.75,2.78q-.36,11.73-.76,23.46"/><path class="cls-3" d="M713.78.31c.79-3.41-6.93,22-45.54,34.51S615.37,62.35,612,68.52c0,0,86.31-3.09,101.79-68.21"/><path class="cls-3" d="M706.18,8.27s-13.47,16.73-43.27,26-51.39,22-60.36,45.15c0,0-1.61-44.69,43.1-52.38,42.13-7.22,60.53-18.75,60.53-18.75"/><path class="cls-3" d="M866.56,202c-10.6,33.17-14.64,69.44-15.93,90.88q9,0,17.9.76c-2-41.53.73-71.15,3.94-90.18,4.28,6.42,18.51,19,28.32.8a27.39,27.39,0,0,0,2-4.69c3.1-.33,5.84-2.4,7.66-7.39,4.47-12.26.43-21.41-7.34-24.06,1.22-5.73-2.48-11.65-15.15-13.65-6.54-1-10.52-.3-12.9,1.37-3.32-2.87-8.4-2.82-15.5,3.72-7.42,6.84-7.88,11.3-5.28,14.26-7,4-9.29,13.58-3,24.78,4.42,7.82,10.06,7.26,15.23,3.4"/><path class="cls-3" d="M906.81,223.72c1.3,7,6,8,11.34,6.26a216.27,216.27,0,0,0-26.6,66.59c4.71.84,9.35,1.84,14,2.95,1.62-29.73,9.13-52.21,17.16-68.14l0,.92c1.51,5.9,9.51,19.36,23,7.5a25.51,25.51,0,0,0,3-3.14c2.64.47,5.5-.47,8.46-3.9,7.25-8.44,6.65-16.47,1.06-20.37,2.7-4.13,1.42-9.59-8.38-14.13-5-2.35-8.53-2.73-11-2-1.88-3-6-4.16-13.77-.78-8.1,3.54-9.81,6.88-8.54,9.79-6.91,1.45-11.62,8.29-9.74,18.44"/><path class="cls-3" d="M702.55,238.81c3.37,3.84,6.6,4.88,9.58,4.31a26.59,26.59,0,0,0,3.43,3.51c15.39,13.23,24.29-2,25.92-8.74l0-.93c8.86,17.16,17.23,41.14,19.8,72.64q7.23-2.87,14.69-5.27a244.13,244.13,0,0,0-29.44-69.08c6,1.87,11.39.76,12.78-7.2,2-11.49-3.42-19.18-11.23-20.73,1.37-3.29-.57-7-9.77-10.95-8.78-3.74-13.47-2.37-15.55,1-2.76-.8-6.7-.34-12.37,2.37-11,5.23-12.37,11.41-9.26,16.05-6.26,4.47-6.83,13.53,1.46,23"/><path class="cls-3" d="M753.13,180.88a35.33,35.33,0,0,0,2.81,5.85c13.42,22.53,30.78,5.84,35.87-2.55,5,23.85,10.09,61,9.74,113.43q11.06-2.25,22.44-3.44c-2.9-27.37-10-71.81-24.74-112.11,6.75,4.61,13.92,5,19.11-5.13,7.42-14.5,4-26.5-5-31.24,3.13-3.88,2.23-9.54-7.52-17.81-9.34-7.93-15.77-7.73-19.83-3.9-3.11-2-8.19-2.72-16.43-1.07-15.95,3.2-20.32,10.9-18.45,18.1-9.74,3.77-14.37,15.59-8.06,30.91,2.55,6.22,6.14,8.7,10.08,9"/></g></g></svg>